<svg width="78" height="59" viewBox="0 0 78 59" fill="none" xmlns="http://www.w3.org/2000/svg">
<path d="M32.7097 1.25537H31.4516V2.51069H32.7097V1.25537Z" fill="#181211" fill-opacity="0.8"/>
<path d="M28.9355 2.51069H27.6774V3.76601H28.9355V2.51069Z" fill="#181211" fill-opacity="0.8"/>
<path d="M35.2258 2.51069V3.76601V5.02133H36.4839V2.51069H35.2258Z" fill="#181211" fill-opacity="0.8"/>
<path d="M17.6129 5.02133V3.76601H18.871H20.129H22.6451H23.9032V5.02133H22.6451H21.3871H20.129H17.6129V6.27665H16.3548L15.0968 7.53197H13.8387V8.78729V10.0426H12.5806V8.78729V7.53197H11.3226V6.27665H12.5806V5.02133H13.8387H15.0968H16.3548H17.6129Z" fill="#181211" fill-opacity="0.8"/>
<path d="M26.4193 3.76601H25.1613V5.02133H26.4193V3.76601Z" fill="#181211" fill-opacity="0.8"/>
<path d="M31.4516 3.76601V5.02133H33.9677V3.76601H31.4516Z" fill="#181211" fill-opacity="0.8"/>
<path d="M30.1935 5.02133H28.9355V6.27665H30.1935V5.02133Z" fill="#181211" fill-opacity="0.8"/>
<path d="M7.54837 6.27665V7.53197V8.78729V10.0426H8.80644V8.78729V7.53197V6.27665H7.54837Z" fill="#181211" fill-opacity="0.8"/>
<path d="M20.129 6.27665H18.871V7.53197H20.129V6.27665Z" fill="#181211" fill-opacity="0.8"/>
<path d="M25.1613 6.27665H23.9032V7.53197H25.1613V6.27665Z" fill="#181211" fill-opacity="0.8"/>
<path d="M31.4516 6.27665V7.53197V8.78729H32.7097V7.53197V6.27665H31.4516Z" fill="#181211" fill-opacity="0.8"/>
<path d="M17.6129 8.78729V10.0426V11.2979H18.871V10.0426V8.78729H17.6129Z" fill="#181211" fill-opacity="0.8"/>
<path d="M22.6451 10.0426V8.78729H23.9032V10.0426V11.2979H22.6451V13.8086H21.3871V12.5532V11.2979H22.6451V10.0426Z" fill="#181211" fill-opacity="0.8"/>
<path d="M27.6774 10.0426H26.4193V11.2979H27.6774V10.0426Z" fill="#181211" fill-opacity="0.8"/>
<path d="M31.4516 10.0426H30.1935V11.2979H31.4516V10.0426Z" fill="#181211" fill-opacity="0.8"/>
<path d="M36.4839 10.0426H35.2258V11.2979H36.4839V10.0426Z" fill="#181211" fill-opacity="0.8"/>
<path d="M11.3226 11.2979H12.5806V12.5532H11.3226V13.8086H8.80644V12.5532H10.0645H11.3226V11.2979Z" fill="#181211" fill-opacity="0.8"/>
<path d="M17.6129 12.5532H16.3548V13.8086H17.6129V12.5532Z" fill="#181211" fill-opacity="0.8"/>
<path d="M26.4193 12.5532H27.6774V13.8086H28.9355V12.5532H30.1935V13.8086H28.9355V15.0639H27.6774V13.8086H26.4193V12.5532Z" fill="#181211" fill-opacity="0.8"/>
<path d="M31.4516 12.5532V13.8086H32.7097H33.9677V12.5532H32.7097H31.4516Z" fill="#181211" fill-opacity="0.8"/>
<path d="M25.1613 13.8086H23.9032V15.0639H25.1613V13.8086Z" fill="#181211" fill-opacity="0.8"/>
<path d="M36.4839 13.8086H35.2258V15.0639H36.4839V13.8086Z" fill="#181211" fill-opacity="0.8"/>
<path d="M11.3226 15.0639H12.5806V16.3192H11.3226V17.5745H10.0645V16.3192H11.3226V15.0639Z" fill="#181211" fill-opacity="0.8"/>
<path d="M16.3548 15.0639H15.0968V16.3192H16.3548V15.0639Z" fill="#181211" fill-opacity="0.8"/>
<path d="M18.871 15.0639H17.6129V16.3192H18.871V15.0639Z" fill="#181211" fill-opacity="0.8"/>
<path d="M67.9355 16.3192H66.6774V17.5745H67.9355V16.3192Z" fill="#181211" fill-opacity="0.8"/>
<path d="M12.5806 20.0852H11.3226V21.3405H12.5806V20.0852Z" fill="#181211" fill-opacity="0.8"/>
<path d="M36.4839 21.3405H35.2258V22.5958H36.4839V21.3405Z" fill="#181211" fill-opacity="0.8"/>
<path d="M12.5806 22.5958H11.3226V23.8511H12.5806V22.5958Z" fill="#181211" fill-opacity="0.8"/>
<path d="M35.2258 26.3618H33.9677V27.6171H35.2258V26.3618Z" fill="#181211" fill-opacity="0.8"/>
<path d="M62.9032 26.3618H61.6451V27.6171H62.9032V26.3618Z" fill="#181211" fill-opacity="0.8"/>
<path d="M30.1935 28.8724H28.9355V30.1277H30.1935V28.8724Z" fill="#181211" fill-opacity="0.8"/>
<path d="M61.6451 28.8724V30.1277V31.383H62.9032V30.1277V28.8724H61.6451Z" fill="#181211" fill-opacity="0.8"/>
<path d="M15.0968 31.383H13.8387V32.6383H15.0968V31.383Z" fill="#181211" fill-opacity="0.8"/>
<path d="M27.6774 31.383V32.6383H28.9355H30.1935L28.9355 31.383H27.6774Z" fill="#181211" fill-opacity="0.8"/>
<path d="M17.6129 32.6383H16.3548V33.8937H17.6129V32.6383Z" fill="#181211" fill-opacity="0.8"/>
<path d="M71.7097 32.6383H70.4516V33.8937H71.7097V32.6383Z" fill="#181211" fill-opacity="0.8"/>
<path d="M74.2258 32.6383V33.8937H75.4839H76.7419V32.6383H75.4839H74.2258Z" fill="#181211" fill-opacity="0.8"/>
<path d="M8.80644 33.8937V35.149H10.0645H11.3226V33.8937H10.0645H8.80644Z" fill="#181211" fill-opacity="0.8"/>
<path d="M30.1935 33.8937H28.9355V35.149H30.1935V33.8937Z" fill="#181211" fill-opacity="0.8"/>
<path d="M6.29031 35.149H7.54837V36.4043H8.80644V37.6596H7.54837V36.4043H6.29031V35.149Z" fill="#181211" fill-opacity="0.8"/>
<path d="M33.9677 35.149H32.7097V36.4043H33.9677V35.149Z" fill="#181211" fill-opacity="0.8"/>
<path d="M11.3226 37.6596H10.0645V38.9149H11.3226V37.6596Z" fill="#181211" fill-opacity="0.8"/>
<path d="M60.3871 37.6596V38.9149V40.1703H61.6451V38.9149V37.6596H60.3871Z" fill="#181211" fill-opacity="0.8"/>
<path d="M35.2258 38.9149H33.9677V40.1703H35.2258V38.9149Z" fill="#181211" fill-opacity="0.8"/>
<path d="M3.77418 40.1703H2.51611V41.4256H3.77418V40.1703Z" fill="#181211" fill-opacity="0.8"/>
<path d="M31.4516 40.1703H30.1935V41.4256H31.4516V40.1703Z" fill="#181211" fill-opacity="0.8"/>
<path d="M13.8387 42.6809V41.4256H15.0968V42.6809V43.9362H13.8387V45.1915H12.5806V43.9362H13.8387V42.6809Z" fill="#181211" fill-opacity="0.8"/>
<path d="M5.03224 43.9362H3.77418V45.1915H5.03224V43.9362Z" fill="#181211" fill-opacity="0.8"/>
<path d="M7.54837 43.9362V45.1915H8.80644H10.0645V43.9362H8.80644H7.54837Z" fill="#181211" fill-opacity="0.8"/>
<path d="M52.8387 45.1915H51.5806V46.4469H52.8387V45.1915Z" fill="#181211" fill-opacity="0.8"/>
<path d="M61.6451 45.1915H60.3871V46.4469H61.6451V45.1915Z" fill="#181211" fill-opacity="0.8"/>
<path d="M55.3548 46.4469H54.0968V47.7022H55.3548V46.4469Z" fill="#181211" fill-opacity="0.8"/>
<path d="M64.1613 46.4469H62.9032V47.7022H64.1613V46.4469Z" fill="#181211" fill-opacity="0.8"/>
<path d="M12.5806 47.7022H11.3226V48.9575H12.5806V47.7022Z" fill="#181211" fill-opacity="0.8"/>
<path d="M54.0968 48.9575H52.8387V50.2128H54.0968V48.9575Z" fill="#181211" fill-opacity="0.8"/>
<path d="M57.871 50.2128H56.6129V51.4681H57.871V50.2128Z" fill="#181211" fill-opacity="0.8"/>
<path d="M50.3226 51.4681L49.0645 53.9788H50.3226V52.7235V51.4681Z" fill="#181211" fill-opacity="0.8"/>
<path d="M32.7097 1.25537L31.4516 2.51069H30.1935H28.9355V3.76601V5.02133H30.1935L31.4516 3.76601H33.9677L35.2258 2.51069H36.4839V1.25537H33.9677H32.7097Z" fill="#181211" fill-opacity="0.9"/>
<path d="M23.9032 3.76601V5.02133V6.27665H25.1613V5.02133V3.76601H23.9032Z" fill="#181211" fill-opacity="0.9"/>
<path d="M17.6129 5.02133V6.27665H18.871H20.129V5.02133H17.6129Z" fill="#181211" fill-opacity="0.9"/>
<path d="M8.80644 6.27665V7.53197H10.0645H11.3226V6.27665H10.0645H8.80644Z" fill="#181211" fill-opacity="0.9"/>
<path d="M30.1935 11.2979V12.5532V13.8086H31.4516V12.5532V11.2979H30.1935Z" fill="#181211" fill-opacity="0.9"/>
<path d="M35.2258 11.2979L33.9677 12.5532V13.8086H35.2258H36.4839V11.2979H35.2258Z" fill="#181211" fill-opacity="0.9"/>
<path d="M25.1613 12.5532V13.8086V15.0639H27.6774V13.8086L26.4193 12.5532H25.1613Z" fill="#181211" fill-opacity="0.9"/>
<path d="M8.80644 13.8086V16.3192H10.0645H11.3226V15.0639V13.8086H8.80644Z" fill="#181211" fill-opacity="0.9"/>
<path d="M16.3548 13.8086V15.0639V16.3192H17.6129V15.0639V13.8086H16.3548Z" fill="#181211" fill-opacity="0.9"/>
<path d="M20.129 13.8086V15.0639H21.3871H22.6451V13.8086H21.3871H20.129Z" fill="#181211" fill-opacity="0.9"/>
<path d="M64.1613 15.0639V16.3192L65.4193 17.5745H66.6774V16.3192L65.4193 15.0639H64.1613Z" fill="#181211" fill-opacity="0.9"/>
<path d="M12.5806 21.3405H11.3226V22.5958H12.5806V21.3405Z" fill="#181211" fill-opacity="0.9"/>
<path d="M35.2258 22.5958V23.8511V25.1064V26.3618H36.4839V25.1064V22.5958H35.2258Z" fill="#181211" fill-opacity="0.9"/>
<path d="M32.7097 27.6171H31.4516V28.8724H32.7097V27.6171Z" fill="#181211" fill-opacity="0.9"/>
<path d="M35.2258 28.8724V27.6171H36.4839V28.8724V30.1277V31.383H35.2258V32.6383V33.8937V35.149H33.9677V33.8937V32.6383V31.383H35.2258V30.1277V28.8724Z" fill="#181211" fill-opacity="0.9"/>
<path d="M62.9032 27.6171H61.6451V28.8724H62.9032V27.6171Z" fill="#181211" fill-opacity="0.9"/>
<path d="M27.6774 30.1277H28.9355V31.383H27.6774V32.6383H26.4193V31.383H27.6774V30.1277Z" fill="#181211" fill-opacity="0.9"/>
<path d="M12.5806 32.6383V31.383H13.8387V32.6383V33.8937H12.5806V35.149V36.4043V37.6596H11.3226V36.4043V35.149V33.8937H12.5806V32.6383Z" fill="#181211" fill-opacity="0.9"/>
<path d="M15.0968 32.6383H16.3548V33.8937H17.6129V35.149H18.871V36.4043H17.6129V35.149H16.3548V33.8937H15.0968V32.6383Z" fill="#181211" fill-opacity="0.9"/>
<path d="M31.4516 32.6383H30.1935V33.8937H31.4516V32.6383Z" fill="#181211" fill-opacity="0.9"/>
<path d="M30.1935 35.149H28.9355V36.4043H30.1935V35.149Z" fill="#181211" fill-opacity="0.9"/>
<path d="M3.77418 37.6596L5.03224 36.4043H6.29031V38.9149H7.54837V40.1703V41.4256H6.29031V40.1703V38.9149H3.77418V40.1703H2.51611V38.9149H3.77418V37.6596Z" fill="#181211" fill-opacity="0.9"/>
<path d="M32.7097 37.6596V36.4043H33.9677V37.6596V38.9149H32.7097V40.1703H31.4516V38.9149H32.7097V37.6596Z" fill="#181211" fill-opacity="0.9"/>
<path d="M26.4193 37.6596V38.9149L27.6774 40.1703H28.9355V38.9149V37.6596H27.6774H26.4193Z" fill="#181211" fill-opacity="0.9"/>
<path d="M10.0645 40.1703V38.9149H11.3226V40.1703V41.4256H10.0645V42.6809H8.80644V41.4256H10.0645V40.1703Z" fill="#181211" fill-opacity="0.9"/>
<path d="M18.871 40.1703H17.6129V41.4256H18.871V40.1703Z" fill="#181211" fill-opacity="0.9"/>
<path d="M56.6129 41.4256V42.6809V43.9362H57.871L59.129 42.6809V41.4256H57.871H56.6129Z" fill="#181211" fill-opacity="0.9"/>
<path d="M61.6451 41.4256H60.3871V42.6809H61.6451V41.4256Z" fill="#181211" fill-opacity="0.9"/>
<path d="M5.03224 42.6809V43.9362V45.1915H6.29031V43.9362V42.6809H5.03224Z" fill="#181211" fill-opacity="0.9"/>
<path d="M55.3548 42.6809H54.0968V43.9362H55.3548V42.6809Z" fill="#181211" fill-opacity="0.9"/>
<path d="M51.5806 43.9362H52.8387V45.1915H51.5806V46.4469H50.3226V45.1915H51.5806V43.9362Z" fill="#181211" fill-opacity="0.9"/>
<path d="M7.54837 45.1915H8.80644V46.4469H10.0645L11.3226 47.7022V48.9575H10.0645H8.80644V46.4469H7.54837V45.1915Z" fill="#181211" fill-opacity="0.9"/>
<path d="M16.3548 45.1915H15.0968V46.4469H16.3548V45.1915Z" fill="#181211" fill-opacity="0.9"/>
<path d="M55.3548 45.1915H54.0968V46.4469H55.3548V45.1915Z" fill="#181211" fill-opacity="0.9"/>
<path d="M5.03224 46.4469H3.77418V47.7022H5.03224V46.4469Z" fill="#181211" fill-opacity="0.9"/>
<path d="M13.8387 46.4469H12.5806V47.7022H13.8387V46.4469Z" fill="#181211" fill-opacity="0.9"/>
<path d="M60.3871 46.4469H59.129V47.7022H60.3871V46.4469Z" fill="#181211" fill-opacity="0.9"/>
<path d="M7.54837 47.7022H6.29031V48.9575H7.54837V47.7022Z" fill="#181211" fill-opacity="0.9"/>
<path d="M62.9032 48.9575H61.6451V50.2128H62.9032V48.9575Z" fill="#181211" fill-opacity="0.9"/>
<path d="M52.8387 51.4681H51.5806V52.7235H52.8387V51.4681Z" fill="#181211" fill-opacity="0.9"/>
<path d="M60.3871 51.4681H61.6451V52.7235H62.9032V53.9788H61.6451V52.7235H60.3871V51.4681Z" fill="#181211" fill-opacity="0.9"/>
<path d="M56.6129 52.7235H55.3548V53.9788H56.6129V52.7235Z" fill="#181211" fill-opacity="0.9"/>
<path d="M50.3226 55.2341V53.9788H51.5806V55.2341V56.4894H52.8387V57.7447H51.5806V56.4894H50.3226V55.2341Z" fill="#181211" fill-opacity="0.9"/>
<path d="M60.3871 55.2341H59.129V56.4894H60.3871V55.2341Z" fill="#181211" fill-opacity="0.9"/>
<path d="M27.6774 2.51074H26.4193V3.76606H27.6774V2.51074Z" fill="#181211" fill-opacity="0.8"/>
<path d="M21.3871 5.02138H20.129V6.2767H21.3871V5.02138Z" fill="#181211" fill-opacity="0.8"/>
<path d="M31.4516 5.02138V6.2767H32.7097H33.9677V5.02138H31.4516Z" fill="#181211" fill-opacity="0.8"/>
<path d="M36.4839 5.02138H35.2258V6.2767H36.4839V5.02138Z" fill="#181211" fill-opacity="0.8"/>
<path d="M17.6129 6.2767V7.53202V8.78734H18.871V7.53202V6.2767H17.6129Z" fill="#181211" fill-opacity="0.8"/>
<path d="M27.6774 6.2767V7.53202V8.78734H28.9355L30.1935 7.53202V6.2767H28.9355H27.6774Z" fill="#181211" fill-opacity="0.8"/>
<path d="M35.2258 7.53202V8.78734V10.0427H36.4839V8.78734V7.53202H35.2258Z" fill="#181211" fill-opacity="0.8"/>
<path d="M8.80644 10.0427H7.54838V11.298H8.80644V10.0427Z" fill="#181211" fill-opacity="0.8"/>
<path d="M22.6452 10.0427H21.3871V11.298H22.6452V10.0427Z" fill="#181211" fill-opacity="0.8"/>
<path d="M17.6129 11.298H16.3548V12.5533H17.6129V11.298Z" fill="#181211" fill-opacity="0.8"/>
<path d="M25.1613 11.298V12.5533H26.4193H27.6774V11.298H26.4193H25.1613Z" fill="#181211" fill-opacity="0.8"/>
<path d="M11.3226 12.5533V13.8086V15.0639H12.5806V13.8086V12.5533H11.3226Z" fill="#181211" fill-opacity="0.8"/>
<path d="M21.3871 12.5533H20.129V13.8086H21.3871V12.5533Z" fill="#181211" fill-opacity="0.8"/>
<path d="M23.9032 13.8086H22.6452V15.0639H23.9032V13.8086Z" fill="#181211" fill-opacity="0.8"/>
<path d="M65.4193 13.8086H64.1613V15.0639H65.4193V13.8086Z" fill="#181211" fill-opacity="0.8"/>
<path d="M18.871 15.0639V16.3193H20.129H21.3871V15.0639H20.129H18.871Z" fill="#181211" fill-opacity="0.8"/>
<path d="M10.0645 17.5746V18.8299V20.0852H11.3226V18.8299V17.5746H10.0645Z" fill="#181211" fill-opacity="0.8"/>
<path d="M35.2258 17.5746V20.0852V21.3405H36.4839V20.0852V17.5746H35.2258Z" fill="#181211" fill-opacity="0.8"/>
<path d="M69.1935 17.5746H67.9355V18.8299H69.1935V17.5746Z" fill="#181211" fill-opacity="0.8"/>
<path d="M69.1935 20.0852V21.3405V23.8512V25.1065V26.3618V27.6171H70.4516V25.1065V23.8512V22.5958V21.3405V20.0852H69.1935Z" fill="#181211" fill-opacity="0.8"/>
<path d="M13.8387 26.3618H12.5806V27.6171H13.8387V26.3618Z" fill="#181211" fill-opacity="0.8"/>
<path d="M36.4839 26.3618V27.6171V28.8724H37.7419H39V27.6171L37.7419 26.3618H36.4839Z" fill="#181211" fill-opacity="0.8"/>
<path d="M32.7097 28.8724H31.4516V30.1278H32.7097V28.8724Z" fill="#181211" fill-opacity="0.8"/>
<path d="M69.1935 28.8724H67.9355V30.1278H69.1935V28.8724Z" fill="#181211" fill-opacity="0.8"/>
<path d="M13.8387 30.1278H12.5806V31.3831H13.8387V30.1278Z" fill="#181211" fill-opacity="0.8"/>
<path d="M36.4839 31.3831H35.2258V32.6384H36.4839V31.3831Z" fill="#181211" fill-opacity="0.8"/>
<path d="M62.9032 31.3831H61.6452V32.6384H62.9032V31.3831Z" fill="#181211" fill-opacity="0.8"/>
<path d="M15.0968 32.6384H13.8387V33.8937H15.0968V32.6384Z" fill="#181211" fill-opacity="0.8"/>
<path d="M26.4193 32.6384H25.1613V33.8937H26.4193V32.6384Z" fill="#181211" fill-opacity="0.8"/>
<path d="M70.4516 32.6384H69.1935V33.8937H70.4516V32.6384Z" fill="#181211" fill-opacity="0.8"/>
<path d="M37.7419 36.4044V35.149H39V36.4044V37.6597H37.7419V38.915H36.4839V40.1703H35.2258V38.915H36.4839V37.6597H37.7419V36.4044Z" fill="#181211" fill-opacity="0.8"/>
<path d="M60.3871 35.149V37.6597H61.6452V36.4044V35.149H60.3871Z" fill="#181211" fill-opacity="0.8"/>
<path d="M16.3548 36.4044H15.0968V37.6597H16.3548V36.4044Z" fill="#181211" fill-opacity="0.8"/>
<path d="M26.4193 36.4044H25.1613V37.6597H26.4193V36.4044Z" fill="#181211" fill-opacity="0.8"/>
<path d="M12.5806 37.6597H11.3226V38.915H12.5806V37.6597Z" fill="#181211" fill-opacity="0.8"/>
<path d="M32.7097 37.6597H31.4516V38.915H32.7097V37.6597Z" fill="#181211" fill-opacity="0.8"/>
<path d="M15.0968 41.4256V40.1703H16.3548H17.6129V41.4256H18.871V42.681H17.6129V41.4256H16.3548H15.0968Z" fill="#181211" fill-opacity="0.8"/>
<path d="M30.1935 40.1703H28.9355V41.4256H30.1935V40.1703Z" fill="#181211" fill-opacity="0.8"/>
<path d="M31.4516 40.1703V41.4256H32.7097H33.9677V40.1703H32.7097H31.4516Z" fill="#181211" fill-opacity="0.8"/>
<path d="M1.25806 41.4256V42.681V43.9363V45.1916H2.51612V43.9363V42.681V41.4256H1.25806Z" fill="#181211" fill-opacity="0.8"/>
<path d="M56.6129 41.4256H55.3548V42.681H56.6129V41.4256Z" fill="#181211" fill-opacity="0.8"/>
<path d="M10.0645 45.1916H8.80644V46.4469H10.0645V45.1916Z" fill="#181211" fill-opacity="0.8"/>
<path d="M56.6129 45.1916H55.3548V46.4469H56.6129V45.1916Z" fill="#181211" fill-opacity="0.8"/>
<path d="M3.77419 46.4469H2.51612V47.7022H3.77419V46.4469Z" fill="#181211" fill-opacity="0.8"/>
<path d="M6.29031 46.4469H7.54838V47.7022H6.29031V48.9576H5.03225V47.7022H6.29031V46.4469Z" fill="#181211" fill-opacity="0.8"/>
<path d="M12.5806 46.4469H11.3226V47.7022H12.5806V46.4469Z" fill="#181211" fill-opacity="0.8"/>
<path d="M15.0968 46.4469H13.8387V47.7022H15.0968V46.4469Z" fill="#181211" fill-opacity="0.8"/>
<path d="M51.5806 46.4469H50.3226V47.7022H51.5806V46.4469Z" fill="#181211" fill-opacity="0.8"/>
<path d="M49.0645 47.7022H47.8064V48.9576H49.0645V47.7022Z" fill="#181211" fill-opacity="0.8"/>
<path d="M55.3548 47.7022H54.0968V48.9576H55.3548V47.7022Z" fill="#181211" fill-opacity="0.8"/>
<path d="M57.871 47.7022V48.9576H59.129H60.3871V47.7022H59.129H57.871Z" fill="#181211" fill-opacity="0.8"/>
<path d="M54.0968 50.2129H52.8387V51.4682H54.0968V50.2129Z" fill="#181211" fill-opacity="0.8"/>
<path d="M57.871 51.4682H56.6129V52.7235H57.871V51.4682Z" fill="#181211" fill-opacity="0.8"/>
<path d="M49.0645 53.9788H47.8064V55.2341H49.0645V53.9788Z" fill="#181211" fill-opacity="0.8"/>
<path d="M52.8387 55.2341H51.5806V56.4895H52.8387V55.2341Z" fill="#181211" fill-opacity="0.8"/>
<path d="M32.7097 0H31.4516V1.25532H32.7097V0Z" fill="#191311" fill-opacity="0.4"/>
<path d="M20.129 2.51064H18.871V3.76596H20.129V2.51064Z" fill="#191311" fill-opacity="0.4"/>
<path d="M17.6129 6.2766H16.3548V7.53191H17.6129V6.2766Z" fill="#191311" fill-opacity="0.4"/>
<path d="M21.3871 6.2766H20.129V7.53191H21.3871V6.2766Z" fill="#191311" fill-opacity="0.4"/>
<path d="M26.4194 6.2766H25.1613V7.53191H26.4194V6.2766Z" fill="#191311" fill-opacity="0.4"/>
<path d="M10.0645 8.78723H8.80645V10.0426H10.0645V8.78723Z" fill="#191311" fill-opacity="0.4"/>
<path d="M22.6452 8.78723H21.3871V10.0426H22.6452V8.78723Z" fill="#191311" fill-opacity="0.4"/>
<path d="M25.1613 8.78723H26.4194V10.0426H25.1613V11.2979H23.9032V10.0426H25.1613V8.78723Z" fill="#191311" fill-opacity="0.4"/>
<path d="M30.1935 8.78723H28.9355V10.0426H30.1935V8.78723Z" fill="#191311" fill-opacity="0.4"/>
<path d="M35.2258 10.0426H33.9677V11.2979H35.2258V10.0426Z" fill="#191311" fill-opacity="0.4"/>
<path d="M28.9355 11.2979H27.6774V12.5532H28.9355V11.2979Z" fill="#191311" fill-opacity="0.4"/>
<path d="M67.9355 15.0638H66.6774V16.3191H67.9355V15.0638Z" fill="#191311" fill-opacity="0.4"/>
<path d="M70.4516 17.5745H69.1936V18.8298H70.4516V17.5745Z" fill="#191311" fill-opacity="0.4"/>
<path d="M65.4194 20.0851H64.1613V21.3404H65.4194V20.0851Z" fill="#191311" fill-opacity="0.4"/>
<path d="M11.3226 21.3404H10.0645V22.5957H11.3226V21.3404Z" fill="#191311" fill-opacity="0.4"/>
<path d="M15.0968 26.3617H13.8387V27.617H15.0968V26.3617Z" fill="#191311" fill-opacity="0.4"/>
<path d="M30.1935 27.617H28.9355V28.8723H30.1935V27.617Z" fill="#191311" fill-opacity="0.4"/>
<path d="M39 28.8723H37.7419V30.1277H39V28.8723Z" fill="#191311" fill-opacity="0.4"/>
<path d="M61.6452 28.8723H60.3871V30.1277H61.6452V28.8723Z" fill="#191311" fill-opacity="0.4"/>
<path d="M64.1613 31.383H62.9032V32.6383H64.1613V31.383Z" fill="#191311" fill-opacity="0.4"/>
<path d="M18.871 32.6383H17.6129V33.8936H18.871V32.6383Z" fill="#191311" fill-opacity="0.4"/>
<path d="M25.1613 33.8936H23.9032V35.1489H25.1613V33.8936Z" fill="#191311" fill-opacity="0.4"/>
<path d="M36.4839 33.8936H35.2258V35.1489H36.4839V33.8936Z" fill="#191311" fill-opacity="0.4"/>
<path d="M70.4516 33.8936H69.1936V35.1489H70.4516V33.8936Z" fill="#191311" fill-opacity="0.4"/>
<path d="M32.7097 35.1489H31.4516V36.4043H32.7097V35.1489Z" fill="#191311" fill-opacity="0.4"/>
<path d="M13.8387 36.4043H12.5806V37.6596H13.8387V36.4043Z" fill="#191311" fill-opacity="0.4"/>
<path d="M35.2258 36.4043H33.9677V37.6596H35.2258V36.4043Z" fill="#191311" fill-opacity="0.4"/>
<path d="M26.4194 38.9149H25.1613V40.1702H26.4194V38.9149Z" fill="#191311" fill-opacity="0.4"/>
<path d="M60.3871 38.9149H59.129V40.1702H60.3871V38.9149Z" fill="#191311" fill-opacity="0.4"/>
<path d="M5.03226 40.1702H3.77419V41.4255H5.03226V40.1702Z" fill="#191311" fill-opacity="0.4"/>
<path d="M8.80645 40.1702H7.54839V41.4255H8.80645V40.1702Z" fill="#191311" fill-opacity="0.4"/>
<path d="M20.129 40.1702H18.871V41.4255H20.129V40.1702Z" fill="#191311" fill-opacity="0.4"/>
<path d="M36.4839 40.1702H35.2258V41.4255H36.4839V40.1702Z" fill="#191311" fill-opacity="0.4"/>
<path d="M57.871 40.1702H56.6129V41.4255H57.871V40.1702Z" fill="#191311" fill-opacity="0.4"/>
<path d="M13.8387 41.4255H12.5806V42.6809H13.8387V41.4255Z" fill="#191311" fill-opacity="0.4"/>
<path d="M1.25806 42.6809H0V43.9362H1.25806V42.6809Z" fill="#191311" fill-opacity="0.4"/>
<path d="M3.77419 42.6809H2.51613V43.9362H3.77419V42.6809Z" fill="#191311" fill-opacity="0.4"/>
<path d="M17.6129 45.1915H16.3548V46.4468H17.6129V45.1915Z" fill="#191311" fill-opacity="0.4"/>
<path d="M65.4194 45.1915H64.1613V46.4468H65.4194V45.1915Z" fill="#191311" fill-opacity="0.4"/>
<path d="M2.51613 46.4468H1.25806V47.7021H2.51613V46.4468Z" fill="#191311" fill-opacity="0.4"/>
<path d="M52.8387 46.4468H51.5806V47.7021H52.8387V46.4468Z" fill="#191311" fill-opacity="0.4"/>
<path d="M59.129 46.4468H57.871V47.7021H59.129V46.4468Z" fill="#191311" fill-opacity="0.4"/>
<path d="M12.5806 48.9574H11.3226V50.2128H12.5806V48.9574Z" fill="#191311" fill-opacity="0.4"/>
<path d="M47.8064 48.9574H46.5484V50.2128H47.8064V48.9574Z" fill="#191311" fill-opacity="0.4"/>
<path d="M61.6452 48.9574H60.3871V50.2128H61.6452V48.9574Z" fill="#191311" fill-opacity="0.4"/>
<path d="M55.3548 50.2128H54.0968V51.4681H55.3548V50.2128Z" fill="#191311" fill-opacity="0.4"/>
<path d="M51.5806 56.4894H50.3226V57.7447H51.5806V56.4894Z" fill="#191311" fill-opacity="0.4"/>
<path d="M56.6129 57.7447H55.3548V59H56.6129V57.7447Z" fill="#191311" fill-opacity="0.4"/>
<path d="M36.4839 26.3618H35.2258V27.6171H36.4839V26.3618Z" fill="#1A1312" fill-opacity="0.9"/>
<path d="M30.1935 28.8725L28.9355 30.1278V31.3831L30.1935 32.6384H31.4516V31.3831V30.1278V28.8725H30.1935Z" fill="#1A1312" fill-opacity="0.9"/>
<path d="M12.5806 32.6384H11.3226V33.8937H12.5806V32.6384Z" fill="#1A1312" fill-opacity="0.9"/>
<path d="M7.54837 35.149H8.80644V36.4044H7.54837V37.6597V38.915H6.29031V36.4044H7.54837V35.149Z" fill="#1A1312" fill-opacity="0.9"/>
<path d="M16.3548 35.149V36.4044L15.0968 37.6597V38.915L16.3548 40.1703H17.6129H18.871V36.4044L17.6129 35.149H16.3548Z" fill="#1A1312" fill-opacity="0.9"/>
<path d="M33.9677 38.915H32.7097V40.1703H33.9677V38.915Z" fill="#1A1312" fill-opacity="0.9"/>
<path d="M59.129 41.4256V42.681V43.9363L60.3871 45.1916H61.6451H62.9032V43.9363L61.6451 42.681L60.3871 41.4256H59.129Z" fill="#1A1312" fill-opacity="0.9"/>
<path d="M10.0645 42.681H8.80644V43.9363H10.0645V42.681Z" fill="#1A1312" fill-opacity="0.9"/>
<path d="M55.3548 42.681L54.0968 43.9363H52.8387V45.1916H54.0968H55.3548H56.6129V43.9363V42.681H55.3548Z" fill="#1A1312" fill-opacity="0.9"/>
<path d="M2.51611 45.1916V46.4469H3.77418H5.03224V45.1916H3.77418H2.51611Z" fill="#1A1312" fill-opacity="0.9"/>
<path d="M12.5806 45.1916V46.4469H13.8387H15.0968V45.1916H13.8387H12.5806Z" fill="#1A1312" fill-opacity="0.9"/>
<path d="M7.54837 46.4469V47.7022V48.9576H8.80644V46.4469H7.54837Z" fill="#1A1312" fill-opacity="0.9"/>
<path d="M49.0645 47.7022V46.4469H50.3226V47.7022V50.2129V51.4682L49.0645 53.9788H50.3226V55.2342H49.0645V53.9788H47.8064V52.7235V51.4682V50.2129V48.9576L49.0645 47.7022Z" fill="#1A1312" fill-opacity="0.9"/>
<path d="M62.9032 48.9576V47.7022H64.1613V50.2129V51.4682L62.9032 52.7235H61.6451V53.9788V55.2342H60.3871H59.129V56.4895H57.871L56.6129 57.7448H55.3548H54.0968H52.8387V56.4895L54.0968 55.2342L55.3548 53.9788H56.6129L59.129 55.2342V53.9788L60.3871 52.7235H61.6451V51.4682V50.2129L62.9032 48.9576Z" fill="#1A1312" fill-opacity="0.9"/>
<path d="M59.129 48.9576H57.871V50.2129H59.129V48.9576Z" fill="#1A1312" fill-opacity="0.9"/>
<path d="M33.9677 0H32.7097V1.25532H33.9677V0Z" fill="#181210" fill-opacity="0.5"/>
<path d="M36.4839 1.25532V2.51064V5.02128V6.2766V7.53191V8.78723H37.7419V1.25532H36.4839Z" fill="#181210" fill-opacity="0.5"/>
<path d="M23.9032 2.51064H22.6451V3.76596H23.9032V2.51064Z" fill="#181210" fill-opacity="0.5"/>
<path d="M15.0968 3.76596H13.8387V5.02128H15.0968V3.76596Z" fill="#181210" fill-opacity="0.5"/>
<path d="M35.2258 3.76596H33.9677V5.02128H35.2258V3.76596Z" fill="#181210" fill-opacity="0.5"/>
<path d="M10.0645 5.02128H8.80644V6.2766H10.0645V5.02128Z" fill="#181210" fill-opacity="0.5"/>
<path d="M23.9032 5.02128H22.6451V6.2766H23.9032V5.02128Z" fill="#181210" fill-opacity="0.5"/>
<path d="M27.6774 7.53191H26.4193V8.78723H27.6774V7.53191Z" fill="#181210" fill-opacity="0.5"/>
<path d="M12.5806 8.78723H11.3226V10.0426H12.5806V8.78723Z" fill="#181210" fill-opacity="0.5"/>
<path d="M10.0645 10.0426H8.80644V11.2979H10.0645V10.0426Z" fill="#181210" fill-opacity="0.5"/>
<path d="M30.1935 10.0426H28.9355V11.2979H30.1935V10.0426Z" fill="#181210" fill-opacity="0.5"/>
<path d="M31.4516 10.0426H32.7097V11.2979H33.9677V12.5532H32.7097V11.2979H31.4516V10.0426Z" fill="#181210" fill-opacity="0.5"/>
<path d="M13.8387 11.2979H12.5806V12.5532H13.8387V11.2979Z" fill="#181210" fill-opacity="0.5"/>
<path d="M22.6451 11.2979V13.8085H23.9032V12.5532V11.2979H22.6451Z" fill="#181210" fill-opacity="0.5"/>
<path d="M36.4839 11.2979V13.8085V15.0638V17.5745V20.0851H37.7419V11.2979H36.4839Z" fill="#181210" fill-opacity="0.5"/>
<path d="M8.80644 12.5532H7.54837V13.8085H8.80644V12.5532Z" fill="#181210" fill-opacity="0.5"/>
<path d="M16.3548 12.5532H15.0968V13.8085H16.3548V12.5532Z" fill="#181210" fill-opacity="0.5"/>
<path d="M18.871 12.5532H17.6129V13.8085H18.871V12.5532Z" fill="#181210" fill-opacity="0.5"/>
<path d="M33.9677 13.8085H32.7097V15.0638H33.9677V13.8085Z" fill="#181210" fill-opacity="0.5"/>
<path d="M25.1613 15.0638H23.9032V16.3191H25.1613V15.0638Z" fill="#181210" fill-opacity="0.5"/>
<path d="M69.1935 20.0851H67.9355V21.3404H69.1935V20.0851Z" fill="#181210" fill-opacity="0.5"/>
<path d="M35.2258 23.8511H33.9677V25.1064H35.2258V23.8511Z" fill="#181210" fill-opacity="0.5"/>
<path d="M32.7097 26.3617H31.4516V27.617H32.7097V26.3617Z" fill="#181210" fill-opacity="0.5"/>
<path d="M15.0968 28.8723H13.8387V30.1277H15.0968V28.8723Z" fill="#181210" fill-opacity="0.5"/>
<path d="M28.9355 28.8723H27.6774V30.1277H28.9355V28.8723Z" fill="#181210" fill-opacity="0.5"/>
<path d="M35.2258 28.8723H33.9677V30.1277H35.2258V28.8723Z" fill="#181210" fill-opacity="0.5"/>
<path d="M41.5161 28.8723H40.258V30.1277H41.5161V28.8723Z" fill="#181210" fill-opacity="0.5"/>
<path d="M12.5806 31.383H11.3226V32.6383H12.5806V31.383Z" fill="#181210" fill-opacity="0.5"/>
<path d="M16.3548 31.383H15.0968V32.6383H16.3548V31.383Z" fill="#181210" fill-opacity="0.5"/>
<path d="M78 32.6383H76.7419V33.8936H78V32.6383Z" fill="#181210" fill-opacity="0.5"/>
<path d="M33.9677 33.8936H32.7097V35.1489H33.9677V33.8936Z" fill="#181210" fill-opacity="0.5"/>
<path d="M6.29031 35.1489H5.03224V36.4043H6.29031V35.1489Z" fill="#181210" fill-opacity="0.5"/>
<path d="M31.4516 35.1489H30.1935V36.4043H31.4516V35.1489Z" fill="#181210" fill-opacity="0.5"/>
<path d="M25.1613 36.4043H23.9032V37.6596H25.1613V36.4043Z" fill="#181210" fill-opacity="0.5"/>
<path d="M39 37.6596H37.7419V38.9149H39V37.6596Z" fill="#181210" fill-opacity="0.5"/>
<path d="M2.51611 41.4255H3.77418V42.6809H5.03224V43.9362H3.77418V42.6809H2.51611V41.4255Z" fill="#181210" fill-opacity="0.5"/>
<path d="M55.3548 41.4255H54.0968V42.6809H55.3548V41.4255Z" fill="#181210" fill-opacity="0.5"/>
<path d="M18.871 42.6809H17.6129V43.9362H18.871V42.6809Z" fill="#181210" fill-opacity="0.5"/>
<path d="M6.29031 43.9362V45.1915V46.4468H7.54837V45.1915V43.9362H6.29031Z" fill="#181210" fill-opacity="0.5"/>
<path d="M49.0645 46.4468H47.8064V47.7021H49.0645V46.4468Z" fill="#181210" fill-opacity="0.5"/>
<path d="M54.0968 46.4468H52.8387V47.7021H54.0968V46.4468Z" fill="#181210" fill-opacity="0.5"/>
<path d="M7.54837 48.9574H6.29031V50.2128H7.54837V48.9574Z" fill="#181210" fill-opacity="0.5"/>
<path d="M11.3226 48.9574H10.0645V50.2128H11.3226V48.9574Z" fill="#181210" fill-opacity="0.5"/>
<path d="M61.6451 55.234H60.3871V56.4894H61.6451V55.234Z" fill="#181210" fill-opacity="0.5"/>
<path d="M55.3548 57.7447H54.0968V59H55.3548V57.7447Z" fill="#181210" fill-opacity="0.5"/>
<path d="M13.8387 3.76587H12.5806V5.02119H13.8387V3.76587Z" fill="#181311" fill-opacity="0.3"/>
<path d="M8.80645 5.02119H7.54839V6.27651H8.80645V5.02119Z" fill="#181311" fill-opacity="0.3"/>
<path d="M35.2258 5.02119H33.9677V6.27651H35.2258V5.02119Z" fill="#181311" fill-opacity="0.3"/>
<path d="M12.5806 7.53183H11.3226V8.78715H12.5806V7.53183Z" fill="#181311" fill-opacity="0.3"/>
<path d="M64.1613 12.5531H62.9032V13.8084H64.1613V12.5531Z" fill="#181311" fill-opacity="0.3"/>
<path d="M12.5806 13.8084V15.0637H15.0968V13.8084H13.8387H12.5806Z" fill="#181311" fill-opacity="0.3"/>
<path d="M66.6774 13.8084H65.4194V15.0637H66.6774V13.8084Z" fill="#181311" fill-opacity="0.3"/>
<path d="M28.9355 15.0637H27.6774V16.3191H28.9355V15.0637Z" fill="#181311" fill-opacity="0.3"/>
<path d="M12.5806 17.5744H11.3226V18.8297H12.5806V17.5744Z" fill="#181311" fill-opacity="0.3"/>
<path d="M13.8387 20.085H12.5806V21.3403H13.8387V20.085Z" fill="#181311" fill-opacity="0.3"/>
<path d="M62.9032 21.3403H61.6452V22.5957H62.9032V21.3403Z" fill="#181311" fill-opacity="0.3"/>
<path d="M67.9355 21.3403V23.851H69.1936V21.3403H67.9355Z" fill="#181311" fill-opacity="0.3"/>
<path d="M71.7097 22.5957H70.4516V23.851H71.7097V22.5957Z" fill="#181311" fill-opacity="0.3"/>
<path d="M40.2581 26.3616H39V27.6169H40.2581V26.3616Z" fill="#181311" fill-opacity="0.3"/>
<path d="M61.6452 27.6169H60.3871V28.8723H61.6452V27.6169Z" fill="#181311" fill-opacity="0.3"/>
<path d="M37.7419 30.1276H36.4839V31.3829H37.7419V30.1276Z" fill="#181311" fill-opacity="0.3"/>
<path d="M76.7419 31.3829H75.4839V32.6382H76.7419V31.3829Z" fill="#181311" fill-opacity="0.3"/>
<path d="M27.6774 32.6382L26.4194 33.8935V36.4042H27.6774L28.9355 35.1488V33.8935V32.6382H27.6774Z" fill="#181311" fill-opacity="0.3"/>
<path d="M32.7097 32.6382H31.4516V33.8935H32.7097V32.6382Z" fill="#181311" fill-opacity="0.3"/>
<path d="M39 32.6382H37.7419V33.8935H39V32.6382Z" fill="#181311" fill-opacity="0.3"/>
<path d="M41.5161 32.6382H40.2581V33.8935H41.5161V32.6382Z" fill="#181311" fill-opacity="0.3"/>
<path d="M64.1613 32.6382H62.9032V33.8935H64.1613V32.6382Z" fill="#181311" fill-opacity="0.3"/>
<path d="M69.1936 32.6382H67.9355V33.8935H69.1936V32.6382Z" fill="#181311" fill-opacity="0.3"/>
<path d="M15.0968 33.8935H13.8387V35.1488H15.0968V33.8935Z" fill="#181311" fill-opacity="0.3"/>
<path d="M20.129 35.1488H18.871V36.4042H20.129V35.1488Z" fill="#181311" fill-opacity="0.3"/>
<path d="M37.7419 35.1488H36.4839V36.4042H37.7419V35.1488Z" fill="#181311" fill-opacity="0.3"/>
<path d="M30.1935 36.4042V37.6595V38.9148H31.4516V37.6595V36.4042H30.1935Z" fill="#181311" fill-opacity="0.3"/>
<path d="M40.2581 36.4042H39V37.6595H40.2581V36.4042Z" fill="#181311" fill-opacity="0.3"/>
<path d="M60.3871 37.6595H59.129V38.9148H60.3871V37.6595Z" fill="#181311" fill-opacity="0.3"/>
<path d="M62.9032 38.9148H61.6452V40.1701H62.9032V38.9148Z" fill="#181311" fill-opacity="0.3"/>
<path d="M12.5806 40.1701H11.3226V41.4254H12.5806V40.1701Z" fill="#181311" fill-opacity="0.3"/>
<path d="M27.6774 40.1701H26.4194V41.4254H27.6774V40.1701Z" fill="#181311" fill-opacity="0.3"/>
<path d="M59.129 40.1701H57.871V41.4254H59.129V40.1701Z" fill="#181311" fill-opacity="0.3"/>
<path d="M1.25806 41.4254H0V42.6808H1.25806V41.4254Z" fill="#181311" fill-opacity="0.3"/>
<path d="M52.8387 42.6808H51.5806V43.9361H52.8387V42.6808Z" fill="#181311" fill-opacity="0.3"/>
<path d="M64.1613 42.6808H62.9032V43.9361H64.1613V42.6808Z" fill="#181311" fill-opacity="0.3"/>
<path d="M12.5806 43.9361H11.3226V45.1914H12.5806V43.9361Z" fill="#181311" fill-opacity="0.3"/>
<path d="M3.77419 47.702H2.51613V48.9574H3.77419V47.702Z" fill="#181311" fill-opacity="0.3"/>
<path d="M52.8387 47.702H51.5806V48.9574H52.8387V47.702Z" fill="#181311" fill-opacity="0.3"/>
<path d="M61.6452 47.702H60.3871V48.9574H61.6452V47.702Z" fill="#181311" fill-opacity="0.3"/>
<path d="M6.29032 48.9574H5.03226V50.2127H6.29032V48.9574Z" fill="#181311" fill-opacity="0.3"/>
<path d="M56.6129 50.2127H55.3548V51.468H56.6129V50.2127Z" fill="#181311" fill-opacity="0.3"/>
<path d="M59.129 50.2127V51.468V52.7233H60.3871V51.468V50.2127H59.129Z" fill="#181311" fill-opacity="0.3"/>
<path d="M65.4194 51.468H64.1613V52.7233H65.4194V51.468Z" fill="#181311" fill-opacity="0.3"/>
<path d="M54.0968 53.9786H52.8387V55.234H54.0968V53.9786Z" fill="#181311" fill-opacity="0.3"/>
<path d="M49.0645 55.234H47.8064V56.4893H49.0645V55.234Z" fill="#181311" fill-opacity="0.3"/>
<path d="M28.9355 1.25537H27.6774V2.51069H28.9355V1.25537Z" fill="#181311" fill-opacity="0.4"/>
<path d="M20.129 2.51069V3.76601H22.6452V2.51069H20.129Z" fill="#181311" fill-opacity="0.4"/>
<path d="M21.3871 5.02133H22.6452V6.27665H23.9032V7.53197H22.6452V6.27665H21.3871V5.02133Z" fill="#181311" fill-opacity="0.4"/>
<path d="M7.54838 6.27665H6.29031V7.53197H7.54838V6.27665Z" fill="#181311" fill-opacity="0.4"/>
<path d="M10.0645 7.53197H8.80644V8.78729H10.0645V7.53197Z" fill="#181311" fill-opacity="0.4"/>
<path d="M33.9677 7.53197H32.7097V8.78729H33.9677V7.53197Z" fill="#181311" fill-opacity="0.4"/>
<path d="M7.54838 8.78729H6.29031V10.0426H7.54838V8.78729Z" fill="#181311" fill-opacity="0.4"/>
<path d="M15.0968 8.78729H13.8387V10.0426H15.0968V8.78729Z" fill="#181311" fill-opacity="0.4"/>
<path d="M17.6129 8.78729H16.3548V10.0426H17.6129V8.78729Z" fill="#181311" fill-opacity="0.4"/>
<path d="M20.129 8.78729H18.871V10.0426H20.129V8.78729Z" fill="#181311" fill-opacity="0.4"/>
<path d="M28.9355 10.0426H27.6774V11.2979H28.9355V10.0426Z" fill="#181311" fill-opacity="0.4"/>
<path d="M11.3226 11.2979H10.0645V12.5532H11.3226V11.2979Z" fill="#181311" fill-opacity="0.4"/>
<path d="M21.3871 11.2979H20.129V12.5532H21.3871V11.2979Z" fill="#181311" fill-opacity="0.4"/>
<path d="M25.1613 15.0639V16.3192H27.6774V15.0639H25.1613Z" fill="#181311" fill-opacity="0.4"/>
<path d="M11.3226 16.3192V17.5745H12.5806H17.6129V16.3192H16.3548H15.0968H12.5806H11.3226Z" fill="#181311" fill-opacity="0.4"/>
<path d="M36.4839 20.0852V21.3405V22.5958V25.1064H37.7419V20.0852H36.4839Z" fill="#181311" fill-opacity="0.4"/>
<path d="M35.2258 21.3405H33.9677V22.5958H35.2258V21.3405Z" fill="#181311" fill-opacity="0.4"/>
<path d="M62.9032 22.5958H61.6452V23.8511H62.9032V22.5958Z" fill="#181311" fill-opacity="0.4"/>
<path d="M69.1935 23.8511H67.9355V25.1064H69.1935V23.8511Z" fill="#181311" fill-opacity="0.4"/>
<path d="M12.5806 26.3618H11.3226V27.6171H12.5806V26.3618Z" fill="#181311" fill-opacity="0.4"/>
<path d="M15.0968 27.6171H13.8387V28.8724H15.0968V27.6171Z" fill="#181311" fill-opacity="0.4"/>
<path d="M61.6452 30.1277H60.3871V31.383H61.6452V30.1277Z" fill="#181311" fill-opacity="0.4"/>
<path d="M64.1613 30.1277H62.9032V31.383H64.1613V30.1277Z" fill="#181311" fill-opacity="0.4"/>
<path d="M32.7097 31.383H31.4516V32.6384H32.7097V31.383Z" fill="#181311" fill-opacity="0.4"/>
<path d="M76.7419 33.8937H75.4839V35.149H76.7419V33.8937Z" fill="#181311" fill-opacity="0.4"/>
<path d="M18.871 36.4043V40.1703H20.129V36.4043H18.871Z" fill="#181311" fill-opacity="0.4"/>
<path d="M15.0968 37.6596H13.8387V38.9149H15.0968V37.6596Z" fill="#181311" fill-opacity="0.4"/>
<path d="M30.1935 37.6596H28.9355V38.9149H30.1935V37.6596Z" fill="#181311" fill-opacity="0.4"/>
<path d="M35.2258 37.6596H33.9677V38.9149H35.2258V37.6596Z" fill="#181311" fill-opacity="0.4"/>
<path d="M62.9032 37.6596H61.6452V38.9149H62.9032V37.6596Z" fill="#181311" fill-opacity="0.4"/>
<path d="M2.51612 38.9149H1.25806V40.1703H2.51612V38.9149Z" fill="#181311" fill-opacity="0.4"/>
<path d="M7.54838 38.9149V40.1703H8.80644H10.0645V38.9149H8.80644H7.54838Z" fill="#181311" fill-opacity="0.4"/>
<path d="M37.7419 38.9149H36.4839V40.1703H37.7419V38.9149Z" fill="#181311" fill-opacity="0.4"/>
<path d="M8.80644 41.4256H7.54838V42.6809H8.80644V41.4256Z" fill="#181311" fill-opacity="0.4"/>
<path d="M62.9032 41.4256H61.6452V42.6809H62.9032V41.4256Z" fill="#181311" fill-opacity="0.4"/>
<path d="M11.3226 42.6809H10.0645V43.9362H11.3226V42.6809Z" fill="#181311" fill-opacity="0.4"/>
<path d="M51.5806 43.9362H50.3226V45.1915H51.5806V43.9362Z" fill="#181311" fill-opacity="0.4"/>
<path d="M57.871 43.9362H56.6129V45.1915H57.871V43.9362Z" fill="#181311" fill-opacity="0.4"/>
<path d="M16.3548 46.4469H15.0968V47.7022H16.3548V46.4469Z" fill="#181311" fill-opacity="0.4"/>
<path d="M62.9032 46.4469H61.6452V47.7022H62.9032V46.4469Z" fill="#181311" fill-opacity="0.4"/>
<path d="M55.3548 52.7235H54.0968V53.9788H55.3548V52.7235Z" fill="#181311" fill-opacity="0.4"/>
<path d="M54.0968 57.7447H52.8387V59.0001H54.0968V57.7447Z" fill="#181311" fill-opacity="0.4"/>
<path d="M31.4516 1.25537H30.1935V2.51069H31.4516V1.25537Z" fill="#191311" fill-opacity="0.7"/>
<path d="M25.1613 2.51069H26.4193V3.76601H27.6774H28.9355V5.02133H27.6774H26.4193V3.76601H25.1613V2.51069Z" fill="#191311" fill-opacity="0.7"/>
<path d="M12.5806 5.02133H11.3226V6.27665H12.5806V5.02133Z" fill="#191311" fill-opacity="0.7"/>
<path d="M33.9677 6.27665H32.7097V7.53197H33.9677V6.27665Z" fill="#191311" fill-opacity="0.7"/>
<path d="M36.4839 6.27665H35.2258V7.53197H36.4839V6.27665Z" fill="#191311" fill-opacity="0.7"/>
<path d="M25.1613 7.53197H23.9032V8.78729H25.1613V7.53197Z" fill="#191311" fill-opacity="0.7"/>
<path d="M28.9355 8.78729H27.6774V10.0426H28.9355V8.78729Z" fill="#191311" fill-opacity="0.7"/>
<path d="M32.7097 8.78729H31.4516V10.0426H32.7097V8.78729Z" fill="#191311" fill-opacity="0.7"/>
<path d="M17.6129 10.0426H16.3548V11.2979H17.6129V10.0426Z" fill="#191311" fill-opacity="0.7"/>
<path d="M10.0645 11.2979H8.80644V12.5532H10.0645V11.2979Z" fill="#191311" fill-opacity="0.7"/>
<path d="M16.3548 13.8086H15.0968V15.0639H16.3548V13.8086Z" fill="#191311" fill-opacity="0.7"/>
<path d="M31.4516 13.8086H30.1935V15.0639H31.4516V13.8086Z" fill="#191311" fill-opacity="0.7"/>
<path d="M22.6452 15.0639H21.3871V16.3192H22.6452V15.0639Z" fill="#191311" fill-opacity="0.7"/>
<path d="M35.2258 15.0639V16.3192V17.5745H36.4839V15.0639H35.2258Z" fill="#191311" fill-opacity="0.7"/>
<path d="M66.6774 15.0639H65.4193V16.3192H66.6774V15.0639Z" fill="#191311" fill-opacity="0.7"/>
<path d="M64.1613 18.8298H62.9032V20.0852H64.1613V18.8298Z" fill="#191311" fill-opacity="0.7"/>
<path d="M62.9032 25.1064V26.3618V27.6171H64.1613V25.1064H62.9032Z" fill="#191311" fill-opacity="0.7"/>
<path d="M33.9677 27.6171H32.7097V28.8724H33.9677V27.6171Z" fill="#191311" fill-opacity="0.7"/>
<path d="M40.2581 27.6171H39V28.8724H40.2581V27.6171Z" fill="#191311" fill-opacity="0.7"/>
<path d="M69.1935 27.6171H67.9355V28.8724H69.1935V27.6171Z" fill="#191311" fill-opacity="0.7"/>
<path d="M35.2258 30.1277H33.9677V31.383H35.2258V30.1277Z" fill="#191311" fill-opacity="0.7"/>
<path d="M69.1935 31.383H67.9355V32.6383H69.1935V31.383Z" fill="#191311" fill-opacity="0.7"/>
<path d="M28.9355 32.6383H30.1935V33.8937H31.4516V35.149H30.1935V33.8937H28.9355V32.6383Z" fill="#191311" fill-opacity="0.7"/>
<path d="M40.2581 32.6383H39V33.8937H40.2581V32.6383Z" fill="#191311" fill-opacity="0.7"/>
<path d="M13.8387 33.8937H12.5806V35.149H13.8387V33.8937Z" fill="#191311" fill-opacity="0.7"/>
<path d="M18.871 33.8937H17.6129V35.149H18.871V33.8937Z" fill="#191311" fill-opacity="0.7"/>
<path d="M25.1613 33.8937V35.149V36.4043H26.4193V33.8937H25.1613Z" fill="#191311" fill-opacity="0.7"/>
<path d="M10.0645 35.149H8.80644V36.4043H10.0645V35.149Z" fill="#191311" fill-opacity="0.7"/>
<path d="M35.2258 35.149H33.9677V36.4043H35.2258V35.149Z" fill="#191311" fill-opacity="0.7"/>
<path d="M62.9032 35.149H61.6452V36.4043H62.9032V35.149Z" fill="#191311" fill-opacity="0.7"/>
<path d="M30.1935 36.4043H28.9355V37.6596H30.1935V36.4043Z" fill="#191311" fill-opacity="0.7"/>
<path d="M28.9355 38.9149V40.1703H30.1935H31.4516V38.9149H30.1935H28.9355Z" fill="#191311" fill-opacity="0.7"/>
<path d="M8.80644 40.1703H10.0645V41.4256H11.3226V42.6809H10.0645V41.4256H8.80644V40.1703Z" fill="#191311" fill-opacity="0.7"/>
<path d="M15.0968 40.1703H13.8387V41.4256H15.0968V40.1703Z" fill="#191311" fill-opacity="0.7"/>
<path d="M60.3871 40.1703H59.129V41.4256H60.3871V40.1703Z" fill="#191311" fill-opacity="0.7"/>
<path d="M6.29031 41.4256H5.03225V42.6809H6.29031V41.4256Z" fill="#191311" fill-opacity="0.7"/>
<path d="M16.3548 41.4256V42.6809L15.0968 43.9362V45.1915H16.3548H17.6129V43.9362V42.6809V41.4256H16.3548Z" fill="#191311" fill-opacity="0.7"/>
<path d="M54.0968 42.6809H52.8387V43.9362H54.0968V42.6809Z" fill="#191311" fill-opacity="0.7"/>
<path d="M2.51612 45.1915H1.25806V46.4469H2.51612V45.1915Z" fill="#191311" fill-opacity="0.7"/>
<path d="M54.0968 47.7022H52.8387V48.9575H54.0968V47.7022Z" fill="#191311" fill-opacity="0.7"/>
<path d="M51.5806 50.2128H50.3226V51.4681H51.5806V50.2128Z" fill="#191311" fill-opacity="0.7"/>
<path d="M59.129 50.2128H57.871V51.4681H59.129V50.2128Z" fill="#191311" fill-opacity="0.7"/>
<path d="M61.6452 50.2128H60.3871V51.4681H61.6452V50.2128Z" fill="#191311" fill-opacity="0.7"/>
<path d="M56.6129 51.4681H55.3548V52.7235H56.6129V51.4681Z" fill="#191311" fill-opacity="0.7"/>
<path d="M52.8387 52.7235H51.5806V53.9788H52.8387V52.7235Z" fill="#191311" fill-opacity="0.7"/>
<path d="M55.3548 53.9788H54.0968V55.2341H55.3548V53.9788Z" fill="#191311" fill-opacity="0.7"/>
<path d="M50.3226 55.2341H49.0645V56.4894H50.3226V55.2341Z" fill="#191311" fill-opacity="0.7"/>
<path d="M30.1935 1.25537H28.9355V2.51069H30.1935V1.25537Z" fill="#191311" fill-opacity="0.6"/>
<path d="M25.1613 2.51069H23.9032V3.76601H25.1613V2.51069Z" fill="#191311" fill-opacity="0.6"/>
<path d="M16.3548 3.76601H15.0968V5.02133H16.3548V3.76601Z" fill="#191311" fill-opacity="0.6"/>
<path d="M31.4516 6.27665H30.1935V7.53197H31.4516V6.27665Z" fill="#191311" fill-opacity="0.6"/>
<path d="M26.4193 10.0426H25.1613V11.2979H26.4193V10.0426Z" fill="#191311" fill-opacity="0.6"/>
<path d="M30.1935 11.2979H28.9355V12.5532H30.1935V11.2979Z" fill="#191311" fill-opacity="0.6"/>
<path d="M32.7097 11.2979H31.4516V12.5532H32.7097V11.2979Z" fill="#191311" fill-opacity="0.6"/>
<path d="M65.4193 12.5532H64.1613V13.8086H65.4193V12.5532Z" fill="#191311" fill-opacity="0.6"/>
<path d="M17.6129 13.8086V15.0639H18.871H20.129V13.8086H18.871H17.6129Z" fill="#191311" fill-opacity="0.6"/>
<path d="M35.2258 13.8086H33.9677V15.0639H35.2258V13.8086Z" fill="#191311" fill-opacity="0.6"/>
<path d="M23.9032 15.0639H22.6452V16.3192H23.9032V15.0639Z" fill="#191311" fill-opacity="0.6"/>
<path d="M64.1613 15.0639H62.9032V16.3192H64.1613V15.0639Z" fill="#191311" fill-opacity="0.6"/>
<path d="M69.1935 16.3192H67.9355V17.5745H69.1935V16.3192Z" fill="#191311" fill-opacity="0.6"/>
<path d="M12.5806 18.8298H11.3226V20.0852H12.5806V18.8298Z" fill="#191311" fill-opacity="0.6"/>
<path d="M64.1613 18.8298H65.4193V20.0852H64.1613V21.3405H62.9032V20.0852H64.1613V18.8298Z" fill="#191311" fill-opacity="0.6"/>
<path d="M11.3226 23.8511V26.3618H12.5806L13.8387 25.1064V23.8511H12.5806H11.3226Z" fill="#191311" fill-opacity="0.6"/>
<path d="M69.1935 25.1064H67.9355V26.3618H69.1935V25.1064Z" fill="#191311" fill-opacity="0.6"/>
<path d="M35.2258 27.6171H33.9677V28.8724H35.2258V27.6171Z" fill="#191311" fill-opacity="0.6"/>
<path d="M70.4516 28.8724H69.1935V30.1277H70.4516V28.8724Z" fill="#191311" fill-opacity="0.6"/>
<path d="M15.0968 30.1277H13.8387V31.383H15.0968V30.1277Z" fill="#191311" fill-opacity="0.6"/>
<path d="M27.6774 30.1277H26.4193V31.383H27.6774V30.1277Z" fill="#191311" fill-opacity="0.6"/>
<path d="M41.5161 31.383H40.2581V32.6383H41.5161V31.383Z" fill="#191311" fill-opacity="0.6"/>
<path d="M8.80644 33.8937H7.54838V35.149H8.80644V33.8937Z" fill="#191311" fill-opacity="0.6"/>
<path d="M15.0968 33.8937V35.149V36.4043H16.3548V35.149V33.8937H15.0968Z" fill="#191311" fill-opacity="0.6"/>
<path d="M11.3226 35.149H10.0645V36.4043H11.3226V35.149Z" fill="#191311" fill-opacity="0.6"/>
<path d="M13.8387 35.149H12.5806V36.4043H13.8387V35.149Z" fill="#191311" fill-opacity="0.6"/>
<path d="M32.7097 36.4043H31.4516V37.6596H32.7097V36.4043Z" fill="#191311" fill-opacity="0.6"/>
<path d="M36.4839 36.4043H37.7419V37.6596H36.4839V38.9149H35.2258V37.6596H36.4839V36.4043Z" fill="#191311" fill-opacity="0.6"/>
<path d="M62.9032 36.4043H61.6452V37.6596H62.9032V36.4043Z" fill="#191311" fill-opacity="0.6"/>
<path d="M8.80644 37.6596H7.54838V38.9149H8.80644V37.6596Z" fill="#191311" fill-opacity="0.6"/>
<path d="M3.77419 38.9149V40.1703H5.03225H6.29031V38.9149H3.77419Z" fill="#191311" fill-opacity="0.6"/>
<path d="M12.5806 38.9149H11.3226V40.1703H12.5806V38.9149Z" fill="#191311" fill-opacity="0.6"/>
<path d="M15.0968 38.9149H13.8387V40.1703H15.0968V38.9149Z" fill="#191311" fill-opacity="0.6"/>
<path d="M2.51612 40.1703H1.25806V41.4256H2.51612V40.1703Z" fill="#191311" fill-opacity="0.6"/>
<path d="M28.9355 40.1703H27.6774V41.4256H28.9355V40.1703Z" fill="#191311" fill-opacity="0.6"/>
<path d="M35.2258 40.1703H33.9677V41.4256H35.2258V40.1703Z" fill="#191311" fill-opacity="0.6"/>
<path d="M16.3548 41.4256H15.0968V42.6809H16.3548V41.4256Z" fill="#191311" fill-opacity="0.6"/>
<path d="M7.54838 42.6809H6.29031V43.9362H7.54838V42.6809Z" fill="#191311" fill-opacity="0.6"/>
<path d="M13.8387 42.6809H12.5806V43.9362H13.8387V42.6809Z" fill="#191311" fill-opacity="0.6"/>
<path d="M11.3226 46.4469H10.0645V47.7022H11.3226V46.4469Z" fill="#191311" fill-opacity="0.6"/>
<path d="M56.6129 46.4469H55.3548V47.7022H56.6129V46.4469Z" fill="#191311" fill-opacity="0.6"/>
<path d="M60.3871 46.4469H61.6452V47.7022H62.9032V48.9575H61.6452V47.7022H60.3871V46.4469Z" fill="#191311" fill-opacity="0.6"/>
<path d="M5.03225 47.7022H3.77419V48.9575H5.03225V47.7022Z" fill="#191311" fill-opacity="0.6"/>
<path d="M13.8387 47.7022H12.5806V48.9575H13.8387V47.7022Z" fill="#191311" fill-opacity="0.6"/>
<path d="M52.8387 48.9575H51.5806V50.2128H52.8387V48.9575Z" fill="#191311" fill-opacity="0.6"/>
<path d="M60.3871 48.9575H59.129V50.2128H60.3871V48.9575Z" fill="#191311" fill-opacity="0.6"/>
<path d="M47.8064 50.2128H46.5484V51.4681H47.8064V50.2128Z" fill="#191311" fill-opacity="0.6"/>
<path d="M65.4193 50.2128H64.1613V51.4681H65.4193V50.2128Z" fill="#191311" fill-opacity="0.6"/>
<path d="M47.8064 52.7235H46.5484V53.9788H47.8064V52.7235Z" fill="#191311" fill-opacity="0.6"/>
<path d="M17.6129 3.76587H16.3548V5.02119H17.6129V3.76587Z" fill="#181311" fill-opacity="0.8"/>
<path d="M23.9032 7.53183H22.6451V8.78715H23.9032V7.53183Z" fill="#181311" fill-opacity="0.8"/>
<path d="M27.6774 8.78715H26.4193V10.0425H27.6774V8.78715Z" fill="#181311" fill-opacity="0.8"/>
<path d="M31.4516 8.78715H30.1935V10.0425H31.4516V8.78715Z" fill="#181311" fill-opacity="0.8"/>
<path d="M12.5806 10.0425H11.3226V11.2978H12.5806V10.0425Z" fill="#181311" fill-opacity="0.8"/>
<path d="M35.2258 11.2978H33.9677V12.5531H35.2258V11.2978Z" fill="#181311" fill-opacity="0.8"/>
<path d="M27.6774 12.5531H28.9355V13.8084H30.1935V15.0637H28.9355V13.8084H27.6774V12.5531Z" fill="#181311" fill-opacity="0.8"/>
<path d="M12.5806 15.0637V16.3191H15.0968V15.0637H12.5806Z" fill="#181311" fill-opacity="0.8"/>
<path d="M10.0645 16.3191H8.80644V17.5744H10.0645V16.3191Z" fill="#181311" fill-opacity="0.8"/>
<path d="M62.9032 16.3191V18.8297H64.1613H65.4193V17.5744L64.1613 16.3191H62.9032Z" fill="#181311" fill-opacity="0.8"/>
<path d="M66.6774 17.5744H67.9355V18.8297H69.1935V20.085H67.9355V18.8297H66.6774V17.5744Z" fill="#181311" fill-opacity="0.8"/>
<path d="M62.9032 23.851V22.5957H64.1613V23.851V25.1063H62.9032V26.3616H61.6451V25.1063H62.9032V23.851Z" fill="#181311" fill-opacity="0.8"/>
<path d="M12.5806 27.6169V28.8723V30.1276H13.8387V28.8723V27.6169H12.5806Z" fill="#181311" fill-opacity="0.8"/>
<path d="M31.4516 27.6169H30.1935V28.8723H31.4516V27.6169Z" fill="#181311" fill-opacity="0.8"/>
<path d="M39 28.8723V30.1276V31.3829V32.6382H40.258V31.3829V30.1276V28.8723H39Z" fill="#181311" fill-opacity="0.8"/>
<path d="M67.9355 30.1276H69.1935V31.3829H70.4516V32.6382H69.1935V31.3829H67.9355V30.1276Z" fill="#181311" fill-opacity="0.8"/>
<path d="M61.6451 32.6382L60.3871 33.8935V35.1488H61.6451H62.9032V33.8935V32.6382H61.6451Z" fill="#181311" fill-opacity="0.8"/>
<path d="M71.7097 33.8935V32.6382H74.2258V33.8935V35.1488H72.9677L71.7097 33.8935V35.1488H70.4516V33.8935H71.7097Z" fill="#181311" fill-opacity="0.8"/>
<path d="M28.9355 36.4042H27.6774V37.6595H28.9355V36.4042Z" fill="#181311" fill-opacity="0.8"/>
<path d="M26.4193 37.6595H25.1613V38.9148H26.4193V37.6595Z" fill="#181311" fill-opacity="0.8"/>
<path d="M61.6451 40.1701H60.3871V41.4254H61.6451V40.1701Z" fill="#181311" fill-opacity="0.8"/>
<path d="M7.54837 41.4254H6.29031V42.6808H7.54837V41.4254Z" fill="#181311" fill-opacity="0.8"/>
<path d="M62.9032 42.6808H61.6451V43.9361H62.9032V42.6808Z" fill="#181311" fill-opacity="0.8"/>
<path d="M3.77418 43.9361H2.51611V45.1914H3.77418V43.9361Z" fill="#181311" fill-opacity="0.8"/>
<path d="M15.0968 43.9361H13.8387V45.1914H15.0968V43.9361Z" fill="#181311" fill-opacity="0.8"/>
<path d="M54.0968 45.1914H52.8387V46.4467H54.0968V45.1914Z" fill="#181311" fill-opacity="0.8"/>
<path d="M60.3871 45.1914H59.129V46.4467H60.3871V45.1914Z" fill="#181311" fill-opacity="0.8"/>
<path d="M64.1613 45.1914H62.9032V46.4467H64.1613V45.1914Z" fill="#181311" fill-opacity="0.8"/>
<path d="M6.29031 46.4467H5.03224V47.702H6.29031V46.4467Z" fill="#181311" fill-opacity="0.8"/>
<path d="M50.3226 50.2127V47.702H51.5806V48.9574V50.2127H52.8387V51.468H51.5806V50.2127H50.3226Z" fill="#181311" fill-opacity="0.8"/>
<path d="M64.1613 47.702V50.2127H65.4193V47.702H64.1613Z" fill="#181311" fill-opacity="0.8"/>
<path d="M47.8064 51.468H46.5484V52.7233H47.8064V51.468Z" fill="#181311" fill-opacity="0.8"/>
<path d="M51.5806 52.7233H50.3226V53.9786H51.5806V52.7233Z" fill="#181311" fill-opacity="0.8"/>
<path d="M54.0968 55.234H52.8387V56.4893H54.0968V55.234Z" fill="#181311" fill-opacity="0.8"/>
<path d="M11.3225 5.02124H10.0645V6.27656H11.3225V5.02124Z" fill="#181211" fill-opacity="0.5"/>
<path d="M28.9355 5.02124H27.6774V6.27656H28.9355V5.02124Z" fill="#181211" fill-opacity="0.5"/>
<path d="M31.4516 5.02124H30.1935V6.27656H31.4516V5.02124Z" fill="#181211" fill-opacity="0.5"/>
<path d="M7.54836 7.53188H6.29029V8.7872H7.54836V7.53188Z" fill="#181211" fill-opacity="0.5"/>
<path d="M15.0967 7.53188H13.8387V8.7872H15.0967V7.53188Z" fill="#181211" fill-opacity="0.5"/>
<path d="M20.129 7.53188H18.8709V8.7872H20.129V7.53188Z" fill="#181211" fill-opacity="0.5"/>
<path d="M25.1613 8.7872H23.9032V10.0425H25.1613V8.7872Z" fill="#181211" fill-opacity="0.5"/>
<path d="M36.4838 8.7872V10.0425V11.2978H37.7419V8.7872H36.4838Z" fill="#181211" fill-opacity="0.5"/>
<path d="M25.1613 12.5532H23.9032V13.8085H25.1613V12.5532Z" fill="#181211" fill-opacity="0.5"/>
<path d="M32.7096 13.8085H31.4516V15.0638H32.7096V13.8085Z" fill="#181211" fill-opacity="0.5"/>
<path d="M64.1613 13.8085H62.9032V15.0638H64.1613V13.8085Z" fill="#181211" fill-opacity="0.5"/>
<path d="M66.6774 17.5744H65.4193V18.8298H66.6774V17.5744Z" fill="#181211" fill-opacity="0.5"/>
<path d="M13.8387 21.3404H12.5806V22.5957H13.8387V21.3404Z" fill="#181211" fill-opacity="0.5"/>
<path d="M35.2258 22.5957H33.9677V23.851H35.2258V22.5957Z" fill="#181211" fill-opacity="0.5"/>
<path d="M62.9032 23.851H61.6451V25.1063H62.9032V23.851Z" fill="#181211" fill-opacity="0.5"/>
<path d="M36.4838 25.1063H37.7419V26.3617H39V27.617H37.7419V26.3617H36.4838V25.1063Z" fill="#181211" fill-opacity="0.5"/>
<path d="M37.7419 28.8723H36.4838V30.1276H37.7419V28.8723Z" fill="#181211" fill-opacity="0.5"/>
<path d="M64.1613 28.8723H62.9032V30.1276H64.1613V28.8723Z" fill="#181211" fill-opacity="0.5"/>
<path d="M32.7096 30.1276H31.4516V31.3829H32.7096V30.1276Z" fill="#181211" fill-opacity="0.5"/>
<path d="M70.4516 30.1276H69.1935V31.3829H70.4516V30.1276Z" fill="#181211" fill-opacity="0.5"/>
<path d="M26.4193 31.3829H25.1613V32.6383H26.4193V31.3829Z" fill="#181211" fill-opacity="0.5"/>
<path d="M61.6451 31.3829H60.3871V32.6383H61.6451V31.3829Z" fill="#181211" fill-opacity="0.5"/>
<path d="M36.4838 32.6383H35.2258V33.8936H36.4838V32.6383Z" fill="#181211" fill-opacity="0.5"/>
<path d="M37.7419 33.8936H39V35.1489H40.258V36.4042H39V35.1489H37.7419V33.8936Z" fill="#181211" fill-opacity="0.5"/>
<path d="M25.1613 35.1489H23.9032V36.4042H25.1613V35.1489Z" fill="#181211" fill-opacity="0.5"/>
<path d="M6.29029 40.1702H5.03223V41.4255H6.29029V40.1702Z" fill="#181211" fill-opacity="0.5"/>
<path d="M16.3548 42.6808H15.0967V43.9361H16.3548V42.6808Z" fill="#181211" fill-opacity="0.5"/>
<path d="M12.5806 45.1915H11.3225V46.4468H12.5806V45.1915Z" fill="#181211" fill-opacity="0.5"/>
<path d="M50.3225 45.1915H49.0645V46.4468H50.3225V45.1915Z" fill="#181211" fill-opacity="0.5"/>
<path d="M7.54836 48.9574V50.2127H10.0645V48.9574H8.80642H7.54836Z" fill="#181211" fill-opacity="0.5"/>
<path d="M57.8709 48.9574H56.6129V50.2127H57.8709V48.9574Z" fill="#181211" fill-opacity="0.5"/>
<path d="M54.0967 51.468H52.8387V52.7234H54.0967V51.468Z" fill="#181211" fill-opacity="0.5"/>
<path d="M62.9032 52.7234H64.1613V53.9787H62.9032V55.234H61.6451V53.9787H62.9032V52.7234Z" fill="#181211" fill-opacity="0.5"/>
<path d="M52.8387 53.9787H51.5806V55.234H52.8387V53.9787Z" fill="#181211" fill-opacity="0.5"/>
<path d="M59.129 56.4893H57.8709V57.7446H59.129V56.4893Z" fill="#181211" fill-opacity="0.5"/>
<path d="M33.9677 0V1.25532H36.4839V0H33.9677Z" fill="#181311" fill-opacity="0.7"/>
<path d="M26.4193 5.02128H25.1613V6.2766H26.4193V5.02128Z" fill="#181311" fill-opacity="0.7"/>
<path d="M31.4516 7.53191H30.1935V8.78723H31.4516V7.53191Z" fill="#181311" fill-opacity="0.7"/>
<path d="M13.8387 10.0426H12.5806V11.2979H13.8387V10.0426Z" fill="#181311" fill-opacity="0.7"/>
<path d="M8.80644 11.2979H7.54837V12.5532H8.80644V11.2979Z" fill="#181311" fill-opacity="0.7"/>
<path d="M18.871 11.2979H17.6129V12.5532H18.871V11.2979Z" fill="#181311" fill-opacity="0.7"/>
<path d="M70.4516 18.8298H69.1935V20.0851H70.4516V18.8298Z" fill="#181311" fill-opacity="0.7"/>
<path d="M11.3226 20.0851H10.0645V21.3404H11.3226V20.0851Z" fill="#181311" fill-opacity="0.7"/>
<path d="M64.1613 21.3404H62.9032V22.5957H64.1613V21.3404Z" fill="#181311" fill-opacity="0.7"/>
<path d="M13.8387 22.5957H12.5806V23.8511H13.8387V22.5957Z" fill="#181311" fill-opacity="0.7"/>
<path d="M33.9677 25.1064H35.2258V26.3617H33.9677V27.617H32.7097V26.3617H33.9677V25.1064Z" fill="#181311" fill-opacity="0.7"/>
<path d="M67.9355 26.3617H69.1935V27.617H70.4516V28.8723H69.1935V27.617H67.9355V26.3617Z" fill="#181311" fill-opacity="0.7"/>
<path d="M64.1613 27.617H62.9032V28.8723H64.1613V27.617Z" fill="#181311" fill-opacity="0.7"/>
<path d="M41.5161 30.1277H40.258V31.383H41.5161V30.1277Z" fill="#181311" fill-opacity="0.7"/>
<path d="M11.3226 32.6383H10.0645V33.8936H11.3226V32.6383Z" fill="#181311" fill-opacity="0.7"/>
<path d="M27.6774 32.6383H26.4193V33.8936H27.6774V32.6383Z" fill="#181311" fill-opacity="0.7"/>
<path d="M61.6451 32.6383H60.3871V33.8936H61.6451V32.6383Z" fill="#181311" fill-opacity="0.7"/>
<path d="M40.258 33.8936H39V35.1489H40.258V33.8936Z" fill="#181311" fill-opacity="0.7"/>
<path d="M75.4839 33.8936H74.2258V35.1489H75.4839V33.8936Z" fill="#181311" fill-opacity="0.7"/>
<path d="M3.77418 36.4043H5.03224V37.6596H3.77418V38.9149H2.51611V37.6596H3.77418V36.4043Z" fill="#181311" fill-opacity="0.7"/>
<path d="M11.3226 36.4043H10.0645V37.6596H11.3226V36.4043Z" fill="#181311" fill-opacity="0.7"/>
<path d="M27.6774 36.4043H26.4193V37.6596H27.6774V36.4043Z" fill="#181311" fill-opacity="0.7"/>
<path d="M8.80644 42.6809H7.54837V43.9362H8.80644V42.6809Z" fill="#181311" fill-opacity="0.7"/>
<path d="M62.9032 43.9362H64.1613V45.1915H62.9032V46.4468H61.6451V45.1915H62.9032V43.9362Z" fill="#181311" fill-opacity="0.7"/>
<path d="M6.29031 45.1915H5.03224V46.4468H6.29031V45.1915Z" fill="#181311" fill-opacity="0.7"/>
<path d="M65.4193 46.4468H64.1613V47.7021H65.4193V46.4468Z" fill="#181311" fill-opacity="0.7"/>
<path d="M55.3548 48.9574H54.0968V50.2128H55.3548V48.9574Z" fill="#181311" fill-opacity="0.7"/>
<path d="M51.5806 51.4681H50.3226V52.7234H51.5806V51.4681Z" fill="#181311" fill-opacity="0.7"/>
<path d="M56.6129 53.9787V52.7234H57.871L59.129 53.9787V52.7234H60.3871V53.9787H59.129V55.234L56.6129 53.9787Z" fill="#181311" fill-opacity="0.7"/>
<path d="M26.4193 7.53198H25.1613V8.7873H26.4193V7.53198Z" fill="#191311" fill-opacity="0.2"/>
<path d="M35.2258 7.53198H33.9677V8.7873H35.2258V7.53198Z" fill="#191311" fill-opacity="0.2"/>
<path d="M7.54837 10.0426H6.29031V11.2979H7.54837V10.0426Z" fill="#191311" fill-opacity="0.2"/>
<path d="M20.129 11.2979H18.871V12.5533H20.129V11.2979Z" fill="#191311" fill-opacity="0.2"/>
<path d="M66.6774 12.5533H65.4193V13.8086H66.6774V12.5533Z" fill="#191311" fill-opacity="0.2"/>
<path d="M30.1935 15.0639H28.9355V16.3192H30.1935V15.0639Z" fill="#191311" fill-opacity="0.2"/>
<path d="M35.2258 15.0639H33.9677V16.3192H35.2258V15.0639Z" fill="#191311" fill-opacity="0.2"/>
<path d="M21.3871 16.3192H20.129V17.5745H21.3871V16.3192Z" fill="#191311" fill-opacity="0.2"/>
<path d="M61.6451 18.8299V21.3405H62.9032V20.0852V18.8299H61.6451Z" fill="#191311" fill-opacity="0.2"/>
<path d="M65.4193 23.8511H64.1613V25.1064H65.4193V23.8511Z" fill="#191311" fill-opacity="0.2"/>
<path d="M61.6451 26.3618H60.3871V27.6171H61.6451V26.3618Z" fill="#191311" fill-opacity="0.2"/>
<path d="M11.3226 28.8724V31.383H12.5806V30.1277V28.8724H11.3226Z" fill="#191311" fill-opacity="0.2"/>
<path d="M39 30.1277H37.7419V31.383H39V30.1277Z" fill="#191311" fill-opacity="0.2"/>
<path d="M17.6129 31.383H16.3548V32.6384H17.6129V31.383Z" fill="#191311" fill-opacity="0.2"/>
<path d="M71.7097 31.383H70.4516V32.6384H71.7097V31.383Z" fill="#191311" fill-opacity="0.2"/>
<path d="M32.7097 32.6384H33.9677V33.8937H32.7097V35.149H31.4516V33.8937H32.7097V32.6384Z" fill="#191311" fill-opacity="0.2"/>
<path d="M41.5161 33.8937H40.258V35.149H41.5161V33.8937Z" fill="#191311" fill-opacity="0.2"/>
<path d="M78 33.8937H76.7419V35.149H78V33.8937Z" fill="#191311" fill-opacity="0.2"/>
<path d="M15.0968 35.149H13.8387V36.4043H15.0968V35.149Z" fill="#191311" fill-opacity="0.2"/>
<path d="M64.1613 35.149H62.9032V36.4043H64.1613V35.149Z" fill="#191311" fill-opacity="0.2"/>
<path d="M3.77418 36.4043H2.51611V37.6596H3.77418V36.4043Z" fill="#191311" fill-opacity="0.2"/>
<path d="M36.4839 36.4043H35.2258V37.6596H36.4839V36.4043Z" fill="#191311" fill-opacity="0.2"/>
<path d="M25.1613 37.6596H23.9032V38.915H25.1613V37.6596Z" fill="#191311" fill-opacity="0.2"/>
<path d="M56.6129 40.1703H55.3548V41.4256H56.6129V40.1703Z" fill="#191311" fill-opacity="0.2"/>
<path d="M62.9032 40.1703H61.6451V41.4256H62.9032V40.1703Z" fill="#191311" fill-opacity="0.2"/>
<path d="M20.129 41.4256H18.871V42.6809H20.129V41.4256Z" fill="#191311" fill-opacity="0.2"/>
<path d="M28.9355 41.4256L32.7097 42.6809V41.4256H31.4516H30.1935H28.9355Z" fill="#191311" fill-opacity="0.2"/>
<path d="M18.871 43.9362H17.6129V45.1916H18.871V43.9362Z" fill="#191311" fill-opacity="0.2"/>
<path d="M57.871 45.1916H56.6129V46.4469H57.871V45.1916Z" fill="#191311" fill-opacity="0.2"/>
<path d="M47.8064 47.7022H46.5484V48.9575H47.8064V47.7022Z" fill="#191311" fill-opacity="0.2"/>
<path d="M65.4193 47.7022V50.2128L66.6774 47.7022H65.4193Z" fill="#191311" fill-opacity="0.2"/>
<path d="M56.6129 48.9575H55.3548V50.2128H56.6129V48.9575Z" fill="#191311" fill-opacity="0.2"/>
<path d="M60.3871 56.4894H59.129V57.7447H60.3871V56.4894Z" fill="#191311" fill-opacity="0.2"/>
<path d="M52.8387 57.7447H51.5806V59.0001H52.8387V57.7447Z" fill="#191311" fill-opacity="0.2"/>
<path d="M31.4516 0H30.1935V1.25532H31.4516V0Z" fill="#191311" fill-opacity="0.2"/>
<path d="M37.7419 0H36.4839V1.25532H37.7419V0Z" fill="#191311" fill-opacity="0.2"/>
<path d="M27.6774 1.25532H26.4194V2.51064H27.6774V1.25532Z" fill="#191311" fill-opacity="0.2"/>
<path d="M18.871 2.51064H17.6129V3.76596H18.871V2.51064Z" fill="#191311" fill-opacity="0.2"/>
<path d="M26.4194 5.02128V6.2766V7.53191H27.6774V6.2766V5.02128H26.4194Z" fill="#191311" fill-opacity="0.2"/>
<path d="M17.6129 7.53191H16.3548V8.78723H17.6129V7.53191Z" fill="#191311" fill-opacity="0.2"/>
<path d="M35.2258 8.78723H33.9677V10.0426H35.2258V8.78723Z" fill="#191311" fill-opacity="0.2"/>
<path d="M20.129 10.0426H18.871V11.2979H20.129V10.0426Z" fill="#191311" fill-opacity="0.2"/>
<path d="M16.3548 11.2979H15.0968V12.5532H16.3548V11.2979Z" fill="#191311" fill-opacity="0.2"/>
<path d="M25.1613 11.2979H23.9032V12.5532H25.1613V11.2979Z" fill="#191311" fill-opacity="0.2"/>
<path d="M13.8387 12.5532H12.5806V13.8085H13.8387V12.5532Z" fill="#191311" fill-opacity="0.2"/>
<path d="M20.129 12.5532H18.871V13.8085H20.129V12.5532Z" fill="#191311" fill-opacity="0.2"/>
<path d="M20.129 16.3191H18.871V17.5745H20.129V16.3191Z" fill="#191311" fill-opacity="0.2"/>
<path d="M61.6452 16.3191V18.8298H62.9032V16.3191H61.6452Z" fill="#191311" fill-opacity="0.2"/>
<path d="M10.0645 17.5745H8.80645V18.8298H10.0645V17.5745Z" fill="#191311" fill-opacity="0.2"/>
<path d="M67.9355 18.8298H66.6774V20.0851H67.9355V18.8298Z" fill="#191311" fill-opacity="0.2"/>
<path d="M64.1613 21.3404V22.5957V23.8511H65.4194V21.3404H64.1613Z" fill="#191311" fill-opacity="0.2"/>
<path d="M71.7097 21.3404H70.4516V22.5957H71.7097V21.3404Z" fill="#191311" fill-opacity="0.2"/>
<path d="M15.0968 25.1064H13.8387V26.3617H15.0968V25.1064Z" fill="#191311" fill-opacity="0.2"/>
<path d="M31.4516 26.3617H30.1935V27.617H31.4516V26.3617Z" fill="#191311" fill-opacity="0.2"/>
<path d="M12.5806 27.617H11.3226V28.8723H12.5806V27.617Z" fill="#191311" fill-opacity="0.2"/>
<path d="M41.5161 27.617H40.2581V28.8723H41.5161V27.617Z" fill="#191311" fill-opacity="0.2"/>
<path d="M33.9677 28.8723H32.7097V30.1277H33.9677V28.8723Z" fill="#191311" fill-opacity="0.2"/>
<path d="M39 31.383H37.7419V32.6383H39V31.383Z" fill="#191311" fill-opacity="0.2"/>
<path d="M10.0645 32.6383H8.80645V33.8936H10.0645V32.6383Z" fill="#191311" fill-opacity="0.2"/>
<path d="M25.1613 32.6383H23.9032V33.8936H25.1613V32.6383Z" fill="#191311" fill-opacity="0.2"/>
<path d="M7.54839 33.8936H6.29032V35.1489H7.54839V33.8936Z" fill="#191311" fill-opacity="0.2"/>
<path d="M64.1613 33.8936H62.9032V35.1489H64.1613V33.8936Z" fill="#191311" fill-opacity="0.2"/>
<path d="M13.8387 36.4043H15.0968V37.6596H13.8387V38.9149V40.1702V41.4255H12.5806V40.1702V38.9149V37.6596H13.8387V36.4043Z" fill="#191311" fill-opacity="0.2"/>
<path d="M5.03226 41.4255H3.77419V42.6809H5.03226V41.4255Z" fill="#191311" fill-opacity="0.2"/>
<path d="M1.25806 43.9362H0V45.1915H1.25806V43.9362Z" fill="#191311" fill-opacity="0.2"/>
<path d="M15.0968 47.7021H13.8387V48.9574H15.0968V47.7021Z" fill="#191311" fill-opacity="0.2"/>
<path d="M56.6129 47.7021H55.3548V48.9574H56.6129V47.7021Z" fill="#191311" fill-opacity="0.2"/>
<path d="M54.0968 51.4681H55.3548V52.7234H54.0968V53.9787H52.8387V52.7234H54.0968V51.4681Z" fill="#191311" fill-opacity="0.2"/>
<path d="M59.129 51.4681H57.871V52.7234H59.129V51.4681Z" fill="#191311" fill-opacity="0.2"/>
<path d="M47.8064 53.9787H46.5484V55.234H47.8064V53.9787Z" fill="#191311" fill-opacity="0.2"/>
<path d="M26.4193 1.25537H25.1613V2.51069H26.4193V1.25537Z" fill="#181211" fill-opacity="0.1"/>
<path d="M35.2258 6.27665H33.9677V7.53197H35.2258V6.27665Z" fill="#181211" fill-opacity="0.1"/>
<path d="M22.6452 7.53197H21.3871V8.78729H22.6452V7.53197Z" fill="#181211" fill-opacity="0.1"/>
<path d="M11.3226 10.0426H10.0645V11.2979H11.3226V10.0426Z" fill="#181211" fill-opacity="0.1"/>
<path d="M15.0968 10.0426H13.8387V11.2979H15.0968V10.0426Z" fill="#181211" fill-opacity="0.1"/>
<path d="M31.4516 15.0639H30.1935V16.3192H31.4516V15.0639Z" fill="#181211" fill-opacity="0.1"/>
<path d="M62.9032 15.0639H61.6452V16.3192H62.9032V15.0639Z" fill="#181211" fill-opacity="0.1"/>
<path d="M35.2258 16.3192H33.9677V17.5745H35.2258V16.3192Z" fill="#181211" fill-opacity="0.1"/>
<path d="M15.0968 23.8511H13.8387V25.1064H15.0968V23.8511Z" fill="#181211" fill-opacity="0.1"/>
<path d="M71.7097 23.8511H70.4516V25.1064H71.7097V23.8511Z" fill="#181211" fill-opacity="0.1"/>
<path d="M33.9677 25.1064H32.7097V26.3618H33.9677V25.1064Z" fill="#181211" fill-opacity="0.1"/>
<path d="M61.6452 25.1064H60.3871V26.3618H61.6452V25.1064Z" fill="#181211" fill-opacity="0.1"/>
<path d="M26.4193 30.1277H25.1613V31.383H26.4193V30.1277Z" fill="#181211" fill-opacity="0.1"/>
<path d="M20.129 33.8937H18.871V35.149H20.129V33.8937Z" fill="#181211" fill-opacity="0.1"/>
<path d="M5.03225 35.149H3.77419V36.4043H5.03225V35.149Z" fill="#181211" fill-opacity="0.1"/>
<path d="M36.4839 35.149H35.2258V36.4043H36.4839V35.149Z" fill="#181211" fill-opacity="0.1"/>
<path d="M8.80644 36.4043V37.6596V38.9149H10.0645V37.6596V36.4043H8.80644Z" fill="#181211" fill-opacity="0.1"/>
<path d="M2.51612 37.6596H1.25806V38.9149H2.51612V37.6596Z" fill="#181211" fill-opacity="0.1"/>
<path d="M33.9677 41.4256H32.7097V42.6809H33.9677V41.4256Z" fill="#181211" fill-opacity="0.1"/>
<path d="M10.0645 43.9362V45.1915V46.4469H11.3226V45.1915V43.9362H10.0645Z" fill="#181211" fill-opacity="0.1"/>
<path d="M49.0645 45.1915H47.8064V46.4469H49.0645V45.1915Z" fill="#181211" fill-opacity="0.1"/>
<path d="M66.6774 46.4469H65.4193V47.7022H66.6774V46.4469Z" fill="#181211" fill-opacity="0.1"/>
<path d="M57.871 47.7022H56.6129V48.9575H57.871V47.7022Z" fill="#181211" fill-opacity="0.1"/>
<path fill-rule="evenodd" clip-rule="evenodd" d="M8.8064 16.3192L7.54834 13.8086H8.8064V16.3192ZM17.6129 16.3192H18.8709V17.5746H17.6129V16.3192ZM33.9677 20.0852H35.2258V21.3405H33.9677V20.0852ZM10.0645 22.5958H11.3225V23.8511H10.0645V22.5958Z" fill="#242323" fill-opacity="0.3"/>
<path d="M33.9678 17.5745V20.0851H35.2258V17.5745H33.9678Z" fill="#505050" fill-opacity="0.2"/>
<path d="M78 31.383H76.742V32.6383H78V31.383Z" fill="#505050" fill-opacity="0.2"/>
<path d="M60.3871 35.1489L59.1291 37.6596H60.3871V35.1489Z" fill="#505050" fill-opacity="0.2"/>
<path d="M30.1936 0H28.9355V1.25532H30.1936V0Z" fill="#251E1F" fill-opacity="0.1"/>
<path d="M33.9678 8.78723H32.7097V10.0426H33.9678V8.78723Z" fill="#251E1F" fill-opacity="0.1"/>
<path d="M13.8386 6.27661H12.5806V7.53193H13.8386V6.27661Z" fill="#181211" fill-opacity="0.9"/>
<path d="M16.3548 38.9149H15.0967V40.1702H16.3548V38.9149Z" fill="#181211" fill-opacity="0.9"/>
<path d="M35.2259 2.51074H33.9678V3.76606H35.2259V2.51074Z" fill="#181211" fill-opacity="0.8"/>
<path d="M31.4517 3.76606H30.1936V5.02138H31.4517V3.76606Z" fill="#181211" fill-opacity="0.8"/>
<path d="M72.9678 33.8937H71.7097V35.149H72.9678V33.8937Z" fill="#181211" fill-opacity="0.8"/>
<path d="M64.1613 51.4682H62.9033V52.7235H64.1613V51.4682Z" fill="#181211" fill-opacity="0.8"/>
<path d="M57.871 56.4895H56.613V57.7448H57.871V56.4895Z" fill="#181211" fill-opacity="0.8"/>
<path d="M28.9356 35.1489H27.6775V36.4042H28.9356V35.1489Z" fill="#181210" fill-opacity="0.5"/>
<path d="M30.1936 7.53198H28.9355V8.7873H30.1936V7.53198Z" fill="#181311" fill-opacity="0.4"/>
<path d="M60.387 43.9363H59.1289V45.1916H60.387V43.9363Z" fill="#191311" fill-opacity="0.7"/>
<path d="M13.8386 25.1064H12.5806V26.3618H13.8386V25.1064Z" fill="#181311" fill-opacity="0.8"/>
<path d="M27.6773 38.915H26.4193V40.1703H27.6773V38.915Z" fill="#181311" fill-opacity="0.8"/>
<path d="M16.3547 6.27661H15.0967V7.53193H16.3547V6.27661Z" fill="#181211" fill-opacity="0.5"/>
<path d="M59.1289 42.6809H57.8708V43.9362H59.1289V42.6809Z" fill="#181311" fill-opacity="0.7"/>
</svg>
