<svg width="73" height="88" viewBox="0 0 73 88" fill="none" xmlns="http://www.w3.org/2000/svg">
<path d="M14 50.8C17.3 51.5 20 52.6 20.1 53.3C20.1 54 20.1 57.4 20 61C19.9 67.8 21.3 73.5 22.9 72.5C23.5 72.2 23.5 70.7 22.9 68.7C21.9 65.1 21.7 57 22.6 54.6C23.1 53.4 24.1 53.1 27.1 53.6C31.6 54.4 32.7 52.4 28.2 51.4C26.7 51.1 24.9 50.7 24.3 50.5C22.8 50 29.7 35.8 33.1 32.1L35.3 29.7L37.3 32.4C39.8 35.8 41.4 34.7 39.5 30.9C38.6 29.3 38.2 27.6 38.5 27.1C39.2 25.9 51.6 21 54 21C55.1 21 56 20.5 56 20C56 18 49.9 19.1 42.9 22.2L35.7 25.4L34.1 23C31.1 18.6 29.2 16.5 28.5 17.2C28.2 17.5 28.9 19.5 30.2 21.7C31.6 23.8 33 26 33.3 26.7C33.7 27.4 32.7 29.4 31 31.3C29.4 33.2 26.4 38.2 24.4 42.4C22.4 46.6 20.5 50 20.1 50C19.8 50 17.2 49.4 14.3 48.6C9.5 47.3 8 47.4 8 49C8 49.3 10.7 50.2 14 50.8Z" fill="black"/>
<path d="M38.6 75.3C40.2 76.8 41 74.4 41 68.3C41 61.3 43.7 54.2 48.8 47.3C51.8 43.3 62.7 36 65.7 36C68.4 36 69.7 34.2 67.5 33.4C64.9 32.4 53.2 38.9 48.8 43.9C43 50.4 39.3 59 38.6 67.6C38.3 71.5 38.3 75 38.6 75.3Z" fill="black"/>
</svg>
