<svg width="69" height="73" viewBox="0 0 69 73" fill="none" xmlns="http://www.w3.org/2000/svg">
<path d="M54.9184 71.5962H53.5103V73H54.9184V71.5962Z" fill="#191413" fill-opacity="0.2"/>
<path d="M53.5102 71.5962H52.1021V73H53.5102V71.5962Z" fill="#191414" fill-opacity="0.7"/>
<path d="M52.102 71.5962H50.6938V73H52.102V71.5962Z" fill="#191413" fill-opacity="0.6"/>
<path d="M54.9184 70.1924H53.5103V71.5962H54.9184V70.1924Z" fill="#191414" fill-opacity="0.3"/>
<path d="M50.6938 70.1924H49.2856V71.5962H50.6938V70.1924Z" fill="#1A1514" fill-opacity="0.2"/>
<path d="M54.9184 68.7886H53.5103V70.1924H54.9184V68.7886Z" fill="#191414" fill-opacity="0.4"/>
<path d="M54.9184 67.3845H53.5103V68.7884H54.9184V67.3845Z" fill="#191414" fill-opacity="0.5"/>
<path d="M49.2856 67.3845V70.1922H50.6938V67.3845H49.2856Z" fill="#191414" fill-opacity="0.3"/>
<path d="M50.6938 65.9807H49.2856V67.3846H50.6938V65.9807Z" fill="#191414" fill-opacity="0.4"/>
<path d="M53.5103 63.1731V67.3846H54.9184V63.1731H53.5103Z" fill="#191414" fill-opacity="0.7"/>
<path d="M54.9184 61.7693H53.5103V63.1731H54.9184V61.7693Z" fill="#191413" fill-opacity="0.8"/>
<path d="M49.2856 61.7693V65.9808H50.6938V61.7693H49.2856Z" fill="#191414" fill-opacity="0.5"/>
<path d="M56.3266 60.3655H54.9185V61.7693H56.3266V60.3655Z" fill="#1A1514" fill-opacity="0.2"/>
<path d="M50.6938 60.3655H49.2856V61.7693H50.6938V60.3655Z" fill="#191515" fill-opacity="0.6"/>
<path d="M56.3266 58.9614H54.9185V60.3653H56.3266V58.9614Z" fill="#191414" fill-opacity="0.4"/>
<path d="M50.6938 58.9614H49.2856V60.3653H50.6938V58.9614Z" fill="#191413" fill-opacity="0.6"/>
<path d="M56.3266 57.5576H54.9185V58.9615H56.3266V57.5576Z" fill="#191413" fill-opacity="0.6"/>
<path d="M53.5102 57.5576L52.102 58.9615H50.6938V60.3653V61.7692V65.9807V67.3845V70.1922L52.102 71.5961H53.5102V70.1922V68.7884V67.3845V63.173V61.7692L54.9183 60.3653V58.9615V57.5576H53.5102Z" fill="#191414" fill-opacity="0.9"/>
<path d="M52.102 70.1924H50.6938V71.5962H52.102V70.1924Z" fill="#191514" fill-opacity="0.9"/>
<path d="M54.9183 60.3655H53.5102V61.7693H54.9183V60.3655Z" fill="#191514" fill-opacity="0.9"/>
<path d="M53.5102 57.5576H52.1021V58.9615H53.5102V57.5576Z" fill="#191414" fill-opacity="0.7"/>
<path d="M52.102 57.5576H50.6938V58.9615H52.102V57.5576Z" fill="#191414" fill-opacity="0.8"/>
<path d="M50.6938 57.5576H49.2856V58.9615H50.6938V57.5576Z" fill="#191413" fill-opacity="0.8"/>
<path d="M49.2856 57.5576H47.8774V58.9615H49.2856V57.5576Z" fill="#2F2D2C" fill-opacity="0.1"/>
<path d="M23.9387 57.5576H22.5305V58.9615H23.9387V57.5576Z" fill="#1B1615" fill-opacity="0.1"/>
<path d="M22.5307 57.5576H21.1226V58.9615H22.5307V57.5576Z" fill="#191414" fill-opacity="0.4"/>
<path d="M21.1225 57.5576H19.7144V58.9615H21.1225V57.5576Z" fill="#1A1514" fill-opacity="0.2"/>
<path d="M57.7348 56.1538H56.3267V57.5577H57.7348V56.1538Z" fill="#191414" fill-opacity="0.3"/>
<path d="M56.3266 56.1538H54.9185V57.5577H56.3266V56.1538Z" fill="#191514" fill-opacity="0.9"/>
<path d="M54.9184 56.1538H53.5103V57.5577H54.9184V56.1538Z" fill="#191414" fill-opacity="0.7"/>
<path d="M53.5102 56.1538H52.1021V57.5577H53.5102V56.1538Z" fill="#1A1514" fill-opacity="0.2"/>
<path d="M52.102 56.1538H50.6938V57.5577H52.102V56.1538Z" fill="#191413" fill-opacity="0.6"/>
<path d="M49.2856 56.1538H47.8774V57.5577H49.2856V56.1538Z" fill="#191515" fill-opacity="0.6"/>
<path d="M23.9387 56.1538H22.5305V57.5577H23.9387V56.1538Z" fill="#191414" fill-opacity="0.5"/>
<path d="M22.5307 56.1538H21.1226V57.5577H22.5307V56.1538Z" fill="#191514" fill-opacity="0.9"/>
<path d="M21.1225 56.1538H19.7144V57.5577H21.1225V56.1538Z" fill="#191414" fill-opacity="0.7"/>
<path d="M59.1428 54.75H57.7346V56.1538H59.1428V54.75Z" fill="#1B1615" fill-opacity="0.1"/>
<path d="M57.7348 54.75H56.3267V56.1538H57.7348V54.75Z" fill="#191515" fill-opacity="0.6"/>
<path d="M56.3266 54.75H54.9185V56.1538H56.3266V54.75Z" fill="#191414" fill-opacity="0.9"/>
<path d="M54.9184 54.75H53.5103V56.1538H54.9184V54.75Z" fill="#191414" fill-opacity="0.5"/>
<path d="M52.102 54.75H50.6938V56.1538H52.102V54.75Z" fill="#191414" fill-opacity="0.3"/>
<path d="M49.2856 54.75V56.1538V57.5577H50.6938V56.1538V54.75H49.2856Z" fill="#191414" fill-opacity="0.9"/>
<path d="M49.2856 54.75H47.8774V56.1538H49.2856V54.75Z" fill="#191414" fill-opacity="0.8"/>
<path d="M47.8776 54.75H46.4695V56.1538H47.8776V54.75Z" fill="#191414" fill-opacity="0.3"/>
<path d="M21.1225 54.75H19.7144V56.1538H21.1225V54.75Z" fill="#191414" fill-opacity="0.8"/>
<path d="M60.551 53.3462H59.1428V54.75H60.551V53.3462Z" fill="#191413" fill-opacity="0.2"/>
<path d="M59.1428 53.3462H57.7346V54.75H59.1428V53.3462Z" fill="#191413" fill-opacity="0.6"/>
<path d="M57.7348 53.3462H56.3267V54.75H57.7348V53.3462Z" fill="#191514" fill-opacity="0.9"/>
<path d="M56.3266 53.3462H54.9185V54.75H56.3266V53.3462Z" fill="#191414" fill-opacity="0.7"/>
<path d="M50.6938 53.3462H49.2856V54.75H50.6938V53.3462Z" fill="#191515" fill-opacity="0.6"/>
<path d="M49.2856 53.3462H47.8774V54.75H49.2856V53.3462Z" fill="#191414" fill-opacity="0.9"/>
<path d="M47.8776 53.3462H46.4695V54.75H47.8776V53.3462Z" fill="#191413" fill-opacity="0.6"/>
<path d="M46.4694 53.3462H45.0613V54.75H46.4694V53.3462Z" fill="#191413" fill-opacity="0.2"/>
<path d="M22.5305 53.3462V56.1539H23.9387V53.3462H22.5305Z" fill="#191515" fill-opacity="0.6"/>
<path d="M61.9592 51.9424H60.551V53.3462H61.9592V51.9424Z" fill="#1A1514" fill-opacity="0.2"/>
<path d="M60.551 51.9424H59.1428V53.3462H60.551V51.9424Z" fill="#191414" fill-opacity="0.7"/>
<path d="M59.1428 51.9424H57.7346V53.3462H59.1428V51.9424Z" fill="#191414" fill-opacity="0.9"/>
<path d="M57.7348 51.9424H56.3267V53.3462H57.7348V51.9424Z" fill="#191414" fill-opacity="0.8"/>
<path d="M49.2856 51.9424H47.8774V53.3462H49.2856V51.9424Z" fill="#191413" fill-opacity="0.6"/>
<path d="M47.8776 51.9424H46.4695V53.3462H47.8776V51.9424Z" fill="#191514" fill-opacity="0.9"/>
<path d="M46.4694 51.9424H45.0613V53.3462H46.4694V51.9424Z" fill="#191414" fill-opacity="0.7"/>
<path d="M45.0612 51.9424H43.6531V53.3462H45.0612V51.9424Z" fill="#191414" fill-opacity="0.3"/>
<path d="M23.9387 51.9424H22.5305V53.3462H23.9387V51.9424Z" fill="#191414" fill-opacity="0.7"/>
<path d="M18.3062 51.9424L19.7143 56.1539V54.7501V51.9424H18.3062Z" fill="#848080" fill-opacity="0.2"/>
<path d="M64.7756 50.5386H63.3674V51.9424H64.7756V50.5386Z" fill="#1A1514" fill-opacity="0.2"/>
<path d="M63.3674 50.5386H61.9592V51.9424H63.3674V50.5386Z" fill="#191414" fill-opacity="0.4"/>
<path d="M61.9592 50.5386H60.551V51.9424H61.9592V50.5386Z" fill="#191414" fill-opacity="0.7"/>
<path d="M60.551 50.5386H59.1428V51.9424H60.551V50.5386Z" fill="#191414" fill-opacity="0.9"/>
<path d="M59.1428 50.5386H57.7346V51.9424H59.1428V50.5386Z" fill="#191414" fill-opacity="0.7"/>
<path d="M47.8776 50.5386H46.4695V51.9424H47.8776V50.5386Z" fill="#191413" fill-opacity="0.6"/>
<path d="M46.4694 50.5386H45.0613V51.9424H46.4694V50.5386Z" fill="#191414" fill-opacity="0.9"/>
<path d="M45.0612 50.5386H43.6531V51.9424H45.0612V50.5386Z" fill="#191414" fill-opacity="0.7"/>
<path d="M43.653 50.5386H42.2449V51.9424H43.653V50.5386Z" fill="#191414" fill-opacity="0.4"/>
<path d="M42.2448 50.5386H40.8367V51.9424H42.2448V50.5386Z" fill="#1A1514" fill-opacity="0.2"/>
<path d="M25.3469 50.5386H23.9387V51.9424H25.3469V50.5386Z" fill="#1B1615" fill-opacity="0.1"/>
<path d="M23.9387 50.5386H22.5305V51.9424H23.9387V50.5386Z" fill="#191414" fill-opacity="0.7"/>
<path d="M19.7144 50.5386V51.9424V54.7501H21.1225L19.7144 50.5386Z" fill="#191514" fill-opacity="0.9"/>
<path d="M19.7143 50.5386H18.3062V51.9424H19.7143V50.5386Z" fill="#3D3735" fill-opacity="0.3"/>
<path d="M69 49.1345H67.5918V50.5384H69V49.1345Z" fill="#1A1514" fill-opacity="0.2"/>
<path d="M67.5918 49.1345H66.1836V50.5384H67.5918V49.1345Z" fill="#191515" fill-opacity="0.6"/>
<path d="M66.1836 49.1345H64.7754V50.5384H66.1836V49.1345Z" fill="#191414" fill-opacity="0.7"/>
<path d="M64.7756 49.1345H63.3674V50.5384H64.7756V49.1345Z" fill="#191413" fill-opacity="0.8"/>
<path d="M59.1428 49.1345H57.7346V50.5384H59.1428V49.1345Z" fill="#191413" fill-opacity="0.2"/>
<path d="M47.8776 49.1345H46.4695V50.5384H47.8776V49.1345Z" fill="#1A1514" fill-opacity="0.2"/>
<path d="M46.4694 49.1345H45.0613V50.5384H46.4694V49.1345Z" fill="#191414" fill-opacity="0.7"/>
<path d="M42.2448 49.1345H40.8367V50.5384H42.2448V49.1345Z" fill="#191413" fill-opacity="0.8"/>
<path d="M38.0205 49.1345V50.5384H40.8368V49.1345H38.0205Z" fill="#191414" fill-opacity="0.7"/>
<path d="M38.0205 49.1345H36.6123V50.5384H38.0205V49.1345Z" fill="#191414" fill-opacity="0.5"/>
<path d="M36.6123 49.1345H35.2041V50.5384H36.6123V49.1345Z" fill="#1B1615" fill-opacity="0.1"/>
<path d="M25.3469 49.1345H23.9387V50.5384H25.3469V49.1345Z" fill="#191414" fill-opacity="0.3"/>
<path d="M19.7143 49.1345H18.3062V50.5384H19.7143V49.1345Z" fill="#191414" fill-opacity="0.5"/>
<path d="M69 47.7307H67.5918V49.1346H69V47.7307Z" fill="#191515" fill-opacity="0.6"/>
<path d="M60.551 47.7307V50.5384H61.9592L63.3674 49.1346H64.7755H66.1837H67.5918V47.7307H66.1837H63.3674H61.9592H60.551Z" fill="#191414" fill-opacity="0.9"/>
<path d="M63.3674 49.1345H61.9592V50.5384H63.3674V49.1345Z" fill="#191514" fill-opacity="0.9"/>
<path d="M59.1428 47.7307V49.1346V50.5384H60.551V47.7307H59.1428Z" fill="#191414" fill-opacity="0.5"/>
<path d="M59.1428 47.7307H57.7346V49.1346H59.1428V47.7307Z" fill="#1B1615" fill-opacity="0.1"/>
<path d="M38.0205 47.7307V49.1346H40.8368H42.245L43.6532 50.5384H45.0613V49.1346V47.7307H43.6532H42.245H38.0205Z" fill="#191414" fill-opacity="0.9"/>
<path d="M43.653 49.1345H42.2449V50.5384H43.653V49.1345Z" fill="#191514" fill-opacity="0.9"/>
<path d="M38.0205 47.7307H36.6123V49.1346H38.0205V47.7307Z" fill="#191414" fill-opacity="0.8"/>
<path d="M36.6123 47.7307H35.2041V49.1346H36.6123V47.7307Z" fill="#1A1514" fill-opacity="0.2"/>
<path d="M25.3469 47.7307H23.9387V49.1346H25.3469V47.7307Z" fill="#191414" fill-opacity="0.4"/>
<path d="M69 46.3269H67.5918V47.7308H69V46.3269Z" fill="#1A1514" fill-opacity="0.2"/>
<path d="M67.5918 46.3269H66.1836V47.7308H67.5918V46.3269Z" fill="#191414" fill-opacity="0.5"/>
<path d="M63.3674 46.3269V47.7308H66.1838V46.3269H63.3674Z" fill="#191515" fill-opacity="0.6"/>
<path d="M63.3674 46.3269H61.9592V47.7308H63.3674V46.3269Z" fill="#191413" fill-opacity="0.6"/>
<path d="M61.9592 46.3269H60.551V47.7308H61.9592V46.3269Z" fill="#191414" fill-opacity="0.7"/>
<path d="M60.551 46.3269H59.1428V47.7308H60.551V46.3269Z" fill="#191414" fill-opacity="0.7"/>
<path d="M59.1428 46.3269H57.7346V47.7308H59.1428V46.3269Z" fill="#191515" fill-opacity="0.6"/>
<path d="M57.7348 46.3269H56.3267V47.7308H57.7348V46.3269Z" fill="#191414" fill-opacity="0.3"/>
<path d="M50.6938 46.3269H49.2856V47.7308H50.6938V46.3269Z" fill="#191413" fill-opacity="0.2"/>
<path d="M49.2856 46.3269H47.8774V47.7308H49.2856V46.3269Z" fill="#191515" fill-opacity="0.6"/>
<path d="M45.0613 46.3269V47.7308V49.1346H46.4694L47.8776 47.7308V46.3269H46.4694H45.0613Z" fill="#191413" fill-opacity="0.8"/>
<path d="M47.8776 47.7307H46.4695V49.1346H47.8776V47.7307Z" fill="#191414" fill-opacity="0.3"/>
<path d="M45.0612 46.3269H43.6531V47.7308H45.0612V46.3269Z" fill="#191414" fill-opacity="0.7"/>
<path d="M43.653 46.3269H42.2449V47.7308H43.653V46.3269Z" fill="#191414" fill-opacity="0.5"/>
<path d="M42.245 46.3269L36.6123 47.7308H38.0205H42.245V46.3269Z" fill="#191414" fill-opacity="0.4"/>
<path d="M25.3469 46.3269H23.9387V47.7308H25.3469V46.3269Z" fill="#191413" fill-opacity="0.6"/>
<path d="M18.3062 46.3269V49.1346H19.7143V46.3269H18.3062Z" fill="#191414" fill-opacity="0.7"/>
<path d="M63.3674 44.9231H61.9592V46.3269H63.3674V44.9231Z" fill="#1B1615" fill-opacity="0.1"/>
<path d="M61.9592 44.9231H60.551V46.3269H61.9592V44.9231Z" fill="#1A1514" fill-opacity="0.2"/>
<path d="M60.551 44.9231H59.1428V46.3269H60.551V44.9231Z" fill="#191414" fill-opacity="0.3"/>
<path d="M59.1428 44.9231H57.7346V46.3269H59.1428V44.9231Z" fill="#191413" fill-opacity="0.6"/>
<path d="M57.7348 44.9231H56.3267V46.3269H57.7348V44.9231Z" fill="#191414" fill-opacity="0.7"/>
<path d="M56.3266 44.9231H54.9185V46.3269H56.3266V44.9231Z" fill="#191414" fill-opacity="0.5"/>
<path d="M52.102 44.9231H50.6938V46.3269H52.102V44.9231Z" fill="#1B1615" fill-opacity="0.1"/>
<path d="M50.6938 44.9231H49.2856V46.3269H50.6938V44.9231Z" fill="#191413" fill-opacity="0.6"/>
<path d="M49.2856 44.9231H47.8774V46.3269H49.2856V44.9231Z" fill="#191514" fill-opacity="0.9"/>
<path d="M47.8776 44.9231H46.4695V46.3269H47.8776V44.9231Z" fill="#191414" fill-opacity="0.7"/>
<path d="M46.4694 44.9231H45.0613V46.3269H46.4694V44.9231Z" fill="#191414" fill-opacity="0.3"/>
<path d="M45.0612 44.9231H43.6531V46.3269H45.0612V44.9231Z" fill="#191413" fill-opacity="0.2"/>
<path d="M25.3469 44.9231H23.9387V46.3269H25.3469V44.9231Z" fill="#191413" fill-opacity="0.8"/>
<path d="M22.5307 44.9231L21.1225 46.3269H19.7144V49.1346V50.5385L21.1225 54.75V56.1539H22.5307V53.3462V51.9423V50.5385L23.9388 49.1346V47.7308V46.3269V44.9231H22.5307Z" fill="#191414" fill-opacity="0.9"/>
<path d="M23.9387 49.1345H22.5305V50.5384H23.9387V49.1345Z" fill="#191514" fill-opacity="0.9"/>
<path d="M22.5307 44.9231H21.1226V46.3269H22.5307V44.9231Z" fill="#191414" fill-opacity="0.7"/>
<path d="M21.1225 44.9231H19.7144V46.3269H21.1225V44.9231Z" fill="#191514" fill-opacity="0.9"/>
<path d="M19.7143 44.9231H18.3062V46.3269H19.7143V44.9231Z" fill="#191414" fill-opacity="0.7"/>
<path d="M59.1428 43.5193H57.7346V44.9231H59.1428V43.5193Z" fill="#191414" fill-opacity="0.3"/>
<path d="M54.9185 43.5193V44.9231H56.3266H57.7348V43.5193H56.3266H54.9185Z" fill="#191413" fill-opacity="0.8"/>
<path d="M54.9184 43.5193H53.5103V44.9231H54.9184V43.5193Z" fill="#191414" fill-opacity="0.3"/>
<path d="M49.2856 43.5193H47.8774V44.9231H49.2856V43.5193Z" fill="#191413" fill-opacity="0.8"/>
<path d="M47.8776 43.5193H46.4695V44.9231H47.8776V43.5193Z" fill="#191414" fill-opacity="0.3"/>
<path d="M26.7551 43.5193H25.3469V44.9231H26.7551V43.5193Z" fill="#1A1514" fill-opacity="0.2"/>
<path d="M23.9387 43.5193H22.5305V44.9231H23.9387V43.5193Z" fill="#191413" fill-opacity="0.8"/>
<path d="M22.5307 43.5193H21.1226V44.9231H22.5307V43.5193Z" fill="#191414" fill-opacity="0.4"/>
<path d="M21.1225 43.5193H19.7144V44.9231H21.1225V43.5193Z" fill="#191414" fill-opacity="0.8"/>
<path d="M19.7143 43.5193H18.3062V44.9231H19.7143V43.5193Z" fill="#191413" fill-opacity="0.8"/>
<path d="M57.7348 42.1155H56.3267V43.5193H57.7348V42.1155Z" fill="#191414" fill-opacity="0.5"/>
<path d="M56.3266 42.1155H54.9185V43.5193H56.3266V42.1155Z" fill="#191514" fill-opacity="0.9"/>
<path d="M54.9184 42.1155H53.5103V43.5193H54.9184V42.1155Z" fill="#191413" fill-opacity="0.6"/>
<path d="M54.9184 53.3462H53.5103V54.75H54.9184V53.3462Z" fill="#2F2D2C" fill-opacity="0.1"/>
<path d="M52.102 53.3462H50.6938V54.75H52.102V53.3462Z" fill="#1B1615" fill-opacity="0.1"/>
<path d="M56.3266 51.9424H54.9185V53.3462H56.3266V51.9424Z" fill="#191414" fill-opacity="0.3"/>
<path d="M50.6938 51.9424H49.2856V53.3462H50.6938V51.9424Z" fill="#191413" fill-opacity="0.2"/>
<path d="M57.7348 50.5386H56.3267V51.9424H57.7348V50.5386Z" fill="#191414" fill-opacity="0.4"/>
<path d="M49.2856 50.5386H47.8774V51.9424H49.2856V50.5386Z" fill="#1A1514" fill-opacity="0.2"/>
<path d="M50.6938 42.1155V44.9232H52.102V42.1155H50.6938Z" fill="#191414" fill-opacity="0.3"/>
<path d="M49.2856 42.1155H47.8774V43.5193H49.2856V42.1155Z" fill="#191515" fill-opacity="0.6"/>
<path d="M26.7551 42.1155H25.3469V43.5193H26.7551V42.1155Z" fill="#191414" fill-opacity="0.4"/>
<path d="M23.9387 42.1155H22.5305V43.5193H23.9387V42.1155Z" fill="#191413" fill-opacity="0.6"/>
<path d="M22.5307 42.1155H21.1226V43.5193H22.5307V42.1155Z" fill="#1B1615" fill-opacity="0.1"/>
<path d="M21.1225 42.1155H19.7144V43.5193H21.1225V42.1155Z" fill="#191414" fill-opacity="0.7"/>
<path d="M19.7143 42.1155H18.3062V43.5193H19.7143V42.1155Z" fill="#191414" fill-opacity="0.8"/>
<path d="M18.3061 42.1155H16.8979V43.5193H18.3061V42.1155Z" fill="#2F2D2C" fill-opacity="0.1"/>
<path d="M57.7348 40.7114H56.3267V42.1153H57.7348V40.7114Z" fill="#2F2D2C" fill-opacity="0.1"/>
<path d="M56.3266 40.7114H54.9185V42.1153H56.3266V40.7114Z" fill="#191413" fill-opacity="0.6"/>
<path d="M54.9184 40.7114H53.5103V42.1153H54.9184V40.7114Z" fill="#191413" fill-opacity="0.8"/>
<path d="M53.5102 40.7114H52.1021V42.1153H53.5102V40.7114Z" fill="#191414" fill-opacity="0.4"/>
<path d="M52.102 40.7114H50.6938V42.1153H52.102V40.7114Z" fill="#191413" fill-opacity="0.6"/>
<path d="M49.2856 40.7114V42.1153V43.5191V44.923H50.6938V42.1153V40.7114H49.2856Z" fill="#191514" fill-opacity="0.9"/>
<path d="M49.2856 40.7114H47.8774V42.1153H49.2856V40.7114Z" fill="#1A1514" fill-opacity="0.2"/>
<path d="M26.7551 40.7114H25.3469V42.1153H26.7551V40.7114Z" fill="#191515" fill-opacity="0.6"/>
<path d="M23.9387 40.7114V42.1153V43.5191V44.923H25.3469V43.5191V42.1153V40.7114H23.9387Z" fill="#191414" fill-opacity="0.9"/>
<path d="M23.9387 40.7114H22.5305V42.1153H23.9387V40.7114Z" fill="#191414" fill-opacity="0.5"/>
<path d="M21.1225 40.7114H19.7144V42.1153H21.1225V40.7114Z" fill="#191515" fill-opacity="0.6"/>
<path d="M19.7143 40.7114H18.3062V42.1153H19.7143V40.7114Z" fill="#191514" fill-opacity="0.9"/>
<path d="M18.3061 40.7114H16.8979V42.1153H18.3061V40.7114Z" fill="#191414" fill-opacity="0.3"/>
<path d="M56.3266 39.3076H54.9185V40.7115H56.3266V39.3076Z" fill="#191414" fill-opacity="0.3"/>
<path d="M52.1021 39.3076V40.7115H53.5102H54.9184V39.3076H53.5102H52.1021Z" fill="#191414" fill-opacity="0.8"/>
<path d="M52.102 39.3076H50.6938V40.7115H52.102V39.3076Z" fill="#191514" fill-opacity="0.9"/>
<path d="M50.6938 39.3076H49.2856V40.7115H50.6938V39.3076Z" fill="#191414" fill-opacity="0.8"/>
<path d="M28.1633 39.3076H26.7551V40.7115H28.1633V39.3076Z" fill="#1B1615" fill-opacity="0.1"/>
<path d="M26.7551 39.3076H25.3469V40.7115H26.7551V39.3076Z" fill="#191414" fill-opacity="0.7"/>
<path d="M25.3469 39.3076H23.9387V40.7115H25.3469V39.3076Z" fill="#191414" fill-opacity="0.8"/>
<path d="M19.7143 39.3076H18.3062V40.7115H19.7143V39.3076Z" fill="#191414" fill-opacity="0.7"/>
<path d="M18.3061 39.3076H16.8979V40.7115H18.3061V39.3076Z" fill="#191414" fill-opacity="0.7"/>
<path d="M54.9184 37.9038H53.5103V39.3077H54.9184V37.9038Z" fill="#191413" fill-opacity="0.8"/>
<path d="M50.6938 37.9038H49.2856V39.3077H50.6938V37.9038Z" fill="#191414" fill-opacity="0.7"/>
<path d="M28.1633 37.9038H26.7551V39.3077H28.1633V37.9038Z" fill="#191414" fill-opacity="0.3"/>
<path d="M25.3469 37.9038H23.9387V39.3077H25.3469V37.9038Z" fill="#191413" fill-opacity="0.6"/>
<path d="M19.7143 37.9038H18.3062V39.3077H19.7143V37.9038Z" fill="#191413" fill-opacity="0.6"/>
<path d="M16.8979 37.9038H15.4897V39.3077H16.8979V37.9038Z" fill="#191414" fill-opacity="0.4"/>
<path d="M54.9184 36.5H53.5103V37.9038H54.9184V36.5Z" fill="#191413" fill-opacity="0.6"/>
<path d="M50.6938 36.5H49.2856V37.9038H50.6938V36.5Z" fill="#191413" fill-opacity="0.6"/>
<path d="M29.5715 36.5H28.1633V37.9038H29.5715V36.5Z" fill="#1B1615" fill-opacity="0.1"/>
<path d="M28.1633 36.5H26.7551V37.9038H28.1633V36.5Z" fill="#191414" fill-opacity="0.7"/>
<path d="M25.3469 36.5V37.9038V39.3077H26.7551V37.9038V36.5H25.3469Z" fill="#191514" fill-opacity="0.9"/>
<path d="M19.7143 36.5H18.3062V37.9038H19.7143V36.5Z" fill="#191414" fill-opacity="0.3"/>
<path d="M16.8979 36.5V37.9038V39.3077H18.3061V37.9038V36.5H16.8979Z" fill="#191514" fill-opacity="0.9"/>
<path d="M16.8979 36.5H15.4897V37.9038H16.8979V36.5Z" fill="#191414" fill-opacity="0.7"/>
<path d="M15.4897 36.5H14.0815V37.9038H15.4897V36.5Z" fill="#2F2D2C" fill-opacity="0.1"/>
<path d="M50.6938 35.0962H49.2856V36.5H50.6938V35.0962Z" fill="#191414" fill-opacity="0.5"/>
<path d="M29.5715 35.0962H28.1633V36.5H29.5715V35.0962Z" fill="#191414" fill-opacity="0.4"/>
<path d="M28.1633 35.0962H26.7551V36.5H28.1633V35.0962Z" fill="#191514" fill-opacity="0.9"/>
<path d="M26.7551 35.0962H25.3469V36.5H26.7551V35.0962Z" fill="#191414" fill-opacity="0.8"/>
<path d="M18.3061 35.0962H16.8979V36.5H18.3061V35.0962Z" fill="#191414" fill-opacity="0.7"/>
<path d="M16.8979 35.0962H15.4897V36.5H16.8979V35.0962Z" fill="#191514" fill-opacity="0.9"/>
<path d="M15.4897 35.0962H14.0815V36.5H15.4897V35.0962Z" fill="#191414" fill-opacity="0.4"/>
<path d="M50.6938 33.6924H49.2856V35.0962H50.6938V33.6924Z" fill="#191414" fill-opacity="0.4"/>
<path d="M30.9797 33.6924H29.5715V35.0962H30.9797V33.6924Z" fill="#1B1615" fill-opacity="0.1"/>
<path d="M29.5715 33.6924H28.1633V35.0962H29.5715V33.6924Z" fill="#191414" fill-opacity="0.7"/>
<path d="M28.1633 33.6924H26.7551V35.0962H28.1633V33.6924Z" fill="#191414" fill-opacity="0.9"/>
<path d="M26.7551 33.6924H25.3469V35.0962H26.7551V33.6924Z" fill="#191413" fill-opacity="0.6"/>
<path d="M16.8979 33.6924H15.4897V35.0962H16.8979V33.6924Z" fill="#191413" fill-opacity="0.8"/>
<path d="M15.4897 33.6924H14.0815V35.0962H15.4897V33.6924Z" fill="#191414" fill-opacity="0.7"/>
<path d="M14.0817 33.6924H12.6736V35.0962H14.0817V33.6924Z" fill="#1A1514" fill-opacity="0.2"/>
<path d="M50.6938 32.2886V33.6924V35.0963L52.102 32.2886H50.6938Z" fill="#191514" fill-opacity="0.9"/>
<path d="M50.6938 32.2886H49.2856V33.6924H50.6938V32.2886Z" fill="#3D3735" fill-opacity="0.3"/>
<path d="M30.9797 32.2886H29.5715V33.6924H30.9797V32.2886Z" fill="#191414" fill-opacity="0.4"/>
<path d="M29.5715 32.2886H28.1633V33.6924H29.5715V32.2886Z" fill="#191514" fill-opacity="0.9"/>
<path d="M28.1633 32.2886H26.7551V33.6924H28.1633V32.2886Z" fill="#191413" fill-opacity="0.8"/>
<path d="M15.4897 32.2886H14.0815V33.6924H15.4897V32.2886Z" fill="#191413" fill-opacity="0.8"/>
<path d="M14.0817 32.2886H12.6736V33.6924H14.0817V32.2886Z" fill="#191414" fill-opacity="0.7"/>
<path d="M12.6735 32.2886H11.2654V33.6924H12.6735V32.2886Z" fill="#191414" fill-opacity="0.5"/>
<path d="M11.2653 32.2886H9.85718V33.6924H11.2653V32.2886Z" fill="#1B1615" fill-opacity="0.1"/>
<path d="M52.102 30.8845V32.2884L50.6938 35.0961V36.4999V37.9038V39.3076H52.102H53.5102V37.9038V36.4999V30.8845H52.102Z" fill="#191414" fill-opacity="0.9"/>
<path d="M52.102 30.8845H50.6938V32.2884H52.102V30.8845Z" fill="#191413" fill-opacity="0.8"/>
<path d="M50.6938 30.8845H49.2856V32.2884H50.6938V30.8845Z" fill="#848080" fill-opacity="0.2"/>
<path d="M33.7959 30.8845H32.3877V32.2884H33.7959V30.8845Z" fill="#191413" fill-opacity="0.2"/>
<path d="M32.3877 30.8845H30.9795V32.2884H32.3877V30.8845Z" fill="#191414" fill-opacity="0.5"/>
<path d="M30.9797 30.8845H29.5715V32.2884H30.9797V30.8845Z" fill="#191414" fill-opacity="0.8"/>
<path d="M29.5715 30.8845H28.1633V32.2884H29.5715V30.8845Z" fill="#191414" fill-opacity="0.7"/>
<path d="M14.0817 30.8845H12.6736V32.2884H14.0817V30.8845Z" fill="#191514" fill-opacity="0.9"/>
<path d="M12.6735 30.8845H11.2654V32.2884H12.6735V30.8845Z" fill="#191414" fill-opacity="0.8"/>
<path d="M11.2653 30.8845H9.85718V32.2884H11.2653V30.8845Z" fill="#191413" fill-opacity="0.6"/>
<path d="M9.85714 30.8845H8.44897V32.2884H9.85714V30.8845Z" fill="#2F2D2C" fill-opacity="0.1"/>
<path d="M53.5103 29.4807V30.8846V36.4999H54.9184L53.5103 29.4807Z" fill="#191414" fill-opacity="0.3"/>
<path d="M53.5102 29.4807H52.1021V30.8846H53.5102V29.4807Z" fill="#191514" fill-opacity="0.9"/>
<path d="M52.102 29.4807H50.6938V30.8846H52.102V29.4807Z" fill="#191414" fill-opacity="0.7"/>
<path d="M38.0205 29.4807H36.6123V30.8846H38.0205V29.4807Z" fill="#2F2D2C" fill-opacity="0.1"/>
<path d="M36.6123 29.4807H35.2041V30.8846H36.6123V29.4807Z" fill="#1A1514" fill-opacity="0.2"/>
<path d="M35.2041 29.4807H33.7959V30.8846H35.2041V29.4807Z" fill="#191414" fill-opacity="0.4"/>
<path d="M33.7959 29.4807H32.3877V30.8846H33.7959V29.4807Z" fill="#191414" fill-opacity="0.7"/>
<path d="M32.3877 29.4807H30.9795V30.8846H32.3877V29.4807Z" fill="#191414" fill-opacity="0.8"/>
<path d="M30.9797 29.4807H29.5715V30.8846H30.9797V29.4807Z" fill="#191414" fill-opacity="0.7"/>
<path d="M12.6735 29.4807H11.2654V30.8846H12.6735V29.4807Z" fill="#191414" fill-opacity="0.7"/>
<path d="M11.2653 29.4807H9.85718V30.8846H11.2653V29.4807Z" fill="#191413" fill-opacity="0.8"/>
<path d="M9.85714 29.4807H8.44897V30.8846H9.85714V29.4807Z" fill="#191414" fill-opacity="0.7"/>
<path d="M8.44893 29.4807H7.04077V30.8846H8.44893V29.4807Z" fill="#191414" fill-opacity="0.5"/>
<path d="M7.04073 29.4807H5.63257V30.8846H7.04073V29.4807Z" fill="#1A1514" fill-opacity="0.2"/>
<path d="M5.63277 29.4807H4.22461V30.8846H5.63277V29.4807Z" fill="#2F2D2C" fill-opacity="0.1"/>
<path d="M4.22457 29.4807H2.81641V30.8846H4.22457V29.4807Z" fill="#191413" fill-opacity="0.2"/>
<path d="M53.5102 28.0769H52.1021V29.4808H53.5102V28.0769Z" fill="#191414" fill-opacity="0.4"/>
<path d="M52.102 28.0769H50.6938V29.4808H52.102V28.0769Z" fill="#191414" fill-opacity="0.3"/>
<path d="M43.653 28.0769H42.2449V29.4808H43.653V28.0769Z" fill="#1A1514" fill-opacity="0.2"/>
<path d="M42.2448 28.0769H40.8367V29.4808H42.2448V28.0769Z" fill="#191414" fill-opacity="0.3"/>
<path d="M40.8366 28.0769H39.4285V29.4808H40.8366V28.0769Z" fill="#191414" fill-opacity="0.4"/>
<path d="M39.4287 28.0769H38.0205V29.4808H39.4287V28.0769Z" fill="#191414" fill-opacity="0.5"/>
<path d="M38.0205 28.0769H36.6123V29.4808H38.0205V28.0769Z" fill="#191414" fill-opacity="0.7"/>
<path d="M36.6123 28.0769H35.2041V29.4808H36.6123V28.0769Z" fill="#191413" fill-opacity="0.8"/>
<path d="M33.7959 28.0769H32.3877V29.4808H33.7959V28.0769Z" fill="#191413" fill-opacity="0.8"/>
<path d="M32.3877 28.0769H30.9795V29.4808H32.3877V28.0769Z" fill="#191414" fill-opacity="0.4"/>
<path d="M12.6735 28.0769H11.2654V29.4808H12.6735V28.0769Z" fill="#191413" fill-opacity="0.2"/>
<path d="M9.85714 28.0769H8.44897V29.4808H9.85714V28.0769Z" fill="#191413" fill-opacity="0.8"/>
<path d="M8.44893 28.0769H7.04077V29.4808H8.44893V28.0769Z" fill="#191514" fill-opacity="0.9"/>
<path d="M7.04073 28.0769H5.63257V29.4808H7.04073V28.0769Z" fill="#191414" fill-opacity="0.8"/>
<path d="M2.81641 28.0769V29.4808H4.22457H5.63273V28.0769H2.81641Z" fill="#191414" fill-opacity="0.7"/>
<path d="M2.81637 28.0769H1.4082V29.4808H2.81637V28.0769Z" fill="#191414" fill-opacity="0.7"/>
<path d="M1.40816 28.0769H0V29.4808H1.40816V28.0769Z" fill="#1A1514" fill-opacity="0.2"/>
<path d="M45.0612 26.6731H43.6531V28.0769H45.0612V26.6731Z" fill="#191414" fill-opacity="0.4"/>
<path d="M33.7959 26.6731H32.3877V28.0769H33.7959V26.6731Z" fill="#191414" fill-opacity="0.4"/>
<path d="M12.6735 26.6731H11.2654V28.0769H12.6735V26.6731Z" fill="#1B1615" fill-opacity="0.1"/>
<path d="M9.85718 26.6731V28.0769V29.4808H11.2653V28.0769V26.6731H9.85718Z" fill="#191414" fill-opacity="0.4"/>
<path d="M9.85714 26.6731H8.44897V28.0769H9.85714V26.6731Z" fill="#191514" fill-opacity="0.9"/>
<path d="M2.81641 26.6731V28.0769H5.63273H7.0409H8.44906V26.6731H7.0409H5.63273H4.22457H2.81641Z" fill="#191414" fill-opacity="0.9"/>
<path d="M2.81637 26.6731H1.4082V28.0769H2.81637V26.6731Z" fill="#191514" fill-opacity="0.9"/>
<path d="M1.40816 26.6731H0V28.0769H1.40816V26.6731Z" fill="#191414" fill-opacity="0.5"/>
<path d="M45.0612 25.2693H43.6531V26.6731H45.0612V25.2693Z" fill="#191414" fill-opacity="0.3"/>
<path d="M42.2449 25.2693V26.6731V28.077H43.653V26.6731V25.2693H42.2449Z" fill="#191413" fill-opacity="0.8"/>
<path d="M36.6123 25.2693L38.0205 28.077H39.4286H40.8368L42.245 26.6731V25.2693H38.0205H36.6123Z" fill="#191514" fill-opacity="0.9"/>
<path d="M42.2448 26.6731H40.8367V28.0769H42.2448V26.6731Z" fill="#191414" fill-opacity="0.8"/>
<path d="M35.2041 25.2693V28.077H36.6123H38.0204L36.6123 25.2693H35.2041Z" fill="#191414" fill-opacity="0.9"/>
<path d="M33.7959 25.2693V26.6731V28.077V29.4808H35.2041V28.077V25.2693H33.7959Z" fill="#191514" fill-opacity="0.9"/>
<path d="M33.7959 25.2693H32.3877V26.6731H33.7959V25.2693Z" fill="#191515" fill-opacity="0.6"/>
<path d="M32.3877 25.2693H30.9795V26.6731H32.3877V25.2693Z" fill="#584B4F" fill-opacity="0.2"/>
<path d="M15.4897 25.2693H14.0815V26.6731H15.4897V25.2693Z" fill="#191413" fill-opacity="0.2"/>
<path d="M14.0817 25.2693H12.6736V26.6731H14.0817V25.2693Z" fill="#191414" fill-opacity="0.5"/>
<path d="M12.6735 25.2693H11.2654V26.6731H12.6735V25.2693Z" fill="#191414" fill-opacity="0.7"/>
<path d="M11.2653 25.2693H9.85718V26.6731H11.2653V25.2693Z" fill="#191413" fill-opacity="0.8"/>
<path d="M9.85714 25.2693H8.44897V26.6731H9.85714V25.2693Z" fill="#191414" fill-opacity="0.8"/>
<path d="M8.44893 25.2693H7.04077V26.6731H8.44893V25.2693Z" fill="#191413" fill-opacity="0.8"/>
<path d="M7.04073 25.2693H5.63257V26.6731H7.04073V25.2693Z" fill="#191414" fill-opacity="0.7"/>
<path d="M5.63277 25.2693H4.22461V26.6731H5.63277V25.2693Z" fill="#191413" fill-opacity="0.6"/>
<path d="M4.22457 25.2693H2.81641V26.6731H4.22457V25.2693Z" fill="#191515" fill-opacity="0.6"/>
<path d="M2.81637 25.2693H1.4082V26.6731H2.81637V25.2693Z" fill="#191414" fill-opacity="0.5"/>
<path d="M1.40816 25.2693H0V26.6731H1.40816V25.2693Z" fill="#1A1514" fill-opacity="0.2"/>
<path d="M38.0205 23.8655V25.2693H42.245H43.6532L38.0205 23.8655Z" fill="#191414" fill-opacity="0.3"/>
<path d="M38.0205 23.8655H36.6123V25.2693H38.0205V23.8655Z" fill="#191414" fill-opacity="0.4"/>
<path d="M36.6123 23.8655H35.2041V25.2693H36.6123V23.8655Z" fill="#191515" fill-opacity="0.6"/>
<path d="M32.3877 23.8655V25.2693H33.7959H35.204V23.8655H33.7959H32.3877Z" fill="#191414" fill-opacity="0.8"/>
<path d="M30.9797 23.8655H29.5715V25.2693H30.9797V23.8655Z" fill="#191414" fill-opacity="0.5"/>
<path d="M29.5715 23.8655H28.1633V25.2693H29.5715V23.8655Z" fill="#1A1514" fill-opacity="0.2"/>
<path d="M16.8979 23.8655H15.4897V25.2693H16.8979V23.8655Z" fill="#191413" fill-opacity="0.2"/>
<path d="M15.4897 23.8655H14.0815V25.2693H15.4897V23.8655Z" fill="#191414" fill-opacity="0.7"/>
<path d="M14.0817 23.8655H12.6736V25.2693H14.0817V23.8655Z" fill="#191414" fill-opacity="0.8"/>
<path d="M12.6735 23.8655H11.2654V25.2693H12.6735V23.8655Z" fill="#191414" fill-opacity="0.7"/>
<path d="M11.2653 23.8655H9.85718V25.2693H11.2653V23.8655Z" fill="#191414" fill-opacity="0.5"/>
<path d="M9.85714 23.8655H8.44897V25.2693H9.85714V23.8655Z" fill="#191414" fill-opacity="0.3"/>
<path d="M8.44893 23.8655H7.04077V25.2693H8.44893V23.8655Z" fill="#1A1514" fill-opacity="0.2"/>
<path d="M7.04073 23.8655H5.63257V25.2693H7.04073V23.8655Z" fill="#191413" fill-opacity="0.2"/>
<path d="M5.63277 23.8655H4.22461V25.2693H5.63277V23.8655Z" fill="#1B1615" fill-opacity="0.1"/>
<path d="M35.2041 22.4614H33.7959V23.8653H35.2041V22.4614Z" fill="#191414" fill-opacity="0.3"/>
<path d="M33.7959 22.4614H32.3877V23.8653H33.7959V22.4614Z" fill="#191414" fill-opacity="0.5"/>
<path d="M30.9795 22.4614V23.8653V25.2691H32.3877V23.8653V22.4614H30.9795Z" fill="#191414" fill-opacity="0.7"/>
<path d="M30.9797 22.4614H29.5715V23.8653H30.9797V22.4614Z" fill="#191413" fill-opacity="0.8"/>
<path d="M29.5715 22.4614H28.1633V23.8653H29.5715V22.4614Z" fill="#191414" fill-opacity="0.7"/>
<path d="M28.1633 22.4614H26.7551V23.8653H28.1633V22.4614Z" fill="#191414" fill-opacity="0.4"/>
<path d="M26.7551 22.4614H25.3469V23.8653H26.7551V22.4614Z" fill="#191413" fill-opacity="0.2"/>
<path d="M18.3061 22.4614H16.8979V23.8653H18.3061V22.4614Z" fill="#1A1514" fill-opacity="0.2"/>
<path d="M16.8979 22.4614H15.4897V23.8653H16.8979V22.4614Z" fill="#191414" fill-opacity="0.7"/>
<path d="M15.4897 22.4614H14.0815V23.8653H15.4897V22.4614Z" fill="#191414" fill-opacity="0.8"/>
<path d="M14.0817 22.4614H12.6736V23.8653H14.0817V22.4614Z" fill="#191413" fill-opacity="0.6"/>
<path d="M12.6735 22.4614H11.2654V23.8653H12.6735V22.4614Z" fill="#1A1514" fill-opacity="0.2"/>
<path d="M32.3877 21.0576H30.9795V22.4615H32.3877V21.0576Z" fill="#1A1514" fill-opacity="0.2"/>
<path d="M30.9797 21.0576H29.5715V22.4615H30.9797V21.0576Z" fill="#191414" fill-opacity="0.4"/>
<path d="M29.5715 21.0576H28.1633V22.4615H29.5715V21.0576Z" fill="#191413" fill-opacity="0.6"/>
<path d="M28.1633 21.0576H26.7551V22.4615H28.1633V21.0576Z" fill="#191413" fill-opacity="0.8"/>
<path d="M26.7551 21.0576H25.3469V22.4615H26.7551V21.0576Z" fill="#191413" fill-opacity="0.6"/>
<path d="M18.3061 21.0576H16.8979V22.4615H18.3061V21.0576Z" fill="#191413" fill-opacity="0.6"/>
<path d="M16.8979 21.0576H15.4897V22.4615H16.8979V21.0576Z" fill="#191514" fill-opacity="0.9"/>
<path d="M15.4897 21.0576H14.0815V22.4615H15.4897V21.0576Z" fill="#191515" fill-opacity="0.6"/>
<path d="M14.0817 21.0576H12.6736V22.4615H14.0817V21.0576Z" fill="#1B1615" fill-opacity="0.1"/>
<path d="M29.5715 19.6538H28.1633V21.0577H29.5715V19.6538Z" fill="#191413" fill-opacity="0.2"/>
<path d="M28.1633 19.6538H26.7551V21.0577H28.1633V19.6538Z" fill="#191515" fill-opacity="0.6"/>
<path d="M26.7551 19.6538H25.3469V21.0577H26.7551V19.6538Z" fill="#191413" fill-opacity="0.8"/>
<path d="M25.3469 19.6538H23.9387V21.0577H25.3469V19.6538Z" fill="#191414" fill-opacity="0.4"/>
<path d="M19.7143 19.6538H18.3062V21.0577H19.7143V19.6538Z" fill="#1A1514" fill-opacity="0.2"/>
<path d="M18.3061 19.6538H16.8979V21.0577H18.3061V19.6538Z" fill="#191414" fill-opacity="0.8"/>
<path d="M16.8979 19.6538H15.4897V21.0577H16.8979V19.6538Z" fill="#191413" fill-opacity="0.8"/>
<path d="M15.4897 19.6538H14.0815V21.0577H15.4897V19.6538Z" fill="#191413" fill-opacity="0.2"/>
<path d="M28.1633 18.25H26.7551V19.6538H28.1633V18.25Z" fill="#191413" fill-opacity="0.2"/>
<path d="M26.7551 18.25H25.3469V19.6538H26.7551V18.25Z" fill="#191413" fill-opacity="0.6"/>
<path d="M25.3469 18.25H23.9387V19.6538H25.3469V18.25Z" fill="#191413" fill-opacity="0.8"/>
<path d="M23.9387 18.25H22.5305V19.6538H23.9387V18.25Z" fill="#1A1514" fill-opacity="0.2"/>
<path d="M21.1225 18.25H19.7144V19.6538H21.1225V18.25Z" fill="#191413" fill-opacity="0.2"/>
<path d="M19.7143 18.25H18.3062V19.6538H19.7143V18.25Z" fill="#191414" fill-opacity="0.7"/>
<path d="M18.3061 18.25H16.8979V19.6538H18.3061V18.25Z" fill="#191514" fill-opacity="0.9"/>
<path d="M16.8979 18.25H15.4897V19.6538H16.8979V18.25Z" fill="#191414" fill-opacity="0.5"/>
<path d="M26.7551 16.8462H25.3469V18.25H26.7551V16.8462Z" fill="#191414" fill-opacity="0.3"/>
<path d="M23.9387 16.8462H22.5305V18.25H23.9387V16.8462Z" fill="#191413" fill-opacity="0.6"/>
<path d="M23.9388 39.3076H22.5307V40.7115H23.9388V39.3076Z" fill="#1A1514" fill-opacity="0.2"/>
<path d="M21.1225 39.3076H19.7144V40.7115H21.1225V39.3076Z" fill="#1A1514" fill-opacity="0.2"/>
<path d="M25.3469 36.5H23.9387V37.9038H25.3469V36.5Z" fill="#191414" fill-opacity="0.3"/>
<path d="M19.7143 35.0962H18.3062V36.5H19.7143V35.0962Z" fill="#1B1615" fill-opacity="0.1"/>
<path d="M18.3061 33.6924H16.8979V35.0962H18.3061V33.6924Z" fill="#191414" fill-opacity="0.3"/>
<path d="M26.7551 32.2886H25.3469V33.6924H26.7551V32.2886Z" fill="#1A1514" fill-opacity="0.2"/>
<path d="M16.8979 32.2886H15.4897V33.6924H16.8979V32.2886Z" fill="#191414" fill-opacity="0.4"/>
<path d="M28.1633 30.8845H26.7551V32.2884H28.1633V30.8845Z" fill="#1A1514" fill-opacity="0.2"/>
<path d="M15.4897 30.8845H14.0815V32.2884H15.4897V30.8845Z" fill="#191414" fill-opacity="0.5"/>
<path d="M29.5715 29.4807H28.1633V30.8846H29.5715V29.4807Z" fill="#191414" fill-opacity="0.3"/>
<path d="M14.0817 29.4807H12.6736V30.8846H14.0817V29.4807Z" fill="#191414" fill-opacity="0.4"/>
<path d="M30.9797 28.0769H29.5715V29.4808H30.9797V28.0769Z" fill="#191413" fill-opacity="0.2"/>
<path d="M18.3061 16.8462H16.8979V18.25H18.3061V16.8462Z" fill="#191414" fill-opacity="0.7"/>
<path d="M16.8979 16.8462H15.4897V18.25H16.8979V16.8462Z" fill="#191413" fill-opacity="0.2"/>
<path d="M26.7551 15.4424H25.3469V16.8462H26.7551V15.4424Z" fill="#191413" fill-opacity="0.2"/>
<path d="M23.9387 15.4424V16.8462V18.2501H25.3469V16.8462V15.4424H23.9387Z" fill="#191514" fill-opacity="0.9"/>
<path d="M23.9387 15.4424H22.5305V16.8462H23.9387V15.4424Z" fill="#191414" fill-opacity="0.8"/>
<path d="M18.3061 15.4424H16.8979V16.8462H18.3061V15.4424Z" fill="#191414" fill-opacity="0.4"/>
<path d="M25.3469 14.0386H23.9387V15.4424H25.3469V14.0386Z" fill="#191413" fill-opacity="0.8"/>
<path d="M19.7143 14.0386H18.3062V15.4424H19.7143V14.0386Z" fill="#191413" fill-opacity="0.6"/>
<path d="M25.3469 12.6345H23.9387V14.0384H25.3469V12.6345Z" fill="#191414" fill-opacity="0.5"/>
<path d="M19.7143 12.6345V14.0384L18.3062 15.4422V16.8461V18.2499H19.7143L21.1225 16.8461L22.5306 15.4422L21.1225 12.6345H19.7143Z" fill="#191514" fill-opacity="0.9"/>
<path d="M21.1225 16.8462H19.7144V18.25H21.1225V16.8462Z" fill="#191515" fill-opacity="0.6"/>
<path d="M22.5307 15.4424H21.1226V16.8462H22.5307V15.4424Z" fill="#191413" fill-opacity="0.6"/>
<path d="M19.7143 12.6345H18.3062V14.0384H19.7143V12.6345Z" fill="#3D3735" fill-opacity="0.3"/>
<path d="M25.3469 11.2307H23.9387V12.6346H25.3469V11.2307Z" fill="#191414" fill-opacity="0.3"/>
<path d="M23.9387 11.2307H22.5305V12.6346H23.9387V11.2307Z" fill="#191514" fill-opacity="0.9"/>
<path d="M21.1225 11.2307H19.7144V12.6346H21.1225V11.2307Z" fill="#191413" fill-opacity="0.8"/>
<path d="M25.3469 9.8269H23.9387V11.2308H25.3469V9.8269Z" fill="#3D3735" fill-opacity="0.3"/>
<path d="M21.1226 9.8269V11.2308V12.6346L22.5307 15.4423H23.9389V14.0384V12.6346L22.5307 11.2308V9.8269H21.1226Z" fill="#191414" fill-opacity="0.9"/>
<path d="M21.1225 9.8269H19.7144V11.2308H21.1225V9.8269Z" fill="#191413" fill-opacity="0.6"/>
<path d="M25.3469 8.4231H23.9387V9.82694H25.3469V8.4231Z" fill="#584B4F" fill-opacity="0.2"/>
<path d="M21.1225 8.4231H19.7144V9.82694H21.1225V8.4231Z" fill="#191414" fill-opacity="0.4"/>
<path d="M22.5305 7.01929V9.82698V11.2308H23.9387V9.82698V8.42313V7.01929H22.5305Z" fill="#191414" fill-opacity="0.8"/>
<path d="M21.1226 7.01929V8.42313V9.82698H22.5307V7.01929H21.1226Z" fill="#191514" fill-opacity="0.9"/>
<path d="M21.1225 7.01929H19.7144V8.42313H21.1225V7.01929Z" fill="#2F2D2C" fill-opacity="0.1"/>
<path d="M23.9387 5.61548V7.01932V8.42317H25.3469V5.61548H23.9387Z" fill="#1A1514" fill-opacity="0.2"/>
<path d="M25.3469 4.21143H23.9387V5.61527H25.3469V4.21143Z" fill="#191414" fill-opacity="0.3"/>
<path d="M21.1225 4.21143L19.7144 7.01912H21.1225V4.21143Z" fill="#B7B1B1" fill-opacity="0.1"/>
<path d="M25.3469 2.80762H23.9387V4.21146H25.3469V2.80762Z" fill="#191414" fill-opacity="0.4"/>
<path d="M25.3469 1.40381H23.9387V2.80765H25.3469V1.40381Z" fill="#191414" fill-opacity="0.3"/>
<path d="M22.5305 1.40381V7.01919H23.9387V5.61535V4.2115V2.80765V1.40381H22.5305Z" fill="#191514" fill-opacity="0.9"/>
<path d="M21.1226 1.40381V4.2115V7.01919H22.5307V1.40381H21.1226Z" fill="#191414" fill-opacity="0.8"/>
<path d="M25.3469 0H23.9387V1.40385H25.3469V0Z" fill="#191413" fill-opacity="0.2"/>
<path d="M23.9387 0H22.5305V1.40385H23.9387V0Z" fill="#191413" fill-opacity="0.6"/>
<path d="M22.5307 0H21.1226V1.40385H22.5307V0Z" fill="#191515" fill-opacity="0.6"/>
</svg>
