<svg width="337" height="194" viewBox="0 0 337 194" fill="none" xmlns="http://www.w3.org/2000/svg">
<path d="M281.112 106.216L280.93 107.008L281.719 106.813C285.102 105.979 288.635 105.529 292.274 105.529C316.537 105.529 336.207 125.198 336.207 149.461C336.207 173.725 316.537 193.395 292.274 193.395H58.2255C26.3443 193.395 0.5 167.55 0.5 135.669C0.5 103.788 26.345 77.9436 58.2255 77.9436H58.7255V77.4436C58.7255 34.9491 93.1746 0.5 135.669 0.5C171.467 0.5 201.554 24.9473 210.148 58.0579L210.327 58.7481L210.915 58.3445C218.495 53.1401 227.476 50.3603 236.671 50.3732H236.671C261.86 50.3732 282.28 70.7929 282.28 95.9814C282.277 99.4259 281.886 102.859 281.112 106.216Z" stroke="black"/>
</svg>
