<svg width="360" height="253" viewBox="0 0 360 253" fill="none" xmlns="http://www.w3.org/2000/svg">
<path d="M303.443 110.188L303.335 110.673L303.82 110.784C320.946 114.687 336.036 124.757 346.212 139.075C356.388 153.392 360.938 170.955 358.993 188.412C357.049 205.869 348.746 222 335.669 233.727C322.591 245.455 305.655 251.958 288.09 251.996H90.0907H90.0901C67.895 252.019 46.4834 243.793 30.0118 228.917C13.5402 214.04 3.18391 193.574 0.953325 171.491C-1.27726 149.408 4.77702 127.284 17.9409 109.414C31.1047 91.5443 50.4389 79.203 72.1902 74.7863L72.5907 74.705V74.2963V72.4963V72.4957C72.5794 63.0641 75.0617 53.7971 79.786 45.634C84.5102 37.4709 91.3085 30.7017 99.4919 26.0126C107.675 21.3234 116.953 18.881 126.384 18.9328C135.816 18.9845 145.066 21.5287 153.197 26.3074L153.529 26.5021L153.802 26.232C166.362 13.8214 182.325 5.42072 199.667 2.09523C217.008 -1.23026 234.946 0.669317 251.206 7.55304C267.466 14.4368 281.316 25.9945 290.998 40.7604C300.68 55.5263 305.759 72.8351 305.591 90.4915V90.4963C305.591 97.2999 304.875 103.744 303.443 110.188Z" stroke="black"/>
</svg>
