<svg width="283" height="221" viewBox="0 0 283 221" fill="none" xmlns="http://www.w3.org/2000/svg">
<path d="M248.472 101.928L248.361 102.318L248.72 102.507C260.999 108.976 270.758 119.371 276.438 132.034C282.118 144.697 283.393 158.898 280.058 172.37C276.724 185.843 268.972 197.81 258.041 206.361C247.11 214.913 233.629 219.556 219.75 219.55H71.0749C52.5296 219.55 34.7439 212.183 21.6305 199.07C8.51698 185.956 1.14991 168.17 1.14991 149.625C1.14464 134.992 5.73004 120.726 14.2602 108.837C22.7904 96.9477 34.8355 88.0341 48.6989 83.3516L49.1019 83.2155L49.0321 82.7959C46.3616 66.7261 49.3854 50.2282 57.5817 36.1502C65.778 22.0722 78.6323 11.2976 93.9256 5.68649C109.219 0.0753831 125.991 -0.0201053 141.348 5.41651C156.704 10.8531 169.68 21.4806 178.036 35.4644L178.244 35.812L178.627 35.6811C188.011 32.4746 198.093 31.8972 207.782 34.0115C217.47 36.1257 226.395 40.851 233.59 47.6753C240.785 54.4996 245.976 63.1627 248.599 72.726C251.222 82.2893 251.178 92.3882 248.472 101.928Z" stroke="black"/>
</svg>
