<?xml version="1.0" standalone="no"?>
<!DOCTYPE svg PUBLIC "-//W3C//DTD SVG 20010904//EN"
 "http://www.w3.org/TR/2001/REC-SVG-20010904/DTD/svg10.dtd">
<svg version="1.0" xmlns="http://www.w3.org/2000/svg"
 width="71.000000pt" height="62.000000pt" viewBox="0 0 71.000000 62.000000"
 preserveAspectRatio="xMidYMid meet">

<g transform="translate(0.000000,62.000000) scale(0.100000,-0.100000)"
fill="#000000" stroke="none">
<path d="M540 602 c-49 -32 -366 -271 -389 -293 l-24 -23 47 -41 c42 -36 46
-43 32 -54 -9 -8 -16 -17 -16 -22 0 -15 22 -10 43 8 18 17 20 16 45 -14 15
-17 35 -43 45 -57 22 -32 44 -33 57 -3 91 222 164 392 184 428 36 66 41 89 19
88 -10 0 -29 -7 -43 -17z m-66 -94 c-17 -18 -48 -55 -69 -83 -72 -93 -158
-185 -171 -185 -7 0 -25 10 -40 23 l-26 23 93 72 c52 39 126 96 164 126 39 30
72 55 74 55 3 1 -9 -14 -25 -31z m-32 -188 c-48 -110 -89 -200 -92 -200 -3 0
-20 21 -39 45 -30 40 -32 47 -20 64 80 111 225 291 235 291 1 0 -37 -90 -84
-200z"/>
</g>
</svg>
