<?xml version="1.0" standalone="no"?>
<!DOCTYPE svg PUBLIC "-//W3C//DTD SVG 20010904//EN"
 "http://www.w3.org/TR/2001/REC-SVG-20010904/DTD/svg10.dtd">
<svg version="1.0" xmlns="http://www.w3.org/2000/svg"
 width="122.000000pt" height="114.000000pt" viewBox="0 0 122.000000 114.000000"
 preserveAspectRatio="xMidYMid meet">

<g transform="translate(0.000000,114.000000) scale(0.100000,-0.100000)"
fill="#000000" stroke="none">
<path d="M325 893 c9 -70 16 -93 27 -93 6 0 7 7 4 16 -3 9 -9 40 -12 70 -4 30
-11 54 -16 54 -6 0 -7 -20 -3 -47z"/>
<path d="M410 876 c0 -31 4 -56 9 -56 11 0 11 99 -1 106 -4 3 -8 -20 -8 -50z"/>
<path d="M506 911 c-11 -17 -24 -101 -16 -101 10 0 34 99 27 106 -3 3 -8 1
-11 -5z"/>
<path d="M560 845 c-13 -27 -26 -53 -28 -57 -2 -5 1 -8 6 -8 13 0 55 86 50
102 -3 7 -15 -9 -28 -37z"/>
<path d="M734 758 c-16 -12 -32 -28 -37 -35 -4 -6 -14 -19 -23 -27 -35 -35
-73 -167 -74 -253 0 -29 4 -53 9 -53 5 0 10 24 10 53 0 59 14 131 36 185 38
89 133 163 170 132 21 -18 18 -37 -15 -105 -31 -64 -30 -86 1 -45 11 14 27 33
34 43 19 22 93 24 101 2 12 -30 -8 -71 -57 -117 -51 -47 -162 -108 -198 -108
-11 0 -23 -5 -27 -12 -11 -18 56 -3 117 26 73 34 165 117 179 162 10 28 9 39
-4 58 -16 25 -65 38 -90 24 -13 -8 -16 -2 -16 35 0 32 -5 47 -16 51 -31 12
-72 6 -100 -16z"/>
<path d="M339 662 c-20 -18 -35 -45 -44 -79 -12 -47 -11 -62 6 -145 30 -138
30 -138 44 -138 14 0 130 111 167 161 25 34 46 97 42 127 -1 6 -2 21 -3 31 -2
35 -29 52 -70 45 -27 -4 -40 -2 -50 10 -20 24 -57 19 -92 -12z m91 -12 c7 -14
8 -26 0 -39 -15 -29 -13 -71 4 -71 16 0 26 21 26 59 0 31 16 51 42 51 37 0 47
-72 19 -144 -12 -29 -147 -176 -162 -176 -15 0 -28 36 -45 124 -14 69 -15 93
-6 125 23 74 97 118 122 71z"/>
</g>
</svg>
