<?xml version="1.0" standalone="no"?>
<!DOCTYPE svg PUBLIC "-//W3C//DTD SVG 20010904//EN"
 "http://www.w3.org/TR/2001/REC-SVG-20010904/DTD/svg10.dtd">
<svg version="1.0" xmlns="http://www.w3.org/2000/svg"
 width="107.000000pt" height="87.000000pt" viewBox="0 0 107.000000 87.000000"
 preserveAspectRatio="xMidYMid meet">

<g transform="translate(0.000000,87.000000) scale(0.100000,-0.100000)"
fill="#000000" stroke="none">
<path d="M804 849 c-39 -11 -80 -52 -95 -94 -11 -30 -14 -32 -40 -23 -59 21
-151 -29 -200 -109 -37 -59 -25 -148 36 -297 5 -11 -33 15 -84 57 -99 82 -190
141 -233 152 -45 11 -33 1 45 -39 40 -20 84 -47 98 -59 13 -12 47 -40 74 -62
28 -22 71 -62 97 -89 26 -27 50 -47 53 -45 2 3 -7 28 -20 57 -35 75 -75 207
-75 246 0 76 103 176 180 176 41 0 49 -5 73 -42 20 -32 35 -36 44 -11 4 10 -2
23 -15 34 -26 21 -27 30 -7 70 18 34 70 69 103 69 13 0 20 4 17 10 -7 11 -9
11 -51 -1z"/>
<path d="M260 583 c0 -5 15 -14 34 -21 18 -7 41 -21 51 -32 21 -24 37 -26 29
-5 -10 26 -114 79 -114 58z"/>
<path d="M345 255 c61 -13 81 -11 55 5 -8 6 -37 9 -65 9 l-50 -1 60 -13z"/>
<path d="M345 104 c-75 -38 -139 -83 -131 -91 2 -3 25 9 50 26 25 18 75 45
111 61 36 16 65 32 65 35 0 12 -29 2 -95 -31z"/>
</g>
</svg>
