<svg width="71" height="62" viewBox="0 0 71 62" fill="none" xmlns="http://www.w3.org/2000/svg">
<path d="M39 11.5C9.79999 33.3 9.79999 33.2 17.1 38.4C20.8 41 21 41.4 19.6 42.9C16.2 46.6 19.4 48.7 23.2 45.3C24.2 44.4 25.1 43.9 25.3 44.1C28.6 48.7 34.5 55 35.6 55C36.9 55 38.3 52.5 42.3 43C51.5 21.2 55.3 12.8 57.4 9C60.9 2.9 60.8 -8.19564e-07 57.2 -8.19564e-07C55.3 -8.19564e-07 50 3.4 39 11.5ZM47.4 11.2C45.7 13 42.6 16.7 40.5 19.5C33.3 28.8 24.7 38 23.4 38C22.7 38 20.9 37 19.4 35.7L16.7 33.4L33.1 20.8C42.1 13.9 49.7 8.1 49.9 8.1C50.2 8 49 9.5 47.4 11.2ZM50.2 15.7C48.6 18.9 46 24.6 44.5 28.5C42.3 34.3 36.6 46.2 35.3 48C35.1 48.2 33.3 46.7 31.4 44.6C28.4 41.3 28.1 40.5 29.2 39C36.3 29.1 51.8 10 52.6 10C52.8 10 51.7 12.6 50.2 15.7Z" fill="black"/>
</svg>
