<svg width="55" height="67" viewBox="0 0 55 67" fill="none" xmlns="http://www.w3.org/2000/svg">
<path fill-rule="evenodd" clip-rule="evenodd" d="M9.70581 16.2096L10.7842 14.0483H16.1764V18.3709L15.098 19.4516V27.0161L12.9411 29.1774H11.8627V20.5322L10.7842 19.4516V18.3709L9.70581 17.2903V16.2096ZM51.7646 15.129H52.8431V18.3709H51.7646V15.129ZM21.5686 18.3709L22.647 17.2903H23.7254L24.8038 18.3709V19.4516L23.7254 20.5322H22.647L18.3333 24.8548H16.1764V22.6935L17.2548 21.6129V18.3709H21.5686ZM29.1176 18.3709H30.196V19.4516H29.1176V18.3709ZM30.196 19.4516H31.2744V20.5322H30.196V19.4516ZM24.8038 20.5322H29.1176L30.196 21.6129H31.2744L34.5097 24.8548H35.5882L37.745 27.0161V28.0967L38.8235 29.1774V38.9032L36.6666 41.0645H35.5882L31.2744 45.387H30.196L28.0391 47.5483H26.9607L25.8823 46.4677H24.8038L21.5686 43.2258H20.4901L16.1764 38.9032V28.0967L21.5686 22.6935H22.647L24.8038 20.5322ZM35.5882 21.6129L36.6666 20.5322H37.745V24.8548H36.6666L34.5097 22.6935V21.6129H35.5882ZM39.9019 36.7419L40.9803 29.1774L42.0588 30.258V35.6612L40.9803 36.7419H39.9019ZM12.9411 30.258H14.0195V36.7419H12.9411L10.7842 34.5806V32.4193L12.9411 30.258ZM12.9411 38.9032H14.0195V39.9838L15.098 41.0645V48.629H14.0195V46.4677L12.9411 45.387V38.9032ZM16.1764 45.387V41.0645H17.2548L21.5686 45.387H22.647L24.8038 47.5483H25.8823V48.629H24.8038L22.647 50.7903H21.5686L20.4901 51.8709H18.3333L17.2548 50.7903V46.4677L16.1764 45.387ZM35.5882 43.2258L36.6666 42.1451L37.745 43.2258V48.629L36.6666 49.7096V51.8709H34.5097L33.4313 50.7903H32.3529L31.2744 49.7096H30.196L29.1176 48.629V47.5483L30.196 46.4677H31.2744L34.5097 43.2258H35.5882ZM15.098 49.7096H16.1764V50.7903H15.098V49.7096ZM24.8038 50.7903L25.8823 49.7096H28.0391L29.1176 50.7903H30.196L31.2744 51.8709H32.3529L33.4313 52.9516H35.5882V56.1935L34.5097 57.2741V58.3548L33.4313 59.4354V60.5161L32.3529 61.5967V62.6774L31.2744 63.758H30.196L29.1176 64.8387H25.8823L24.8038 63.758H23.7254L22.647 62.6774V59.4354L20.4901 57.2741H19.4117V56.1935L18.3333 55.1129V54.0322L19.4117 52.9516H20.4901L21.5686 51.8709H22.647L23.7254 50.7903H24.8038Z" fill="#FAFAFA"/>
<path d="M25.8824 1.08057H24.8039V2.16121H25.8824V1.08057Z" fill="#2B292A"/>
<path d="M31.2745 1.08057H30.1961V2.16121H31.2745V1.08057Z" fill="#2B292A"/>
<path d="M33.4314 4.3225V6.48379V7.56444L34.5098 8.64508H35.5882V7.56444V6.48379V5.40315V4.3225H34.5098H33.4314Z" fill="#2B292A"/>
<path d="M9.70588 9.72573L8.62745 10.8064V11.887L9.70588 12.9677H10.7843H11.8627H12.9412H14.0196V11.887L12.9412 10.8064L11.8627 9.72573H10.7843H9.70588Z" fill="#2B292A"/>
<path d="M19.4118 9.72573H18.3333V10.8064H19.4118V9.72573Z" fill="#2B292A"/>
<path d="M5.39216 10.8064H4.31373V11.887H5.39216V10.8064Z" fill="#2B292A"/>
<path d="M43.1373 10.8064H42.0588V11.887H43.1373V10.8064Z" fill="#2B292A"/>
<path d="M49.6078 10.8064H50.6863V11.887H51.7647V12.9677H52.8431V14.0483H53.9216V15.129H52.8431V14.0483H51.7647V12.9677H50.6863V11.887H49.6078V10.8064Z" fill="#2B292A"/>
<path d="M17.2549 11.887L16.1765 12.9677V14.0483L17.2549 15.129H18.3333H19.4118V14.0483L18.3333 12.9677V11.887H17.2549Z" fill="#2B292A"/>
<path d="M35.5882 12.9677V11.887H36.6667L37.7451 12.9677V11.887H38.8235H39.902V12.9677H38.8235H37.7451V14.0483H36.6667H35.5882V12.9677Z" fill="#2B292A"/>
<path d="M34.5098 14.0483H33.4314V15.129H34.5098V14.0483Z" fill="#2B292A"/>
<path d="M21.5686 15.129H20.4902V16.2096H21.5686V15.129Z" fill="#2B292A"/>
<path d="M32.3529 15.129H31.2745V16.2096H32.3529V15.129Z" fill="#2B292A"/>
<path d="M16.1765 16.2096V18.3709H17.2549V17.2902V16.2096H16.1765Z" fill="#2B292A"/>
<path d="M23.7255 16.2096H22.6471V17.2902H23.7255V16.2096Z" fill="#2B292A"/>
<path d="M36.6667 16.2096V18.3709H37.7451V17.2902V16.2096H36.6667Z" fill="#2B292A"/>
<path d="M0 17.2902V19.4515H1.07843V17.2902H0Z" fill="#2B292A"/>
<path d="M24.8039 17.2902H25.8824V18.3709H28.0392V17.2902H29.1176V18.3709H28.0392V19.4515H25.8824V20.5322H24.8039V19.4515H25.8824V18.3709H24.8039V17.2902Z" fill="#2B292A"/>
<path d="M51.7647 20.5322V19.4515H52.8431H53.9216H55V21.6128L53.9216 22.6935L52.8431 23.7741H51.7647V24.8548H50.6863V23.7741H51.7647V22.6935V21.6128V20.5322Z" fill="#2B292A"/>
<path d="M31.2745 20.5322H30.1961V21.6128H31.2745V20.5322Z" fill="#2B292A"/>
<path d="M37.7451 20.5322V22.6935H38.8235V20.5322H37.7451Z" fill="#2B292A"/>
<path d="M2.15686 21.6128H1.07843V22.6935H2.15686V21.6128Z" fill="#2B292A"/>
<path d="M3.23529 23.7741H2.15686V24.8548H3.23529V23.7741Z" fill="#2B292A"/>
<path d="M15.098 27.0161V23.7741H16.1765V24.8548L17.2549 25.9354V24.8548H18.3333V25.9354H17.2549V27.0161L16.1765 28.0967H15.098V29.1773H14.0196V28.0967H15.098V27.0161Z" fill="#2B292A"/>
<path d="M35.5882 23.7741H34.5098V24.8548H35.5882V23.7741Z" fill="#2B292A"/>
<path d="M36.6667 24.8548H37.7451V25.9354H38.8235V27.0161H39.902L40.9804 28.0967V29.1773H42.0588V30.258H43.1373V31.3386H44.2157V32.4193H45.2941V33.4999H44.2157V34.5806H43.1373V35.6612H42.0588V34.5806H43.1373V33.4999H44.2157V32.4193H43.1373V31.3386H42.0588V30.258H40.9804V29.1773L39.902 36.7419V37.8225V38.9031V39.9838H38.8235V38.9031V29.1773V28.0967V27.0161H37.7451V25.9354H36.6667V24.8548Z" fill="#2B292A"/>
<path d="M4.31373 25.9354H3.23529V27.0161H4.31373V25.9354Z" fill="#2B292A"/>
<path d="M7.54902 30.258H6.47059V31.3386H7.54902V30.258Z" fill="#2B292A"/>
<path d="M11.8627 30.258H10.7843V31.3386H11.8627V30.258Z" fill="#2B292A"/>
<path d="M9.70588 32.4193H8.62745V33.4999H9.70588V32.4193Z" fill="#2B292A"/>
<path d="M47.451 34.5806H46.3725V35.6612H47.451V34.5806Z" fill="#2B292A"/>
<path d="M6.47059 35.6612H7.54902V36.7419H6.47059V37.8225V39.9838V41.0644H5.39216L4.31373 42.1451H3.23529V41.0644V38.9031L4.31373 37.8225V36.7419H5.39216H6.47059V35.6612Z" fill="#2B292A"/>
<path d="M14.0196 37.8225H15.098V38.9031H16.1765V39.9838V41.0644V45.387H15.098V41.0644V39.9838V38.9031H14.0196V37.8225Z" fill="#2B292A"/>
<path d="M50.6863 38.9031H49.6078V39.9838H50.6863V38.9031Z" fill="#2B292A"/>
<path d="M35.5882 41.0644H36.6667V42.1451H35.5882V43.2257H34.5098V42.1451H35.5882V41.0644Z" fill="#2B292A"/>
<path d="M3.23529 43.2257H2.15686V44.3064H3.23529V43.2257Z" fill="#2B292A"/>
<path d="M20.4902 43.2257H21.5686V44.3064H22.6471V45.387H21.5686V44.3064H20.4902V43.2257Z" fill="#2B292A"/>
<path d="M1.07843 45.387V47.5483V48.629H2.15686V47.5483V46.4677V45.387H1.07843Z" fill="#2B292A"/>
<path d="M31.2745 45.387H30.1961V46.4677H31.2745V45.387Z" fill="#2B292A"/>
<path d="M24.8039 46.4677H25.8824V47.5483H26.9608H28.0392V48.629H29.1176V49.7096H28.0392V48.629H26.9608H25.8824V47.5483H24.8039V46.4677Z" fill="#2B292A"/>
<path d="M37.7451 46.4677V48.629H38.8235V46.4677H37.7451Z" fill="#2B292A"/>
<path d="M1.07843 50.7902V51.8709V52.9515H2.15686V51.8709V50.7902H1.07843Z" fill="#2B292A"/>
<path d="M22.6471 50.7902H21.5686V51.8709H22.6471V50.7902Z" fill="#2B292A"/>
<path d="M36.6667 51.8709V52.9515V54.0322H37.7451V52.9515V51.8709H36.6667Z" fill="#2B292A"/>
<path d="M17.2549 52.9515V54.0322V55.1128H18.3333V54.0322V52.9515H17.2549Z" fill="#2B292A"/>
<path d="M4.31373 54.0322H3.23529V55.1128H4.31373V54.0322Z" fill="#2B292A"/>
<path d="M40.9804 54.0322V55.1128H42.0588H43.1373V54.0322H42.0588H40.9804Z" fill="#2B292A"/>
<path d="M44.2157 54.0322V55.1128V56.1935H45.2941H47.451H48.5294V55.1128V54.0322H47.451H45.2941H44.2157Z" fill="#2B292A"/>
<path d="M50.6863 54.0322H49.6078V55.1128H50.6863V54.0322Z" fill="#2B292A"/>
<path d="M5.39216 55.1128V56.1935H7.54902H8.62745H9.70588V55.1128H8.62745H7.54902H6.47059H5.39216Z" fill="#2B292A"/>
<path d="M36.6667 55.1128H35.5882V56.1935H36.6667V55.1128Z" fill="#2B292A"/>
<path d="M19.4118 56.1935H18.3333V57.2741H19.4118V56.1935Z" fill="#2B292A"/>
<path d="M18.3333 58.3548V61.5967H19.4118H20.4902H21.5686V60.5161V59.4354V58.3548H20.4902H19.4118H18.3333Z" fill="#2B292A"/>
<path d="M33.4314 61.5967H32.3529V62.6773H33.4314V61.5967Z" fill="#2B292A"/>
<path d="M31.2745 63.758H30.1961V64.8386H31.2745V63.758Z" fill="#2B292A"/>
<path d="M26.9608 1.08057H25.8824V2.16121H26.9608V1.08057Z" fill="#2C2A2B" fill-opacity="0.8"/>
<path d="M30.1961 1.08057H29.1176V2.16121H30.1961V1.08057Z" fill="#2C2A2B" fill-opacity="0.8"/>
<path d="M22.6471 2.16121H23.7255V3.24186H22.6471V4.3225H21.5686V5.40315V6.48379H20.4902V7.56444H19.4118V6.48379H20.4902V5.40315V4.3225H21.5686V3.24186H22.6471V2.16121Z" fill="#2C2A2B" fill-opacity="0.8"/>
<path d="M31.2745 2.16121H32.3529V3.24186H33.4314V4.3225H32.3529V3.24186H31.2745V2.16121Z" fill="#2C2A2B" fill-opacity="0.8"/>
<path d="M36.6667 5.40315H35.5882V6.48379H36.6667V5.40315Z" fill="#2C2A2B" fill-opacity="0.8"/>
<path d="M19.4118 8.64508H18.3333V9.72573H19.4118V8.64508Z" fill="#2C2A2B" fill-opacity="0.8"/>
<path d="M35.5882 8.64508H34.5098V9.72573H35.5882V8.64508Z" fill="#2C2A2B" fill-opacity="0.8"/>
<path d="M12.9412 9.72573H11.8627V10.8064H12.9412V9.72573Z" fill="#2C2A2B" fill-opacity="0.8"/>
<path d="M47.451 9.72573H46.3725V10.8064H47.451V9.72573Z" fill="#2C2A2B" fill-opacity="0.8"/>
<path d="M36.6667 10.8064H35.5882V11.887H36.6667V10.8064Z" fill="#2C2A2B" fill-opacity="0.8"/>
<path d="M42.0588 10.8064H40.9804V11.887H42.0588V10.8064Z" fill="#2C2A2B" fill-opacity="0.8"/>
<path d="M44.2157 10.8064H43.1373V11.887H44.2157V10.8064Z" fill="#2C2A2B" fill-opacity="0.8"/>
<path d="M49.6078 10.8064H48.5294V11.887H49.6078V10.8064Z" fill="#2C2A2B" fill-opacity="0.8"/>
<path d="M2.15686 12.9677L3.23529 11.887H4.31373V12.9677L3.23529 14.0483H2.15686V15.129H1.07843V14.0483H2.15686V12.9677Z" fill="#2C2A2B" fill-opacity="0.8"/>
<path d="M36.6667 14.0483V15.129V16.2096H37.7451V14.0483H36.6667Z" fill="#2C2A2B" fill-opacity="0.8"/>
<path d="M1.07843 16.2096H0V17.2902H1.07843V16.2096Z" fill="#2C2A2B" fill-opacity="0.8"/>
<path d="M29.1176 16.2096V17.2902H30.1961H31.2745V16.2096H30.1961H29.1176Z" fill="#2C2A2B" fill-opacity="0.8"/>
<path d="M1.07843 19.4515H0V20.5322H1.07843V19.4515Z" fill="#2C2A2B" fill-opacity="0.8"/>
<path d="M38.8235 19.4515H37.7451V20.5322H38.8235V19.4515Z" fill="#2C2A2B" fill-opacity="0.8"/>
<path d="M4.31373 24.8548H3.23529V25.9354H4.31373V24.8548Z" fill="#2C2A2B" fill-opacity="0.8"/>
<path d="M49.6078 25.9354V24.8548H50.6863V25.9354V27.016H49.6078V28.0967H48.5294V27.016H49.6078V25.9354Z" fill="#2C2A2B" fill-opacity="0.8"/>
<path d="M39.902 25.9354H38.8235V27.016H39.902V25.9354Z" fill="#2C2A2B" fill-opacity="0.8"/>
<path d="M5.39216 27.016H4.31373V28.0967H5.39216V27.016Z" fill="#2C2A2B" fill-opacity="0.8"/>
<path d="M6.47059 29.1773H5.39216V30.258H6.47059V29.1773Z" fill="#2C2A2B" fill-opacity="0.8"/>
<path d="M46.3725 30.258H47.451V31.3386H46.3725V32.4193H45.2941H44.2157V31.3386H45.2941H46.3725V30.258Z" fill="#2C2A2B" fill-opacity="0.8"/>
<path d="M46.3725 33.4999H45.2941V34.5806H46.3725V33.4999Z" fill="#2C2A2B" fill-opacity="0.8"/>
<path d="M11.8627 35.6612H10.7843V36.7419H11.8627V35.6612Z" fill="#2C2A2B" fill-opacity="0.8"/>
<path d="M4.31373 37.8225H3.23529V38.9031H4.31373V37.8225Z" fill="#2C2A2B" fill-opacity="0.8"/>
<path d="M49.6078 37.8225H48.5294V38.9031H49.6078V37.8225Z" fill="#2C2A2B" fill-opacity="0.8"/>
<path d="M38.8235 39.9838V41.0644V43.2257H39.902V39.9838H38.8235Z" fill="#2C2A2B" fill-opacity="0.8"/>
<path d="M51.7647 41.0644H50.6863V42.1451H51.7647V41.0644Z" fill="#2C2A2B" fill-opacity="0.8"/>
<path d="M3.23529 42.1451H2.15686V43.2257H3.23529V42.1451Z" fill="#2C2A2B" fill-opacity="0.8"/>
<path d="M52.8431 43.2257H51.7647V44.3064H52.8431V43.2257Z" fill="#2C2A2B" fill-opacity="0.8"/>
<path d="M52.8431 45.387V47.5483H53.9216V46.4677V45.387H52.8431Z" fill="#2C2A2B" fill-opacity="0.8"/>
<path d="M1.07843 48.629V50.7902H2.15686V48.629H1.07843Z" fill="#2C2A2B" fill-opacity="0.8"/>
<path d="M38.8235 48.629H37.7451V49.7096H38.8235V48.629Z" fill="#2C2A2B" fill-opacity="0.8"/>
<path d="M52.8431 51.8709V50.7902H53.9216V51.8709V52.9515H52.8431V54.0322H51.7647V52.9515H52.8431V51.8709Z" fill="#2C2A2B" fill-opacity="0.8"/>
<path d="M3.23529 52.9515H2.15686V54.0322H3.23529V52.9515Z" fill="#2C2A2B" fill-opacity="0.8"/>
<path d="M38.8235 52.9515H37.7451V54.0322H38.8235V52.9515Z" fill="#2C2A2B" fill-opacity="0.8"/>
<path d="M45.2941 52.9515V54.0322H47.451V52.9515H45.2941Z" fill="#2C2A2B" fill-opacity="0.8"/>
<path d="M11.8627 54.0322H12.9412V55.1128H11.8627V56.1935H10.7843V55.1128H11.8627V54.0322Z" fill="#2C2A2B" fill-opacity="0.8"/>
<path d="M15.098 54.0322H14.0196V55.1128H15.098V54.0322Z" fill="#2C2A2B" fill-opacity="0.8"/>
<path d="M40.9804 54.0322H39.902V55.1128H40.9804V54.0322Z" fill="#2C2A2B" fill-opacity="0.8"/>
<path d="M49.6078 54.0322H48.5294V55.1128H49.6078V54.0322Z" fill="#2C2A2B" fill-opacity="0.8"/>
<path d="M45.2941 56.1935V57.2741H47.451V56.1935H45.2941Z" fill="#2C2A2B" fill-opacity="0.8"/>
<path d="M35.5882 58.3548H34.5098V59.4354H35.5882V58.3548Z" fill="#2C2A2B" fill-opacity="0.8"/>
<path d="M34.5098 60.516H33.4314V61.5967H34.5098V60.516Z" fill="#2C2A2B" fill-opacity="0.8"/>
<path d="M25.8824 64.8386H24.8039V65.9193H25.8824V64.8386Z" fill="#2C2A2B" fill-opacity="0.8"/>
<path d="M30.1961 64.8386H29.1176V65.9193H30.1961V64.8386Z" fill="#2C2A2B" fill-opacity="0.8"/>
<path d="M5.39209 10.8064V11.887H6.47052H8.62738V10.8064H7.54895H5.39209Z" fill="#383838"/>
<path d="M16.1764 12.9677H15.098V14.0483H16.1764V12.9677Z" fill="#383838"/>
<path d="M20.4901 15.129H19.4117V16.2096H20.4901V15.129Z" fill="#383838"/>
<path d="M53.9215 18.3709H52.8431V19.4516H53.9215V18.3709Z" fill="#383838"/>
<path d="M29.1176 19.4516H28.0391V20.5322H29.1176V19.4516Z" fill="#383838"/>
<path d="M22.647 20.5322H23.7254V21.6128H22.647V22.6935H21.5686V21.6128H22.647V20.5322Z" fill="#383838"/>
<path d="M16.1764 22.6935H15.098V23.7741H16.1764V22.6935Z" fill="#383838"/>
<path d="M34.5097 22.6935H33.4313V23.7741H34.5097V22.6935Z" fill="#383838"/>
<path d="M38.8235 22.6935H37.745V23.7741H38.8235V22.6935Z" fill="#383838"/>
<path d="M15.098 28.0967V29.1774V30.258H16.1764V28.0967H15.098Z" fill="#383838"/>
<path d="M12.9411 29.1774H11.8627V30.258H12.9411V29.1774Z" fill="#383838"/>
<path d="M8.62738 31.3387H7.54895V32.4193H8.62738V31.3387Z" fill="#383838"/>
<path d="M8.62738 33.4999V34.5806H9.70582H10.7842V33.4999H9.70582H8.62738Z" fill="#383838"/>
<path d="M14.0195 36.7419H12.9411V37.8225H14.0195V36.7419Z" fill="#383838"/>
<path d="M40.9803 36.7419H39.9019V37.8225H40.9803V36.7419Z" fill="#383838"/>
<path d="M17.2548 39.9838H16.1764V41.0645H17.2548V39.9838Z" fill="#383838"/>
<path d="M34.5097 43.2257H33.4313V44.3064H34.5097V43.2257Z" fill="#383838"/>
<path d="M38.8235 45.387H37.745V46.4677H38.8235V45.387Z" fill="#383838"/>
<path d="M30.196 46.4677H29.1176V47.5483H30.196V46.4677Z" fill="#383838"/>
<path d="M16.1764 49.7096V50.7903V51.8709H17.2548V50.7903V49.7096H16.1764Z" fill="#383838"/>
<path d="M31.2744 49.7096H30.196V50.7903H31.2744V49.7096Z" fill="#383838"/>
<path d="M35.5882 51.8709H34.5097V52.9516H35.5882V51.8709Z" fill="#383838"/>
<path d="M17.2548 52.9516H16.1764V54.0322H17.2548V52.9516Z" fill="#383838"/>
<path d="M14.0195 54.0322H12.9411V55.1128H14.0195V54.0322Z" fill="#383838"/>
<path d="M10.7842 55.1128H9.70582V56.1935H10.7842V55.1128Z" fill="#383838"/>
<path d="M35.5882 57.2741H34.5097V58.3548H35.5882V57.2741Z" fill="#383838"/>
<path d="M22.647 61.5967H21.5686V62.6774H22.647V61.5967Z" fill="#383838"/>
<path d="M24.8039 63.758H23.7254V64.8386H24.8039V63.758Z" fill="#383838"/>
<path d="M37.7451 11.8872H36.6667V12.9679H37.7451V11.8872Z" fill="#959595"/>
<path d="M12.9412 12.9679H11.8628V14.0485H12.9412V12.9679Z" fill="#959595"/>
<path d="M18.3334 15.1291H17.2549V16.2098H18.3334V15.1291Z" fill="#959595"/>
<path d="M25.8824 18.3711H24.804V19.4517H25.8824V18.3711Z" fill="#959595"/>
<path d="M37.7451 18.3711H36.6667V19.4517H37.7451V18.3711Z" fill="#959595"/>
<path d="M17.2549 19.4517H16.1765V20.5324H17.2549V19.4517Z" fill="#959595"/>
<path d="M24.804 20.5324H23.7255V21.613H24.804V20.5324Z" fill="#959595"/>
<path d="M32.353 20.5324H31.2746V21.613H32.353V20.5324Z" fill="#959595"/>
<path d="M33.4314 22.6937H32.353V23.7743H33.4314V22.6937Z" fill="#959595"/>
<path d="M17.2549 24.8549H16.1765V25.9356H17.2549V24.8549Z" fill="#959595"/>
<path d="M37.7451 25.9356H36.6667V27.0162H37.7451V25.9356Z" fill="#959595"/>
<path d="M14.0197 36.742H15.0981V37.8227H14.0197V38.9033H15.0981V39.984H14.0197V38.9033H12.9412V37.8227H14.0197V36.742Z" fill="#959595"/>
<path d="M20.4902 43.2259H19.4118V44.3066H20.4902V43.2259Z" fill="#959595"/>
<path d="M38.8236 43.2259H37.7451V44.3066H38.8236V43.2259Z" fill="#959595"/>
<path d="M24.804 46.4679H23.7255V47.5485H24.804V46.4679Z" fill="#959595"/>
<path d="M15.0981 47.5485V48.6291H16.1765H17.2549V47.5485H16.1765H15.0981Z" fill="#959595"/>
<path d="M28.0393 48.6291H26.9608V49.7098H28.0393V48.6291Z" fill="#959595"/>
<path d="M37.7451 49.7098H36.6667V50.7904H37.7451V49.7098Z" fill="#959595"/>
<path d="M23.7255 50.7904H22.6471V51.8711H23.7255V50.7904Z" fill="#959595"/>
<path d="M21.5687 51.8711H20.4902V52.9517H21.5687V51.8711Z" fill="#959595"/>
<path d="M16.1765 52.9517H15.0981V54.0324H16.1765V52.9517Z" fill="#959595"/>
<path d="M19.4118 52.9517H18.3334V54.0324H19.4118V52.9517Z" fill="#959595"/>
<path d="M22.6471 60.5162H21.5687V61.5969H22.6471V60.5162Z" fill="#959595"/>
<path d="M30.196 2.16138H31.2744V3.24202H32.3529V4.32267H31.2744V3.24202H30.196V2.16138Z" fill="#2D2D2D" fill-opacity="0.3"/>
<path d="M22.647 3.24202H23.7254V4.32267H22.647V5.40331H21.5686V4.32267H22.647V3.24202Z" fill="#2D2D2D" fill-opacity="0.3"/>
<path d="M34.5097 3.24202H33.4313V4.32267H34.5097V3.24202Z" fill="#2D2D2D" fill-opacity="0.3"/>
<path d="M35.5882 7.5646V8.64525V9.72589H36.6666V7.5646H35.5882Z" fill="#2D2D2D" fill-opacity="0.3"/>
<path d="M20.4901 8.64525H19.4117V9.72589H20.4901V8.64525Z" fill="#2D2D2D" fill-opacity="0.3"/>
<path d="M16.1764 11.8872H15.098V12.9678H16.1764V11.8872Z" fill="#2D2D2D" fill-opacity="0.3"/>
<path d="M50.6862 11.8872H49.6078V12.9678H50.6862V11.8872Z" fill="#2D2D2D" fill-opacity="0.3"/>
<path d="M38.8235 12.9678H37.745V14.0485H38.8235V12.9678Z" fill="#2D2D2D" fill-opacity="0.3"/>
<path d="M2.1568 16.2098H1.07837V17.2904H2.1568V16.2098Z" fill="#2D2D2D" fill-opacity="0.3"/>
<path d="M38.8235 17.2904H37.745V18.3711H38.8235V17.2904Z" fill="#2D2D2D" fill-opacity="0.3"/>
<path d="M2.1568 19.4517H1.07837V20.5323H2.1568V19.4517Z" fill="#2D2D2D" fill-opacity="0.3"/>
<path d="M4.31366 27.0162H3.23523V28.0969H4.31366V27.0162Z" fill="#2D2D2D" fill-opacity="0.3"/>
<path d="M49.6078 28.0969H48.5294V29.1775H49.6078V28.0969Z" fill="#2D2D2D" fill-opacity="0.3"/>
<path d="M46.3725 34.5807H45.2941V35.6614H46.3725V34.5807Z" fill="#2D2D2D" fill-opacity="0.3"/>
<path d="M51.7646 42.1452H50.6862V43.2259H51.7646V42.1452Z" fill="#2D2D2D" fill-opacity="0.3"/>
<path d="M39.9019 44.3065H38.8235V45.3872H39.9019V44.3065Z" fill="#2D2D2D" fill-opacity="0.3"/>
<path d="M3.23523 45.3872H2.1568V46.4678H3.23523V45.3872Z" fill="#2D2D2D" fill-opacity="0.3"/>
<path d="M38.8235 50.7904H37.745V51.8711H38.8235V50.7904Z" fill="#2D2D2D" fill-opacity="0.3"/>
<path d="M54.9999 50.7904H53.9215V51.8711H54.9999V50.7904Z" fill="#2D2D2D" fill-opacity="0.3"/>
<path d="M53.9215 52.9517H52.8431V54.0323H53.9215V52.9517Z" fill="#2D2D2D" fill-opacity="0.3"/>
<path d="M6.47053 54.0323H5.39209V55.113H6.47053V54.0323Z" fill="#2D2D2D" fill-opacity="0.3"/>
<path d="M17.2548 54.0323H16.1764V55.113H17.2548V54.0323Z" fill="#2D2D2D" fill-opacity="0.3"/>
<path d="M45.2941 56.1936H44.2156V57.2743H45.2941V56.1936Z" fill="#2D2D2D" fill-opacity="0.3"/>
<path d="M48.5294 56.1936H47.4509V57.2743H48.5294V56.1936Z" fill="#2D2D2D" fill-opacity="0.3"/>
<path d="M35.5882 59.4356H34.5097V60.5162H35.5882V59.4356Z" fill="#2D2D2D" fill-opacity="0.3"/>
<path d="M24.8039 64.8388H23.7254V65.9194H24.8039V64.8388Z" fill="#2D2D2D" fill-opacity="0.3"/>
<path d="M25.8824 0V1.08065H26.9608L28.0392 0H25.8824Z" fill="#2B2A2B" fill-opacity="0.5"/>
<path d="M30.1961 0H29.1176V1.08065H30.1961V0Z" fill="#2B2A2B" fill-opacity="0.5"/>
<path d="M24.8039 2.16129H23.7255V3.24194H24.8039V2.16129Z" fill="#2B2A2B" fill-opacity="0.5"/>
<path d="M33.4314 6.48387H32.3529V7.56452H33.4314V6.48387Z" fill="#2B2A2B" fill-opacity="0.5"/>
<path d="M35.5882 9.72581H34.5098V10.8065H35.5882V9.72581Z" fill="#2B2A2B" fill-opacity="0.5"/>
<path d="M39.902 10.8065H40.9804V11.8871H42.0588V12.9677H40.9804V11.8871H39.902V10.8065Z" fill="#2B2A2B" fill-opacity="0.5"/>
<path d="M1.07843 15.129H0V16.2097H1.07843V15.129Z" fill="#2B2A2B" fill-opacity="0.5"/>
<path d="M22.6471 15.129H21.5686V16.2097H22.6471V15.129Z" fill="#2B2A2B" fill-opacity="0.5"/>
<path d="M1.07843 20.5323H0V21.6129H1.07843V20.5323Z" fill="#2B2A2B" fill-opacity="0.5"/>
<path d="M3.23529 22.6935H2.15686V23.7742H3.23529V22.6935Z" fill="#2B2A2B" fill-opacity="0.5"/>
<path d="M38.8235 23.7742V25.9355H39.902V23.7742H38.8235Z" fill="#2B2A2B" fill-opacity="0.5"/>
<path d="M51.7647 24.8548H50.6863V25.9355H51.7647V24.8548Z" fill="#2B2A2B" fill-opacity="0.5"/>
<path d="M48.5294 29.1774H47.451V30.2581H48.5294V29.1774Z" fill="#2B2A2B" fill-opacity="0.5"/>
<path d="M6.47059 31.3387H7.54902V32.4194H8.62745V33.5V34.5806H7.54902V32.4194H6.47059V31.3387Z" fill="#2B2A2B" fill-opacity="0.5"/>
<path d="M46.3725 32.4194H45.2941V33.5H46.3725V32.4194Z" fill="#2B2A2B" fill-opacity="0.5"/>
<path d="M43.1373 34.5806H44.2157V35.6613H43.1373V36.7419H42.0588V35.6613H43.1373V34.5806Z" fill="#2B2A2B" fill-opacity="0.5"/>
<path d="M46.3725 35.6613H47.451V36.7419H48.5294V37.8226H47.451V36.7419H46.3725V35.6613Z" fill="#2B2A2B" fill-opacity="0.5"/>
<path d="M4.31373 42.1452H3.23529V43.2258H4.31373V42.1452Z" fill="#2B2A2B" fill-opacity="0.5"/>
<path d="M52.8431 44.3064H51.7647V45.3871H52.8431V44.3064Z" fill="#2B2A2B" fill-opacity="0.5"/>
<path d="M53.9216 47.5484L52.8431 48.629V49.7097L53.9216 50.7903H55V47.5484H53.9216Z" fill="#2B2A2B" fill-opacity="0.5"/>
<path d="M38.8235 49.7097H37.7451V50.7903H38.8235V49.7097Z" fill="#2B2A2B" fill-opacity="0.5"/>
<path d="M2.15686 52.9516H1.07843V54.0323H2.15686V52.9516Z" fill="#2B2A2B" fill-opacity="0.5"/>
<path d="M16.1765 54.0323H15.098V55.1129H16.1765V54.0323Z" fill="#2B2A2B" fill-opacity="0.5"/>
<path d="M12.9412 55.1129H11.8627V56.1935H12.9412V55.1129Z" fill="#2B2A2B" fill-opacity="0.5"/>
<path d="M18.3333 55.1129H17.2549V56.1935H18.3333V55.1129Z" fill="#2B2A2B" fill-opacity="0.5"/>
<path d="M20.4902 61.5968H19.4118V62.6774H20.4902V61.5968Z" fill="#2B2A2B" fill-opacity="0.5"/>
<path d="M21.5686 62.6774H22.6471V63.7581H23.7255V64.8387H22.6471V63.7581H21.5686V62.6774Z" fill="#2B2A2B" fill-opacity="0.5"/>
<path d="M32.3529 62.6774H33.4314V63.7581H32.3529V64.8387H31.2745V63.7581H32.3529V62.6774Z" fill="#2B2A2B" fill-opacity="0.5"/>
<path d="M28.0392 0L26.9607 1.08065V2.16129H29.1176V1.08065V0H28.0392Z" fill="#2B2A2A" fill-opacity="0.6"/>
<path d="M24.8039 1.08065H23.7254V2.16129H24.8039V1.08065Z" fill="#2B2A2A" fill-opacity="0.6"/>
<path d="M32.3529 4.32258V6.48387H33.4313V4.32258H32.3529Z" fill="#2B2A2A" fill-opacity="0.6"/>
<path d="M36.6666 6.48387H35.5882V7.56452H36.6666V6.48387Z" fill="#2B2A2A" fill-opacity="0.6"/>
<path d="M20.4901 7.56452H19.4117V8.64516H20.4901V7.56452Z" fill="#2B2A2A" fill-opacity="0.6"/>
<path d="M36.6666 9.72581H35.5882V10.8065H36.6666V9.72581Z" fill="#2B2A2A" fill-opacity="0.6"/>
<path d="M17.2548 10.8065V11.8871H18.3333H19.4117V10.8065H18.3333H17.2548Z" fill="#2B2A2A" fill-opacity="0.6"/>
<path d="M44.2156 10.8065V11.8871H48.5294V10.8065H47.4509H46.3725H44.2156Z" fill="#2B2A2A" fill-opacity="0.6"/>
<path d="M15.098 11.8871H14.0195V12.9677H15.098V11.8871Z" fill="#2B2A2A" fill-opacity="0.6"/>
<path d="M40.9803 11.8871H39.9019V12.9677H40.9803V11.8871Z" fill="#2B2A2A" fill-opacity="0.6"/>
<path d="M34.5097 12.9677V14.0484V15.129H35.5882V14.0484V12.9677H34.5097Z" fill="#2B2A2A" fill-opacity="0.6"/>
<path d="M33.4313 14.0484L32.3529 15.129V16.2097H33.4313V15.129V14.0484Z" fill="#2B2A2A" fill-opacity="0.6"/>
<path d="M2.1568 15.129H1.07837V16.2097H2.1568V15.129Z" fill="#2B2A2A" fill-opacity="0.6"/>
<path d="M53.9215 16.2097V18.371V19.4516H54.9999V16.2097H53.9215Z" fill="#2B2A2A" fill-opacity="0.6"/>
<path d="M25.8823 17.2903V18.371H28.0392V17.2903H25.8823Z" fill="#2B2A2A" fill-opacity="0.6"/>
<path d="M38.8235 18.371H37.745V19.4516H38.8235V18.371Z" fill="#2B2A2A" fill-opacity="0.6"/>
<path d="M2.1568 20.5323H1.07837V21.6129H2.1568V20.5323Z" fill="#2B2A2A" fill-opacity="0.6"/>
<path d="M2.1568 22.6936H1.07837V23.7742H2.1568V22.6936Z" fill="#2B2A2A" fill-opacity="0.6"/>
<path d="M3.23523 24.8548H2.1568V25.9355H3.23523V24.8548Z" fill="#2B2A2A" fill-opacity="0.6"/>
<path d="M4.31366 28.0968L5.39209 29.1774H6.47053L5.39209 28.0968H4.31366Z" fill="#2B2A2A" fill-opacity="0.6"/>
<path d="M48.5294 28.0968H47.4509V29.1774H48.5294V28.0968Z" fill="#2B2A2A" fill-opacity="0.6"/>
<path d="M8.62739 34.5806H7.54896V35.6613H8.62739V34.5806Z" fill="#2B2A2A" fill-opacity="0.6"/>
<path d="M48.5294 35.6613H47.4509V36.7419H48.5294V35.6613Z" fill="#2B2A2A" fill-opacity="0.6"/>
<path d="M40.9803 36.7419H42.0588V37.8226H40.9803V38.9032H39.9019V37.8226H40.9803V36.7419Z" fill="#2B2A2A" fill-opacity="0.6"/>
<path d="M6.47053 37.8226V39.9839H7.54896V37.8226H6.47053Z" fill="#2B2A2A" fill-opacity="0.6"/>
<path d="M49.6078 39.9839L50.6862 41.0645H51.7646L50.6862 39.9839H49.6078Z" fill="#2B2A2A" fill-opacity="0.6"/>
<path d="M52.8431 42.1452H51.7646V43.2258H52.8431V42.1452Z" fill="#2B2A2A" fill-opacity="0.6"/>
<path d="M39.9019 43.2258H38.8235V44.3065H39.9019V43.2258Z" fill="#2B2A2A" fill-opacity="0.6"/>
<path d="M3.23523 44.3065H2.1568V45.3871H3.23523V44.3065Z" fill="#2B2A2A" fill-opacity="0.6"/>
<path d="M53.9215 44.3065H52.8431V45.3871H53.9215V44.3065Z" fill="#2B2A2A" fill-opacity="0.6"/>
<path d="M53.9215 47.5484H52.8431V48.629H53.9215V47.5484Z" fill="#2B2A2A" fill-opacity="0.6"/>
<path d="M38.8235 52.9516V54.0323V55.1129H39.9019V54.0323V52.9516H38.8235Z" fill="#2B2A2A" fill-opacity="0.6"/>
<path d="M50.6862 52.9516V54.0323V55.1129H51.7646V54.0323V52.9516H50.6862Z" fill="#2B2A2A" fill-opacity="0.6"/>
<path d="M3.23523 54.0323H2.1568V55.1129H3.23523V54.0323Z" fill="#2B2A2A" fill-opacity="0.6"/>
<path d="M4.31366 54.0323V55.1129V56.1936H5.39209V55.1129V54.0323H4.31366Z" fill="#2B2A2A" fill-opacity="0.6"/>
<path d="M11.8627 54.0323H10.7843V55.1129H11.8627V54.0323Z" fill="#2B2A2A" fill-opacity="0.6"/>
<path d="M36.6666 56.1936H35.5882V57.2742H36.6666V56.1936Z" fill="#2B2A2A" fill-opacity="0.6"/>
<path d="M25.8824 0H24.8039V1.08065H25.8824V0Z" fill="#363535" fill-opacity="0.2"/>
<path d="M21.5686 6.48387H20.4902V7.56452H21.5686V6.48387Z" fill="#363535" fill-opacity="0.2"/>
<path d="M43.1373 11.8871H42.0588V12.9677H43.1373V11.8871Z" fill="#363535" fill-opacity="0.2"/>
<path d="M39.902 12.9677H38.8235V14.0484H39.902V12.9677Z" fill="#363535" fill-opacity="0.2"/>
<path d="M3.23529 14.0484H2.15686V15.129H3.23529V14.0484Z" fill="#363535" fill-opacity="0.2"/>
<path d="M32.3529 16.2097H31.2745V17.2903H32.3529V16.2097Z" fill="#363535" fill-opacity="0.2"/>
<path d="M1.07843 21.6129H0V22.6936H1.07843V21.6129Z" fill="#363535" fill-opacity="0.2"/>
<path d="M2.15686 23.7742H1.07843V24.8548H2.15686V23.7742Z" fill="#363535" fill-opacity="0.2"/>
<path d="M52.8431 23.7742H51.7647V24.8548H52.8431V23.7742Z" fill="#363535" fill-opacity="0.2"/>
<path d="M50.6863 27.0161H49.6078V28.0968H50.6863V27.0161Z" fill="#363535" fill-opacity="0.2"/>
<path d="M6.47059 30.2581H5.39216V31.3387H6.47059V30.2581Z" fill="#363535" fill-opacity="0.2"/>
<path d="M8.62745 35.6613H7.54902V36.7419H8.62745V35.6613Z" fill="#363535" fill-opacity="0.2"/>
<path d="M49.6078 38.9032H48.5294V39.9839H49.6078V38.9032Z" fill="#363535" fill-opacity="0.2"/>
<path d="M7.54902 39.9839H6.47059V41.0645H7.54902V39.9839Z" fill="#363535" fill-opacity="0.2"/>
<path d="M39.902 45.3871H38.8235V46.4677H39.902V45.3871Z" fill="#363535" fill-opacity="0.2"/>
<path d="M52.8431 54.0323H51.7647V55.1129H52.8431V54.0323Z" fill="#363535" fill-opacity="0.2"/>
<path d="M36.6667 57.2742H35.5882V58.3548H36.6667V57.2742Z" fill="#363535" fill-opacity="0.2"/>
<path d="M19.4118 61.5968H18.3333V62.6774H19.4118V61.5968Z" fill="#363535" fill-opacity="0.2"/>
<path d="M34.5098 61.5968H33.4314V62.6774H34.5098V61.5968Z" fill="#363535" fill-opacity="0.2"/>
<path d="M31.2745 64.8387H30.1961V65.9194H31.2745V64.8387Z" fill="#363535" fill-opacity="0.2"/>
<path d="M26.9608 65.9194V67H29.1176V65.9194H28.0392H26.9608Z" fill="#363535" fill-opacity="0.2"/>
<path d="M11.8627 12.9678H10.7842V14.0484H11.8627V12.9678Z" fill="#575A57"/>
<path d="M17.2548 15.1291H16.1764V16.2097H17.2548V15.1291Z" fill="#575A57"/>
<path d="M22.647 16.2097H21.5686V17.2904H22.647V16.2097Z" fill="#575A57"/>
<path d="M17.2548 18.371H16.1764V19.4516H17.2548V18.371Z" fill="#575A57"/>
<path d="M30.196 19.4516H29.1176V20.5323H30.196V19.4516Z" fill="#575A57"/>
<path d="M16.1764 21.6129H15.098V22.6936H16.1764V21.6129Z" fill="#575A57"/>
<path d="M31.2744 21.6129L32.3529 22.6936H33.4313V21.6129H32.3529H31.2744Z" fill="#575A57"/>
<path d="M21.5686 22.6936H20.4901V23.7742H21.5686V22.6936Z" fill="#575A57"/>
<path d="M15.098 30.2581V33.5H16.1764V30.2581H15.098Z" fill="#575A57"/>
<path d="M10.7842 31.3387H9.70581V32.4194H10.7842V31.3387Z" fill="#575A57"/>
<path d="M10.7842 34.5807H9.70581V35.6613H10.7842V34.5807Z" fill="#575A57"/>
<path d="M16.1764 37.8226H15.098V38.9033H16.1764V37.8226Z" fill="#575A57"/>
<path d="M38.8235 38.9033L37.745 39.9839V41.0645H38.8235V39.9839V38.9033Z" fill="#575A57"/>
<path d="M18.3333 41.0645H17.2548V42.1452H18.3333V41.0645Z" fill="#575A57"/>
<path d="M38.8235 44.3065H37.745V45.3871H38.8235V44.3065Z" fill="#575A57"/>
<path d="M16.1764 45.3871H15.098V46.4678H16.1764V45.3871Z" fill="#575A57"/>
<path d="M22.647 45.3871L23.7254 46.4678H24.8039L23.7254 45.3871H22.647Z" fill="#575A57"/>
<path d="M17.2548 48.6291H16.1764V49.7097H17.2548V48.6291Z" fill="#575A57"/>
<path d="M24.8039 49.7097V48.6291H25.8823H26.9607V49.7097H25.8823H24.8039V50.7904H23.7254V49.7097H24.8039Z" fill="#575A57"/>
<path d="M31.2744 50.7904V51.871H32.3529H33.4313V50.7904H32.3529H31.2744Z" fill="#575A57"/>
<path d="M37.745 50.7904H36.6666V51.871H37.745V50.7904Z" fill="#575A57"/>
<path d="M20.4901 51.871H19.4117V52.9516H20.4901V51.871Z" fill="#575A57"/>
<path d="M35.5882 52.9516V55.1129H36.6666V54.0323V52.9516H35.5882Z" fill="#575A57"/>
<path d="M44.2156 54.0323H43.1372V55.1129H44.2156V54.0323Z" fill="#575A57"/>
<path d="M19.4117 57.2742H18.3333V58.3549H19.4117V57.2742Z" fill="#575A57"/>
<path d="M34.5097 59.4355H33.4313V60.5162H34.5097V59.4355Z" fill="#575A57"/>
<path d="M25.8823 64.8387V65.9194H26.9607H28.0391V64.8387H25.8823Z" fill="#575A57"/>
<path d="M15.098 12.9678H14.0195V14.0484H15.098V12.9678Z" fill="#6C6B70"/>
<path d="M36.6666 14.0484H35.5882V15.1291H36.6666V14.0484Z" fill="#6C6B70"/>
<path d="M53.9215 15.1291H52.8431V16.2097H53.9215V15.1291Z" fill="#6C6B70"/>
<path d="M24.8039 17.2904H23.7254V18.371H24.8039V17.2904Z" fill="#6C6B70"/>
<path d="M16.1764 20.5323H15.098V21.6129H16.1764V20.5323Z" fill="#6C6B70"/>
<path d="M20.4901 22.6936L19.4117 23.7742V24.8549L20.4901 23.7742V22.6936Z" fill="#6C6B70"/>
<path d="M37.745 23.7742V24.8549V25.9355H38.8235V23.7742H37.745Z" fill="#6C6B70"/>
<path d="M36.6666 24.8549H35.5882V25.9355H36.6666V24.8549Z" fill="#6C6B70"/>
<path d="M12.9411 29.1775H14.0195V30.2581H12.9411V31.3387H11.8627V32.4194H10.7842V33.5H9.70581V32.4194H10.7842V31.3387H11.8627V30.2581H12.9411V29.1775Z" fill="#6C6B70"/>
<path d="M15.098 33.5V36.742V37.8226H16.1764V33.5H15.098Z" fill="#6C6B70"/>
<path d="M18.3333 41.0645V42.1452L19.4117 43.2258V42.1452L18.3333 41.0645Z" fill="#6C6B70"/>
<path d="M33.4313 43.2258L32.3529 44.3065V45.3871L33.4313 44.3065V43.2258Z" fill="#6C6B70"/>
<path d="M16.1764 46.4678H15.098V47.5484H16.1764V46.4678Z" fill="#6C6B70"/>
<path d="M29.1176 46.4678L28.0391 47.5484V48.6291H29.1176V47.5484V46.4678Z" fill="#6C6B70"/>
<path d="M30.196 49.7097H29.1176V50.7904H30.196V49.7097Z" fill="#6C6B70"/>
<path d="M16.1764 51.871V52.9516H17.2548H18.3333H19.4117V51.871H18.3333H17.2548H16.1764Z" fill="#6C6B70"/>
<path d="M34.5097 51.871H33.4313V52.9516H34.5097V51.871Z" fill="#6C6B70"/>
<path d="M36.6666 51.871H35.5882V52.9516H36.6666V51.871Z" fill="#6C6B70"/>
<path d="M20.4901 57.2742H19.4117V58.3549H20.4901V57.2742Z" fill="#6C6B70"/>
<path d="M22.647 59.4355H21.5686V60.5162H22.647V59.4355Z" fill="#6C6B70"/>
<path d="M29.1176 64.8387H28.0391V65.9194H29.1176V64.8387Z" fill="#6C6B70"/>
<path d="M52.8431 14.0483H51.7647V15.129H52.8431V14.0483Z" fill="#B4B3B3" fill-opacity="0.9"/>
<path d="M19.4118 15.129H18.3333V16.2096H19.4118V15.129Z" fill="#B4B3B3" fill-opacity="0.9"/>
<path d="M52.8431 18.3709V16.2096H53.9216V18.3709H52.8431V19.4516H51.7647V18.3709H52.8431Z" fill="#B4B3B3" fill-opacity="0.9"/>
<path d="M29.1176 18.3709H28.0392V19.4516H29.1176V18.3709Z" fill="#B4B3B3" fill-opacity="0.9"/>
<path d="M15.098 19.4516H16.1765V20.5322H17.2549V21.6129H16.1765V20.5322H15.098V19.4516Z" fill="#B4B3B3" fill-opacity="0.9"/>
<path d="M37.7451 19.4516H36.6667V20.5322H37.7451V19.4516Z" fill="#B4B3B3" fill-opacity="0.9"/>
<path d="M30.1961 20.5322H29.1176V21.6129H30.1961V20.5322Z" fill="#B4B3B3" fill-opacity="0.9"/>
<path d="M51.7647 20.5322H50.6863V21.6129H51.7647V20.5322Z" fill="#B4B3B3" fill-opacity="0.9"/>
<path d="M23.7255 21.6129H22.647V22.6935H23.7255V21.6129Z" fill="#B4B3B3" fill-opacity="0.9"/>
<path d="M51.7647 22.6935H50.6863V23.7741H51.7647V22.6935Z" fill="#B4B3B3" fill-opacity="0.9"/>
<path d="M19.4118 24.8548H18.3333V25.9354H19.4118V24.8548Z" fill="#B4B3B3" fill-opacity="0.9"/>
<path d="M38.8235 27.0161H37.7451V28.0967H38.8235V27.0161Z" fill="#B4B3B3" fill-opacity="0.9"/>
<path d="M14.0196 29.1774V30.258V36.7419H15.098V33.5V30.258V29.1774H14.0196Z" fill="#B4B3B3" fill-opacity="0.9"/>
<path d="M9.70587 31.3387H8.62744V32.4193H9.70587V31.3387Z" fill="#B4B3B3" fill-opacity="0.9"/>
<path d="M43.1372 32.4193H44.2157V33.5H43.1372V34.5806H42.0588V33.5H43.1372V32.4193Z" fill="#B4B3B3" fill-opacity="0.9"/>
<path d="M36.6667 42.1451V41.0645H37.7451H38.8235V43.2258H37.7451L36.6667 42.1451V43.2258H35.5882V42.1451H36.6667Z" fill="#B4B3B3" fill-opacity="0.9"/>
<path d="M32.3529 45.3871H31.2745V46.4677H32.3529V45.3871Z" fill="#B4B3B3" fill-opacity="0.9"/>
<path d="M17.2549 46.4677H16.1765V47.5483H17.2549V46.4677Z" fill="#B4B3B3" fill-opacity="0.9"/>
<path d="M25.8823 49.7096H24.8039V50.7903H25.8823V49.7096Z" fill="#B4B3B3" fill-opacity="0.9"/>
<path d="M14.0196 12.9678H12.9412V14.0484H14.0196V12.9678Z" fill="#D4D4D4"/>
<path d="M25.8823 19.4516V20.5323H28.0392V19.4516H25.8823Z" fill="#D4D4D4"/>
<path d="M17.2549 21.6129H16.1765V22.6936H17.2549V21.6129Z" fill="#D4D4D4"/>
<path d="M34.5098 21.6129H33.4314V22.6936H34.5098V21.6129Z" fill="#D4D4D4"/>
<path d="M34.5098 23.7742H33.4314V24.8549H34.5098V23.7742Z" fill="#D4D4D4"/>
<path d="M18.3333 25.9355H17.2549V27.0162H18.3333V25.9355Z" fill="#D4D4D4"/>
<path d="M38.8235 28.0968H37.7451V29.1775H38.8235V28.0968Z" fill="#D4D4D4"/>
<path d="M43.1372 31.3387H42.0588V32.4194H43.1372V31.3387Z" fill="#D4D4D4"/>
<path d="M15.098 39.9839H14.0196V41.0645H15.098V39.9839Z" fill="#D4D4D4"/>
<path d="M21.5686 44.3065H20.4902V45.3871H21.5686V44.3065Z" fill="#D4D4D4"/>
<path d="M16.1765 48.6291H15.098V49.7097H16.1765V48.6291Z" fill="#D4D4D4"/>
<path d="M29.1176 49.7097H28.0392V50.7904H29.1176V49.7097Z" fill="#D4D4D4"/>
<path d="M31.2745 50.7904H30.1961V51.871H31.2745V50.7904Z" fill="#D4D4D4"/>
<path d="M33.4314 51.871H32.3529V52.9516H33.4314V51.871Z" fill="#D4D4D4"/>
<path d="M15.098 52.9516H14.0196V54.0323H15.098V52.9516Z" fill="#D4D4D4"/>
<path d="M6.47052 11.8872H5.39209V12.9679H6.47052V11.8872Z" fill="#F8F8F8" fill-opacity="0.6"/>
<path d="M9.70582 14.0485V16.2098L10.7842 14.0485H9.70582Z" fill="#F8F8F8" fill-opacity="0.6"/>
<path d="M18.3333 17.2904H17.2548V18.3711H18.3333V17.2904Z" fill="#F8F8F8" fill-opacity="0.6"/>
<path d="M22.647 17.2904H21.5686V18.3711H22.647V17.2904Z" fill="#F8F8F8" fill-opacity="0.6"/>
<path d="M51.7646 19.4517H50.6862V20.5324H51.7646V19.4517Z" fill="#F8F8F8" fill-opacity="0.6"/>
<path d="M33.4313 20.5324H32.3529V21.613H33.4313V20.5324Z" fill="#F8F8F8" fill-opacity="0.6"/>
<path d="M36.6666 20.5324H35.5882V21.613H36.6666V20.5324Z" fill="#F8F8F8" fill-opacity="0.6"/>
<path d="M51.7646 21.613H50.6862V22.6937H51.7646V21.613Z" fill="#F8F8F8" fill-opacity="0.6"/>
<path d="M42.0588 32.4195V33.5001H43.1372V32.4195H42.0588Z" fill="#F8F8F8" fill-opacity="0.6"/>
<path d="M11.8627 39.984V42.1453H12.9411V39.984H11.8627Z" fill="#F8F8F8" fill-opacity="0.6"/>
<path d="M15.098 48.6291H14.0195V49.7098H15.098V48.6291Z" fill="#F8F8F8" fill-opacity="0.6"/>
<path d="M16.1764 50.7904H15.098V51.8711H16.1764V50.7904Z" fill="#F8F8F8" fill-opacity="0.6"/>
<path d="M44.2156 9.72583V10.8065H46.3725V9.72583H44.2156Z" fill="#555555" fill-opacity="0.6"/>
<path d="M47.4509 9.72583V10.8065H48.5294H49.6078L47.4509 9.72583Z" fill="#555555" fill-opacity="0.6"/>
<path d="M10.7843 12.9678H9.70582V14.0484H10.7843V12.9678Z" fill="#555555" fill-opacity="0.6"/>
<path d="M30.196 17.2903H29.1176V18.371H30.196V17.2903Z" fill="#555555" fill-opacity="0.6"/>
<path d="M45.2941 33.5H44.2156V34.5807H45.2941V33.5Z" fill="#555555" fill-opacity="0.6"/>
<path d="M7.54896 36.742H6.47053V37.8226H7.54896V36.742Z" fill="#555555" fill-opacity="0.6"/>
<path d="M12.9411 36.742H11.8627V37.8226H12.9411V36.742Z" fill="#555555" fill-opacity="0.6"/>
<path d="M2.1568 44.3065H1.07837V45.3871H2.1568V44.3065Z" fill="#555555" fill-opacity="0.6"/>
<path d="M37.745 54.0323H36.6666V55.1129H37.745V54.0323Z" fill="#555555" fill-opacity="0.6"/>
<path d="M44.2156 55.1129H43.1372V56.1936H44.2156V55.1129Z" fill="#555555" fill-opacity="0.6"/>
<path d="M49.6078 55.1129H48.5294V56.1936H49.6078V55.1129Z" fill="#555555" fill-opacity="0.6"/>
<path d="M21.5686 61.5968H20.4901V62.6774H21.5686V61.5968Z" fill="#555555" fill-opacity="0.6"/>
<path d="M7.54896 9.72583L5.39209 10.8065H7.54896V9.72583Z" fill="#6B6A6B" fill-opacity="0.3"/>
<path d="M35.5882 10.8065H34.5097V11.8871H35.5882V10.8065Z" fill="#6B6A6B" fill-opacity="0.3"/>
<path d="M19.4117 11.8871H18.3333V12.9678H19.4117V11.8871Z" fill="#6B6A6B" fill-opacity="0.3"/>
<path d="M51.7646 12.9678H50.6862V14.0484H51.7646V12.9678Z" fill="#6B6A6B" fill-opacity="0.3"/>
<path d="M34.5097 15.1291H33.4313V16.2097H34.5097V15.1291Z" fill="#6B6A6B" fill-opacity="0.3"/>
<path d="M36.6666 15.1291H35.5882V16.2097H36.6666V15.1291Z" fill="#6B6A6B" fill-opacity="0.3"/>
<path d="M21.5686 16.2097H20.4901V17.2903H21.5686V16.2097Z" fill="#6B6A6B" fill-opacity="0.3"/>
<path d="M1.07837 17.2903V19.4516H2.1568V17.2903H1.07837Z" fill="#6B6A6B" fill-opacity="0.3"/>
<path d="M3.23523 46.4678H2.1568V47.5484H3.23523V46.4678Z" fill="#6B6A6B" fill-opacity="0.3"/>
<path d="M38.8235 51.871H37.745V52.9516H38.8235V51.871Z" fill="#6B6A6B" fill-opacity="0.3"/>
<path d="M40.9803 52.9516H39.9019V54.0323H40.9803V52.9516Z" fill="#6B6A6B" fill-opacity="0.3"/>
<path d="M10.7843 54.0323H9.70582V55.1129H10.7843V54.0323Z" fill="#6B6A6B" fill-opacity="0.3"/>
<path d="M38.8235 54.0323H37.745V55.1129H38.8235V54.0323Z" fill="#6B6A6B" fill-opacity="0.3"/>
<path d="M4.31366 55.1129H3.23523V56.1936H4.31366V55.1129Z" fill="#6B6A6B" fill-opacity="0.3"/>
<path d="M14.0195 55.1129H12.9411V56.1936H14.0195V55.1129Z" fill="#6B6A6B" fill-opacity="0.3"/>
<path d="M43.1372 55.1129H42.0588V56.1936H43.1372V55.1129Z" fill="#6B6A6B" fill-opacity="0.3"/>
<path d="M50.6862 55.1129H49.6078V56.1936H50.6862V55.1129Z" fill="#6B6A6B" fill-opacity="0.3"/>
<path fill-rule="evenodd" clip-rule="evenodd" d="M6.4707 12.9679V11.8872H8.62757V12.9679H6.4707ZM50.6864 19.4517L51.7648 17.2904V19.4517H50.6864ZM10.7844 20.5324H11.8629V21.613H10.7844V20.5324ZM33.4315 21.613V20.5324H35.5884V21.613H33.4315ZM11.8629 39.984V37.8227H12.9413V39.984H11.8629ZM12.9413 44.3066L11.8629 42.1453H12.9413V44.3066ZM12.9413 46.4679H14.0197V47.5485H12.9413V46.4679ZM14.0197 49.7098H15.0982V50.7904H14.0197V49.7098ZM15.0982 51.8711H16.1766V52.9517H15.0982V51.8711ZM7.54913 54.0324H8.62757V55.113H7.54913V54.0324Z" fill="#F8F8F8" fill-opacity="0.3"/>
<path d="M8.62757 9.72583H7.54913V10.8065H8.62757V9.72583Z" fill="#909C9B" fill-opacity="0.3"/>
<path d="M17.255 11.8871H16.1766V12.9678H17.255V11.8871Z" fill="#909C9B" fill-opacity="0.3"/>
<path d="M19.4119 12.9678H18.3334V14.0484H19.4119V12.9678Z" fill="#909C9B" fill-opacity="0.3"/>
<path d="M18.3334 16.2097H17.255V17.2903H18.3334V16.2097Z" fill="#909C9B" fill-opacity="0.3"/>
<path d="M8.62757 30.2581H7.54913V31.3387H8.62757V30.2581Z" fill="#909C9B" fill-opacity="0.3"/>
<path d="M10.7844 30.2581H9.706V31.3387H10.7844V30.2581Z" fill="#909C9B" fill-opacity="0.3"/>
<path d="M9.706 34.5807H8.62757V35.6613H9.706V34.5807Z" fill="#909C9B" fill-opacity="0.3"/>
<path d="M7.54913 54.0323H6.4707V55.1129H7.54913V54.0323Z" fill="#909C9B" fill-opacity="0.3"/>
<path d="M26.9609 65.9194H25.8825V67H26.9609V65.9194Z" fill="#909C9B" fill-opacity="0.3"/>
<path d="M9.70588 9.72583H8.62745V10.8065H9.70588V9.72583Z" fill="#BFBFBF" fill-opacity="0.3"/>
<path d="M44.2157 9.72583H43.1372V10.8065H44.2157V9.72583Z" fill="#BFBFBF" fill-opacity="0.3"/>
<path d="M5.39215 11.8871H4.31372V12.9678H5.39215V11.8871Z" fill="#BFBFBF" fill-opacity="0.3"/>
<path d="M35.5882 11.8871H34.5098V12.9678H35.5882V11.8871Z" fill="#BFBFBF" fill-opacity="0.3"/>
<path d="M9.70588 30.2581H8.62745V31.3387H9.70588V30.2581Z" fill="#BFBFBF" fill-opacity="0.3"/>
<path d="M9.70588 54.0323H8.62745V55.1129H9.70588V54.0323Z" fill="#BFBFBF" fill-opacity="0.3"/>
<path d="M42.0588 55.1129H40.9804V56.1936H42.0588V55.1129Z" fill="#BFBFBF" fill-opacity="0.3"/>
<path d="M19.4117 23.7742H18.3333V24.8548H19.4117V23.7742Z" fill="#2B292A"/>
<path d="M26.9607 28.0968L25.8823 29.1774H24.8038L23.7254 30.258L22.647 31.3387V33.5V34.5806V35.6613L23.7254 36.7419V37.8226H24.8038H25.8823H28.0391H29.1176H30.196L31.2744 36.7419L32.3529 35.6613V34.5806V32.4193V31.3387V30.258L31.2744 29.1774H30.196L29.1176 28.0968H26.9607Z" fill="#2B292A"/>
<path d="M55.0001 21.6128H53.9216V22.6934H55.0001V21.6128Z" fill="#2C2A2B" fill-opacity="0.8"/>
<path d="M11.8629 34.5806H10.7844V35.6612H11.8629V34.5806Z" fill="#383838"/>
<path d="M25.8825 37.8225V38.9031H28.0393V37.8225H25.8825Z" fill="#383838"/>
<path d="M37.7452 39.9838H36.6668V41.0644H37.7452V39.9838Z" fill="#383838"/>
<path d="M21.5686 21.6128H20.4902V22.6934H21.5686V21.6128Z" fill="#959595"/>
<path d="M36.6666 23.7741H35.5882V24.8547H36.6666V23.7741Z" fill="#959595"/>
<path d="M23.7255 30.258H22.647V31.3386H23.7255V30.258Z" fill="#959595"/>
<path d="M32.3529 32.4192V34.5805L33.4314 32.4192H32.3529Z" fill="#959595"/>
<path d="M29.1176 37.8225H28.0392V38.9031H29.1176V37.8225Z" fill="#959595"/>
<path d="M18.3333 39.9838H17.2549V41.0644H18.3333V39.9838Z" fill="#959595"/>
<path d="M23.7255 44.3063H22.647V45.387H23.7255V44.3063Z" fill="#959595"/>
<path d="M30.1961 48.6289H29.1176V49.7096H30.1961V48.6289Z" fill="#959595"/>
<path d="M32.3529 49.7096H31.2745V50.7902H32.3529V49.7096Z" fill="#959595"/>
<path d="M31.2746 1.08057H32.3531V2.16121H33.4315V3.24186H32.3531V2.16121H31.2746V1.08057Z" fill="#2D2D2D" fill-opacity="0.3"/>
<path d="M21.5687 3.24186H20.4903V4.3225H21.5687V3.24186Z" fill="#2D2D2D" fill-opacity="0.3"/>
<path d="M36.6668 4.3225H35.5884V5.40315H36.6668V4.3225Z" fill="#2D2D2D" fill-opacity="0.3"/>
<path d="M20.4903 5.40315H19.4119V6.48379H20.4903V5.40315Z" fill="#2D2D2D" fill-opacity="0.3"/>
<path d="M14.0197 10.8064H12.9413V11.887H14.0197V10.8064Z" fill="#2D2D2D" fill-opacity="0.3"/>
<path d="M50.6864 10.8064H51.7648V11.887H52.8433V12.9677H53.9217V14.0483H52.8433V12.9677H51.7648V11.887H50.6864V10.8064Z" fill="#2D2D2D" fill-opacity="0.3"/>
<path d="M29.1178 16.2096H28.0393V17.2902H29.1178V16.2096Z" fill="#2D2D2D" fill-opacity="0.3"/>
<path d="M5.39228 25.9354H4.31385V27.0161H5.39228V25.9354Z" fill="#2D2D2D" fill-opacity="0.3"/>
<path d="M4.31385 36.7419H3.23541V37.8225H4.31385V36.7419Z" fill="#2D2D2D" fill-opacity="0.3"/>
<path d="M50.6864 37.8225H49.608V38.9031H50.6864V37.8225Z" fill="#2D2D2D" fill-opacity="0.3"/>
<path d="M3.23541 41.0644H2.15698V42.1451H3.23541V41.0644Z" fill="#2D2D2D" fill-opacity="0.3"/>
<path d="M55.0001 46.4677H53.9217V47.5483H55.0001V46.4677Z" fill="#2D2D2D" fill-opacity="0.3"/>
<path d="M3.23541 51.8709H2.15698V52.9515H3.23541V51.8709Z" fill="#2D2D2D" fill-opacity="0.3"/>
<path d="M52.8433 51.8709H51.7648V52.9515H52.8433V51.8709Z" fill="#2D2D2D" fill-opacity="0.3"/>
<path d="M48.5295 52.9515H47.4511V54.0322H48.5295V52.9515Z" fill="#2D2D2D" fill-opacity="0.3"/>
<path d="M22.6471 2.16138H21.5687V3.24202H22.6471V2.16138Z" fill="#2B2A2B" fill-opacity="0.5"/>
<path d="M19.4118 7.5646H18.3334V8.64525H19.4118V7.5646Z" fill="#2B2A2B" fill-opacity="0.5"/>
<path d="M11.8628 8.64525H10.7844V9.72589H11.8628V8.64525Z" fill="#2B2A2B" fill-opacity="0.5"/>
<path d="M4.31378 10.8065H3.23535V11.8872H4.31378V10.8065Z" fill="#2B2A2B" fill-opacity="0.5"/>
<path d="M20.4903 14.0485H19.4118V15.1291H20.4903V14.0485Z" fill="#2B2A2B" fill-opacity="0.5"/>
<path d="M31.2746 15.1291H30.1961V16.2098H31.2746V15.1291Z" fill="#2B2A2B" fill-opacity="0.5"/>
<path d="M55.0001 15.1291H53.9216V16.2098H55.0001V15.1291Z" fill="#2B2A2B" fill-opacity="0.5"/>
<path d="M53.9216 22.6936H52.8432V23.7743H53.9216V22.6936Z" fill="#2B2A2B" fill-opacity="0.5"/>
<path d="M49.6079 25.9356H48.5295V27.0162H49.6079V25.9356Z" fill="#2B2A2B" fill-opacity="0.5"/>
<path d="M39.902 27.0162H40.9804V28.0969H42.0589V29.1775H43.1373V30.2582H44.2157V31.3388H43.1373V30.2582H42.0589V29.1775H40.9804V28.0969H39.902V27.0162Z" fill="#2B2A2B" fill-opacity="0.5"/>
<path d="M46.3726 30.2582H45.2942V31.3388H46.3726V30.2582Z" fill="#2B2A2B" fill-opacity="0.5"/>
<path d="M7.54908 34.5807H6.47065V35.6614H7.54908V34.5807Z" fill="#2B2A2B" fill-opacity="0.5"/>
<path d="M34.5097 7.56445H33.4313V8.6451H34.5097V7.56445Z" fill="#2B2A2A" fill-opacity="0.6"/>
<path d="M2.1568 12.9677H1.07837V14.0483H2.1568V12.9677Z" fill="#2B2A2A" fill-opacity="0.6"/>
<path d="M24.8039 16.2096H23.7254V17.2903H24.8039V16.2096Z" fill="#2B2A2A" fill-opacity="0.6"/>
<path d="M47.4509 29.1774H46.3725V30.258H47.4509V29.1774Z" fill="#2B2A2A" fill-opacity="0.6"/>
<path d="M49.6078 36.7419H48.5294V37.8225H49.6078V36.7419Z" fill="#2B2A2A" fill-opacity="0.6"/>
<path d="M53.9215 49.7096H52.8431V50.7903H53.9215V49.7096Z" fill="#2B2A2A" fill-opacity="0.6"/>
<path d="M23.7255 1.08057H22.6471V2.16121H23.7255V1.08057Z" fill="#363535" fill-opacity="0.2"/>
<path d="M35.5882 3.24186H34.5098V4.3225H35.5882V3.24186Z" fill="#363535" fill-opacity="0.2"/>
<path d="M12.9412 8.64508H11.8627V9.72573H12.9412V8.64508Z" fill="#363535" fill-opacity="0.2"/>
<path d="M39.902 10.8064H38.8235V11.887H39.902V10.8064Z" fill="#363535" fill-opacity="0.2"/>
<path d="M1.07843 14.0483H0V15.129H1.07843V14.0483Z" fill="#363535" fill-opacity="0.2"/>
<path d="M23.7255 15.129H22.6471V16.2096H23.7255V15.129Z" fill="#363535" fill-opacity="0.2"/>
<path d="M38.8235 16.2096H37.7451V17.2902H38.8235V16.2096Z" fill="#363535" fill-opacity="0.2"/>
<path d="M3.23529 21.6128H2.15686V22.6935H3.23529V21.6128Z" fill="#363535" fill-opacity="0.2"/>
<path d="M39.902 22.6935H38.8235V23.7741H39.902V22.6935Z" fill="#363535" fill-opacity="0.2"/>
<path d="M48.5294 27.0161H47.451V28.0967H48.5294V27.0161Z" fill="#363535" fill-opacity="0.2"/>
<path d="M46.3725 33.4999H47.451V34.5806H48.5294V35.6612H47.451V34.5806H46.3725V33.4999Z" fill="#363535" fill-opacity="0.2"/>
<path d="M6.47059 35.6612H5.39216V36.7419H6.47059V35.6612Z" fill="#363535" fill-opacity="0.2"/>
<path d="M52.8431 41.0644H51.7647V42.1451H52.8431V41.0644Z" fill="#363535" fill-opacity="0.2"/>
<path d="M53.9216 43.2257H52.8431V44.3064H53.9216V43.2257Z" fill="#363535" fill-opacity="0.2"/>
<path d="M45.2941 52.9515H44.2157V54.0322H45.2941V52.9515Z" fill="#363535" fill-opacity="0.2"/>
<path d="M14.0197 28.0967H12.9412V29.1773H14.0197V28.0967Z" fill="#575A57"/>
<path d="M26.9608 28.0967H25.8824V29.1773H26.9608V28.0967Z" fill="#575A57"/>
<path d="M30.1961 28.0967H29.1177V29.1773H30.1961V28.0967Z" fill="#575A57"/>
<path d="M12.9412 35.6612H11.8628V36.7418H12.9412V35.6612Z" fill="#575A57"/>
<path d="M42.0589 35.6612H40.9804V36.7418H42.0589V35.6612Z" fill="#575A57"/>
<path d="M25.8824 37.8225H24.804V38.9031H25.8824V37.8225Z" fill="#575A57"/>
<path d="M20.4902 42.1451H19.4118V43.2257H20.4902V42.1451Z" fill="#575A57"/>
<path d="M32.353 44.3064H31.2746V45.387H32.353V44.3064Z" fill="#575A57"/>
<path d="M23.7255 62.6773H22.6471V63.758H23.7255V62.6773Z" fill="#575A57"/>
<path d="M32.353 62.6773H31.2746V63.758H32.353V62.6773Z" fill="#575A57"/>
<path d="M17.2548 14.0483H16.1764V15.129H17.2548V14.0483Z" fill="#6C6B70"/>
<path d="M24.8038 19.4516H23.7254V20.5322H24.8038V19.4516Z" fill="#6C6B70"/>
<path d="M15.098 27.0161H14.0195V28.0967H15.098V27.0161Z" fill="#6C6B70"/>
<path d="M24.8038 29.1774H23.7254V30.258H24.8038V29.1774Z" fill="#6C6B70"/>
<path d="M23.7254 49.7096H22.647V50.7903H23.7254V49.7096Z" fill="#6C6B70"/>
<path d="M21.5686 50.7903H20.4901V51.8709H21.5686V50.7903Z" fill="#6C6B70"/>
<path d="M19.4117 55.1129H18.3333V56.1935H19.4117V55.1129Z" fill="#6C6B70"/>
<path d="M35.5882 22.6936H34.5098V23.7742H35.5882V22.6936Z" fill="#B4B3B3" fill-opacity="0.9"/>
<path d="M25.8823 28.0968H24.8039V29.1775H25.8823V28.0968Z" fill="#B4B3B3" fill-opacity="0.9"/>
<path d="M32.3529 29.1775H31.2745V30.2581H32.3529V29.1775Z" fill="#B4B3B3" fill-opacity="0.9"/>
<path d="M33.4313 31.3388H32.3529V32.4194H33.4313V31.3388Z" fill="#B4B3B3" fill-opacity="0.9"/>
<path d="M34.5098 42.1452H33.4313V43.2259H34.5098V42.1452Z" fill="#B4B3B3" fill-opacity="0.9"/>
<path d="M22.647 43.2259H21.5686V44.3065H22.647V43.2259Z" fill="#B4B3B3" fill-opacity="0.9"/>
<path d="M30.1961 45.3872H29.1176V46.4678H30.1961V45.3872Z" fill="#B4B3B3" fill-opacity="0.9"/>
<path d="M26.9608 46.4678H25.8823V47.5484H26.9608V46.4678Z" fill="#B4B3B3" fill-opacity="0.9"/>
<path d="M34.5098 50.7904H33.4313V51.871H34.5098V50.7904Z" fill="#B4B3B3" fill-opacity="0.9"/>
<path d="M35.5882 56.1936H34.5098V57.2743H35.5882V56.1936Z" fill="#B4B3B3" fill-opacity="0.9"/>
<path d="M34.5098 58.3549H33.4313V59.4355H34.5098V58.3549Z" fill="#B4B3B3" fill-opacity="0.9"/>
<path d="M33.4313 60.5162H32.3529V61.5968H33.4313V60.5162Z" fill="#B4B3B3" fill-opacity="0.9"/>
<path d="M25.8823 63.7581H24.8039V64.8388H25.8823V63.7581Z" fill="#B4B3B3" fill-opacity="0.9"/>
<path d="M16.1766 18.3708H15.0981V19.4515H16.1766V18.3708Z" fill="#D4D4D4"/>
<path d="M22.6472 20.5321H21.5687V21.6128H22.6472V20.5321Z" fill="#D4D4D4"/>
<path d="M31.2746 28.0967H30.1962V29.1773H31.2746V28.0967Z" fill="#D4D4D4"/>
<path d="M22.6472 33.4999H21.5687V34.5805H22.6472V33.4999Z" fill="#D4D4D4"/>
<path d="M23.7256 36.7418H22.6472V37.8225H23.7256V36.7418Z" fill="#D4D4D4"/>
<path d="M17.255 38.9031H16.1766V39.9838H17.255V38.9031Z" fill="#D4D4D4"/>
<path d="M35.5883 41.0644H34.5099V42.145H35.5883V41.0644Z" fill="#D4D4D4"/>
<path d="M17.255 45.387H16.1766V46.4676H17.255V45.387Z" fill="#D4D4D4"/>
<path d="M24.804 48.6289H23.7256V49.7096H24.804V48.6289Z" fill="#D4D4D4"/>
<path d="M37.7452 48.6289H36.6668V49.7096H37.7452V48.6289Z" fill="#D4D4D4"/>
<path d="M18.3334 50.7902H17.255V51.8708H18.3334V50.7902Z" fill="#D4D4D4"/>
<path d="M20.4903 57.2741H21.5687V58.3547H22.6472V59.4354H21.5687V58.3547H20.4903V57.2741Z" fill="#D4D4D4"/>
<path d="M30.1962 63.7579H29.1178V64.8386H30.1962V63.7579Z" fill="#D4D4D4"/>
<path d="M9.70587 11.8872H8.62744V12.9679H9.70587V11.8872Z" fill="#F8F8F8" fill-opacity="0.6"/>
<path d="M10.7843 17.2904H9.70587V18.3711H10.7843V17.2904Z" fill="#F8F8F8" fill-opacity="0.6"/>
<path d="M30.1961 18.3711H31.2745V19.4517H32.3529V20.5324H31.2745V19.4517H30.1961V18.3711Z" fill="#F8F8F8" fill-opacity="0.6"/>
<path d="M11.8627 19.4517H10.7843V20.5324H11.8627V19.4517Z" fill="#F8F8F8" fill-opacity="0.6"/>
<path d="M14.0196 45.3872H12.9412V46.4679H14.0196V45.3872Z" fill="#F8F8F8" fill-opacity="0.6"/>
<path d="M7.54913 29.1775H6.4707V30.2581H7.54913V29.1775Z" fill="#555555" fill-opacity="0.6"/>
<path d="M18.3333 9.72583H17.2548V10.8065H18.3333V9.72583Z" fill="#6B6A6B" fill-opacity="0.3"/>
<path d="M4.31366 23.7742H3.23523V24.8549H4.31366V23.7742Z" fill="#6B6A6B" fill-opacity="0.3"/>
<path d="M5.39209 41.0645H4.31366V42.1452H5.39209V41.0645Z" fill="#6B6A6B" fill-opacity="0.3"/>
<path d="M2.1568 43.2258H1.07837V44.3065H2.1568V43.2258Z" fill="#6B6A6B" fill-opacity="0.3"/>
<path d="M4.31366 52.9516H3.23523V54.0323H4.31366V52.9516Z" fill="#6B6A6B" fill-opacity="0.3"/>
<path d="M50.6862 52.9516H49.6078V54.0323H50.6862V52.9516Z" fill="#6B6A6B" fill-opacity="0.3"/>
<path d="M8.62739 56.1936H7.54896V57.2742H8.62739V56.1936Z" fill="#6B6A6B" fill-opacity="0.3"/>
<path d="M19.4118 17.2903H18.3333V18.3709H19.4118V17.2903Z" fill="#F8F8F8" fill-opacity="0.3"/>
<path d="M14.0196 52.9516H12.9412V54.0322H14.0196V52.9516Z" fill="#F8F8F8" fill-opacity="0.3"/>
<path d="M43.1374 9.72583H42.0589V10.8065H43.1374V9.72583Z" fill="#909C9B" fill-opacity="0.3"/>
<path d="M50.6864 23.7742H49.608V24.8549H50.6864V23.7742Z" fill="#909C9B" fill-opacity="0.3"/>
<path d="M11.8629 29.1774H10.7844V30.2581H11.8629V29.1774Z" fill="#909C9B" fill-opacity="0.3"/>
<path d="M42.0589 52.9516H40.9805V54.0323H42.0589V52.9516Z" fill="#909C9B" fill-opacity="0.3"/>
<path d="M37.7452 10.8064H36.6667V11.887H37.7452V10.8064Z" fill="#BFBFBF" fill-opacity="0.3"/>
<path d="M31.2745 36.7419H30.196V37.8226H31.2745V36.7419Z" fill="#959595"/>
<path d="M23.7254 35.6614H22.647V36.742H23.7254V35.6614Z" fill="#575A57"/>
<path d="M32.3528 35.6614H31.2744V36.742H32.3528V35.6614Z" fill="#6C6B70"/>
</svg>
