<svg width="88" height="73" viewBox="0 0 88 73" fill="none" xmlns="http://www.w3.org/2000/svg">
<path d="M50.8001 14C51.5001 17.3 52.6001 20 53.3001 20.1C54.0001 20.1 57.4001 20.1 61.0001 20C67.8001 19.9 73.5001 21.3 72.5001 22.9C72.2001 23.5 70.7001 23.5 68.7001 22.9C65.1001 21.9 57.0001 21.7 54.6001 22.6C53.4001 23.1 53.1001 24.1 53.6001 27.1C54.4001 31.6 52.4001 32.7 51.4001 28.2C51.1001 26.7 50.7001 24.9 50.5001 24.3C50.0001 22.8 35.8001 29.7 32.1001 33.1L29.7001 35.3L32.4001 37.3C35.8001 39.8 34.7001 41.4 30.9001 39.5C29.3001 38.6 27.6001 38.2 27.1001 38.5C25.9001 39.2 21.0001 51.6 21.0001 54C21.0001 55.1 20.5001 56 20.0001 56C18.0001 56 19.1001 49.9 22.2001 42.9L25.4001 35.7L23.0001 34.1C18.6001 31.1 16.5001 29.2 17.2001 28.5C17.5001 28.2 19.5001 28.9 21.7001 30.2C23.8001 31.6 26.0001 33 26.7001 33.3C27.4001 33.7 29.4001 32.7 31.3001 31C33.2001 29.4 38.2001 26.4 42.4001 24.4C46.6001 22.4 50.0001 20.5 50.0001 20.1C50.0001 19.8 49.4001 17.2 48.6001 14.3C47.3001 9.5 47.4001 8 49.0001 8C49.3001 8 50.2001 10.7 50.8001 14Z" fill="black"/>
<path d="M75.3 38.6C76.8 40.2 74.4 41 68.3 41C61.3 41 54.2 43.7 47.3 48.8C43.3 51.8 36 62.7 36 65.7C36 68.4 34.2 69.7 33.4 67.5C32.4 64.9 38.9 53.2 43.9 48.8C50.4 43 59 39.3 67.6 38.6C71.5 38.3 75 38.3 75.3 38.6Z" fill="black"/>
</svg>
