<svg width="137" height="82" viewBox="0 0 137 82" fill="none" xmlns="http://www.w3.org/2000/svg">
<g clip-path="url(#clip0_185_7)">
<path d="M115.491 2.59667C113.162 4.10001 110.696 6.28667 109.874 7.51667C108.778 9.70334 108.23 9.56667 103.024 6.97C92.0641 1.36667 77.4051 4.10001 67.2671 13.53C62.4721 18.04 59.3211 28.0167 58.0881 42.64L57.1291 53.4367L50.1421 40.0433C38.3601 17.63 26.1671 2.05001 23.0161 5.19334C21.7831 6.42334 22.7421 8.2 26.9891 12.71C30.1401 15.8533 34.7981 21.8667 37.4011 25.9667C43.8401 36.08 54.8001 58.22 56.8551 64.78C60.0061 75.1667 61.2391 71.75 62.0611 50.9767C62.7461 29.2467 64.1161 23.37 69.7331 17.22C80.8301 5.05667 106.175 5.33001 106.586 17.7667C106.723 22.96 107.819 24.6 110.97 24.6C114.395 24.6 115.354 21.0467 113.025 16.4C111.244 12.8467 111.244 12.3 114.258 9.15667C118.368 4.64667 126.04 2.59667 131.931 4.23667C137.411 5.74001 137 5.87667 137 3.55334C137 -0.819994 122.204 -1.50333 115.491 2.59667Z" fill="black"/>
<path d="M38.3601 6.01337C38.3601 6.97004 39.8671 8.88337 41.6481 10.1134C43.4291 11.2067 46.0321 14.6234 47.4021 17.7667C49.5941 22.6867 53.4301 25.2834 53.4301 21.8667C53.4301 18.86 47.8131 9.70337 44.3881 6.97004C40.1411 3.69004 38.3601 3.28004 38.3601 6.01337Z" fill="black"/>
<path d="M24.6602 51.1134C24.6602 52.3434 25.4822 53.3001 26.4412 53.3001C27.5372 53.3001 31.0992 55.0767 34.3872 57.2634C39.8672 61.0901 42.4702 61.5001 42.4702 58.9034C42.4702 57.2634 32.3322 50.8401 28.2222 49.7467C25.4822 49.0634 24.6602 49.4734 24.6602 51.1134Z" fill="black"/>
<path d="M6.98708 76.9433C-0.547917 78.9933 -3.01392 82.9567 4.24708 81.3167C6.85008 80.77 15.6181 79.95 23.8381 79.4033C33.9761 78.8567 39.0451 78.0367 39.4561 76.8067C40.1411 74.62 15.6181 74.7567 6.98708 76.9433Z" fill="black"/>
</g>
<defs>
<clipPath id="clip0_185_7">
<rect width="137" height="82" fill="white"/>
</clipPath>
</defs>
</svg>
