<svg width="78" height="69" viewBox="0 0 78 69" fill="none" xmlns="http://www.w3.org/2000/svg">
<path d="M27.5 14.5001C24.8 15.2001 19.9 16.3001 16.8 17.0001C11.5 18.2001 11 18.6001 11 20.9001C11.1 22.3001 11.7 25.3001 12.5 27.5001C13.3 29.7001 14 33.4001 14 35.6001C14 39.2001 13.7 39.9001 11.5 40.4001C8.79999 41.1001 6.49999 44.0001 5.49999 48.2001C4.89999 50.5001 5.29999 51.2001 8.09999 52.9001C13.4 56.1001 19 54.6001 21.4 49.2001C23.4 44.8001 23.1 41.8001 20.3 38.8001C17.6 35.8001 16.8 30.2001 18.9 29.1001C19.8 28.6001 23.3 28.0001 26.8 27.6001L33 26.9001V30.5001C33 32.6001 32.5 34.0001 31.8 34.0001C29.6 34.0001 24 40.0001 24 42.3001C24 45.3001 25.1 46.7001 28.2 47.9001C36.1 50.9001 42.3 42.4001 38 34.3001C36.3 30.9001 36 29.0001 36.4 22.4001C37 12.4001 36.8 12.2001 27.5 14.5001Z" fill="black"/>
<path d="M55.5001 24.1001C55.1001 24.7001 54.7001 27.0001 54.5001 29.3001C54.3001 31.6001 53.9001 34.6001 53.7001 36.0001C53.4001 37.4001 53.1001 40.2001 53.1001 42.2001C53.0001 44.9001 52.6001 46.0001 51.5001 46.0001C49.6001 46.0001 45.9001 48.0001 44.3001 50.0001C43.6001 50.8001 43.1001 53.3001 43.3001 55.4001C43.5001 58.9001 43.9001 59.5001 47.0001 60.5001C49.3001 61.3001 50.9001 61.4001 51.8001 60.7001C52.4001 60.2001 53.0001 60.0001 53.0001 60.4001C53.0001 60.7001 54.4001 59.8001 56.0001 58.3001C59.3001 55.4001 60.1001 50.2001 57.6001 48.1001C56.9001 47.5001 56.5001 45.8001 56.7001 44.2001C57.6001 38.8001 57.9001 38.5001 60.3001 40.9001C63.3001 43.6001 68.0001 43.8001 68.0001 41.1001C68.0001 39.8001 67.2001 39.0001 65.8001 38.8001C63.8001 38.5001 63.4001 37.7001 62.8001 32.8001C61.9001 25.7001 57.6001 20.6001 55.5001 24.1001ZM59.6001 34.7001C58.5001 35.8001 57.7001 34.1001 58.5001 32.3001C59.3001 30.6001 59.3001 30.6001 59.7001 32.3001C60.0001 33.3001 59.9001 34.4001 59.6001 34.7001Z" fill="black"/>
</svg>
