<svg width="60" height="60" viewBox="0 0 60 60" fill="none" xmlns="http://www.w3.org/2000/svg">
<g clip-path="url(#clip0_255_4)">
<path d="M30 1C26.0603 1 22.1593 1.77597 18.5195 3.28361C14.8797 4.79126 11.5726 7.00104 8.7868 9.7868C3.16071 15.4129 0 23.0435 0 31C0 44.26 8.61 55.51 20.52 59.5C22.02 59.74 22.5 58.81 22.5 58V52.93C14.19 54.73 12.42 48.91 12.42 48.91C11.04 45.43 9.09 44.5 9.09 44.5C6.36 42.64 9.3 42.7 9.3 42.7C12.3 42.91 13.89 45.79 13.89 45.79C16.5 50.35 20.91 49 22.62 48.28C22.89 46.33 23.67 45.01 24.51 44.26C17.85 43.51 10.86 40.93 10.86 29.5C10.86 26.17 12 23.5 13.95 21.37C13.65 20.62 12.6 17.5 14.25 13.45C14.25 13.45 16.77 12.64 22.5 16.51C24.87 15.85 27.45 15.52 30 15.52C32.55 15.52 35.13 15.85 37.5 16.51C43.23 12.64 45.75 13.45 45.75 13.45C47.4 17.5 46.35 20.62 46.05 21.37C48 23.5 49.14 26.17 49.14 29.5C49.14 40.96 42.12 43.48 35.43 44.23C36.51 45.16 37.5 46.99 37.5 49.78V58C37.5 58.81 37.98 59.77 39.51 59.5C51.42 55.48 60 44.26 60 31C60 27.0603 59.224 23.1593 57.7164 19.5195C56.2087 15.8797 53.999 12.5726 51.2132 9.7868C48.4274 7.00104 45.1203 4.79126 41.4805 3.28361C37.8407 1.77597 33.9397 1 30 1Z" fill="black"/>
</g>
<defs>
<clipPath id="clip0_255_4">
<rect width="60" height="60" fill="white"/>
</clipPath>
</defs>
</svg>
