<svg width="705" height="112" viewBox="0 0 705 112" fill="none" xmlns="http://www.w3.org/2000/svg">
<path d="M0.313985 0.291997H51.47C60.75 0.291997 67.304 2.264 71.132 6.20799C75.076 10.152 77.048 15.372 77.048 21.868V36.136C77.048 40.66 76.468 44.604 75.308 47.968C74.264 51.332 72.06 53.942 68.696 55.798C72.06 57.306 74.264 59.568 75.308 62.584C76.468 65.6 77.048 69.312 77.048 73.72V90.424C77.048 96.92 75.076 102.14 71.132 106.084C67.304 110.028 60.75 112 51.47 112H0.313985V0.291997ZM47.12 88.162V69.892C47.12 68.616 46.772 67.688 46.076 67.108C45.38 66.412 44.278 66.064 42.77 66.064H30.242V91.99H42.77C44.278 91.99 45.38 91.7 46.076 91.12C46.772 90.424 47.12 89.438 47.12 88.162ZM47.12 42.226V24.13C47.12 22.854 46.772 21.926 46.076 21.346C45.38 20.65 44.278 20.302 42.77 20.302H30.242V46.054H42.77C44.278 46.054 45.38 45.764 46.076 45.184C46.772 44.488 47.12 43.502 47.12 42.226ZM154.935 73.72V95.296H99.0807V73.72H154.935ZM174.075 112H143.451L126.747 33.526L109.521 112H79.5927L108.303 0.291997H145.365L174.075 112ZM207.129 24.13V88.162C207.129 89.438 207.477 90.424 208.173 91.12C208.869 91.7 209.971 91.99 211.479 91.99H216.003V112H202.257C192.977 112 186.365 110.028 182.421 106.084C178.593 102.14 176.679 96.92 176.679 90.424V21.868C176.679 15.372 178.593 10.152 182.421 6.20799C186.365 2.264 192.977 0.291997 202.257 0.291997H216.003V20.302H211.479C209.971 20.302 208.869 20.65 208.173 21.346C207.477 21.926 207.129 22.854 207.129 24.13ZM221.919 42.052V24.13C221.919 22.854 221.571 21.926 220.875 21.346C220.179 20.65 219.077 20.302 217.569 20.302H213.045V0.291997H226.791C236.071 0.291997 242.625 2.264 246.453 6.20799C250.397 10.152 252.369 15.372 252.369 21.868V42.052H221.919ZM221.919 88.162V70.936H252.369V90.424C252.369 96.92 250.397 102.14 246.453 106.084C242.625 110.028 236.071 112 226.791 112H213.045V91.99H217.569C219.077 91.99 220.179 91.7 220.875 91.12C221.571 90.424 221.919 89.438 221.919 88.162ZM290.844 54.928H322.512L344.436 112H311.724L290.844 54.928ZM322.512 54.928H290.844L311.55 0.291997H344.262L322.512 54.928ZM260.22 0.291997H290.67V112H260.22V0.291997ZM380.361 0.291997H410.811V112H380.361V0.291997ZM442.305 44.836V66.586H393.411V44.836H442.305ZM447.351 0.291997V22.042H391.149V0.291997H447.351ZM448.917 90.25V112H391.149V90.25H448.917ZM506.027 0.291997H533.867V112H507.767L482.885 53.362V112H455.045V0.291997H481.145L506.027 59.974V0.291997ZM592.541 46.924V24.13C592.541 22.854 592.193 21.926 591.497 21.346C590.801 20.65 589.699 20.302 588.191 20.302H556.175V0.291997H597.413C606.693 0.291997 613.247 2.264 617.075 6.20799C621.019 10.152 622.991 15.372 622.991 21.868V46.924H592.541ZM592.541 88.162V44.662H622.991V90.424C622.991 96.92 621.019 102.14 617.075 106.084C613.247 110.028 606.693 112 597.413 112H556.175V91.99H588.191C589.699 91.99 590.801 91.7 591.497 91.12C592.193 90.424 592.541 89.438 592.541 88.162ZM546.083 0.291997H576.533V112H546.083V0.291997ZM673.676 41.008V24.13C673.676 22.854 673.328 21.926 672.632 21.346C671.936 20.65 670.834 20.302 669.326 20.302H665.498V0.291997H678.548C687.828 0.291997 694.382 2.264 698.21 6.20799C702.154 10.152 704.126 15.372 704.126 21.868V39.268C704.126 45.764 702.154 50.984 698.21 54.928C694.382 58.872 687.828 60.844 678.548 60.844H659.756V44.836H669.326C670.834 44.836 671.936 44.546 672.632 43.966C673.328 43.27 673.676 42.284 673.676 41.008ZM650.186 44.836H680.984L678.2 71.458H652.796L650.186 44.836ZM650.186 112V83.464H680.114V112H650.186ZM659.93 24.13V35.962H629.48V21.868C629.48 15.372 631.394 10.152 635.222 6.20799C639.166 2.264 645.778 0.291997 655.058 0.291997H666.02V20.302H664.28C662.772 20.302 661.67 20.65 660.974 21.346C660.278 21.926 659.93 22.854 659.93 24.13Z" fill="white"/>
</svg>
