<svg width="1398" height="112" viewBox="0 0 1398 112" fill="none" xmlns="http://www.w3.org/2000/svg">
<path d="M112.622 0.291997H142.724L119.06 112H84.086L71.732 45.358L59.378 112H24.404L0.74 0.291997H32.408L41.804 75.46L56.768 0.291997H86.522L101.486 75.46L112.622 0.291997ZM203.613 46.054V67.804H172.293V46.054H203.613ZM147.933 0.291997H177.861V112H147.933V0.291997ZM199.785 0.291997H229.713V112H199.785V0.291997ZM308.501 73.72V95.296H252.647V73.72H308.501ZM327.641 112H297.017L280.313 33.526L263.087 112H233.159L261.869 0.291997H298.931L327.641 112ZM346.428 10.732H376.878V112H346.428V10.732ZM398.454 0.291997V22.042H325.026V0.291997H398.454ZM482.293 46.924V24.13C482.293 22.854 481.945 21.926 481.249 21.346C480.553 20.65 479.451 20.302 477.943 20.302H445.927V0.291997H487.165C496.445 0.291997 502.999 2.264 506.827 6.20799C510.771 10.152 512.743 15.372 512.743 21.868V46.924H482.293ZM482.293 88.162V44.662H512.743V90.424C512.743 96.92 510.771 102.14 506.827 106.084C502.999 110.028 496.445 112 487.165 112H445.927V91.99H477.943C479.451 91.99 480.553 91.7 481.249 91.12C481.945 90.424 482.293 89.438 482.293 88.162ZM435.835 0.291997H466.285V112H435.835V0.291997ZM568.649 46.924V25.87C568.649 24.594 568.301 23.666 567.605 23.086C566.909 22.39 565.807 22.042 564.299 22.042H558.557V0.291997H573.521C582.801 0.291997 589.355 2.264 593.183 6.20799C597.127 10.152 599.099 15.372 599.099 21.868V46.924H568.649ZM568.649 86.422V44.662H599.099V90.424C599.099 96.92 597.127 102.14 593.183 106.084C589.355 110.028 582.801 112 573.521 112H558.557V90.25H564.299C565.807 90.25 566.909 89.96 567.605 89.38C568.301 88.684 568.649 87.698 568.649 86.422ZM552.641 25.87V46.924H522.191V21.868C522.191 15.372 524.105 10.152 527.933 6.20799C531.877 2.264 538.489 0.291997 547.769 0.291997H562.733V22.042H556.991C555.483 22.042 554.381 22.39 553.685 23.086C552.989 23.666 552.641 24.594 552.641 25.87ZM552.641 44.662V86.422C552.641 87.698 552.989 88.684 553.685 89.38C554.381 89.96 555.483 90.25 556.991 90.25H562.733V112H547.769C538.489 112 531.877 110.028 527.933 106.084C524.105 102.14 522.191 96.92 522.191 90.424V44.662H552.641ZM692.506 80.854H666.232L633.346 0.291997H664.492L679.108 47.446L692.68 0.291997H723.652L692.506 80.854ZM664.144 64.672H694.594V112H664.144V64.672ZM772.99 46.924V25.87C772.99 24.594 772.642 23.666 771.946 23.086C771.25 22.39 770.148 22.042 768.64 22.042H762.898V0.291997H777.862C787.142 0.291997 793.696 2.264 797.524 6.20799C801.468 10.152 803.44 15.372 803.44 21.868V46.924H772.99ZM772.99 86.422V44.662H803.44V90.424C803.44 96.92 801.468 102.14 797.524 106.084C793.696 110.028 787.142 112 777.862 112H762.898V90.25H768.64C770.148 90.25 771.25 89.96 771.946 89.38C772.642 88.684 772.99 87.698 772.99 86.422ZM756.982 25.87V46.924H726.532V21.868C726.532 15.372 728.446 10.152 732.274 6.20799C736.218 2.264 742.83 0.291997 752.11 0.291997H767.074V22.042H761.332C759.824 22.042 758.722 22.39 758.026 23.086C757.33 23.666 756.982 24.594 756.982 25.87ZM756.982 44.662V86.422C756.982 87.698 757.33 88.684 758.026 89.38C758.722 89.96 759.824 90.25 761.332 90.25H767.074V112H752.11C742.83 112 736.218 110.028 732.274 106.084C728.446 102.14 726.532 96.92 726.532 90.424V44.662H756.982ZM859.751 86.422V0.291997H890.201V90.424C890.201 96.92 888.229 102.14 884.285 106.084C880.457 110.028 873.903 112 864.623 112H849.659V90.25H855.401C856.909 90.25 858.011 89.96 858.707 89.38C859.403 88.684 859.751 87.698 859.751 86.422ZM843.743 0.291997V86.422C843.743 87.698 844.091 88.684 844.787 89.38C845.483 89.96 846.585 90.25 848.093 90.25H853.835V112H838.871C829.591 112 822.979 110.028 819.035 106.084C815.207 102.14 813.293 96.92 813.293 90.424V0.291997H843.743ZM1038.74 0.291997H1068.84L1045.18 112H1010.2L997.847 45.358L985.493 112H950.519L926.855 0.291997H958.523L967.919 75.46L982.883 0.291997H1012.64L1027.6 75.46L1038.74 0.291997ZM1142.43 73.72V95.296H1086.58V73.72H1142.43ZM1161.57 112H1130.95L1114.24 33.526L1097.02 112H1067.09L1095.8 0.291997H1132.86L1161.57 112ZM1216.03 0.291997H1243.87V112H1217.77L1192.88 53.362V112H1165.04V0.291997H1191.14L1216.03 59.974V0.291997ZM1269.65 10.732H1300.1V112H1269.65V10.732ZM1321.68 0.291997V22.042H1248.25V0.291997H1321.68ZM1366.68 41.008V24.13C1366.68 22.854 1366.34 21.926 1365.64 21.346C1364.94 20.65 1363.84 20.302 1362.33 20.302H1358.51V0.291997H1371.56C1380.84 0.291997 1387.39 2.264 1391.22 6.20799C1395.16 10.152 1397.13 15.372 1397.13 21.868V39.268C1397.13 45.764 1395.16 50.984 1391.22 54.928C1387.39 58.872 1380.84 60.844 1371.56 60.844H1352.76V44.836H1362.33C1363.84 44.836 1364.94 44.546 1365.64 43.966C1366.34 43.27 1366.68 42.284 1366.68 41.008ZM1343.19 44.836H1373.99L1371.21 71.458H1345.8L1343.19 44.836ZM1343.19 112V83.464H1373.12V112H1343.19ZM1352.94 24.13V35.962H1322.49V21.868C1322.49 15.372 1324.4 10.152 1328.23 6.20799C1332.17 2.264 1338.79 0.291997 1348.07 0.291997H1359.03V20.302H1357.29C1355.78 20.302 1354.68 20.65 1353.98 21.346C1353.29 21.926 1352.94 22.854 1352.94 24.13Z" fill="white"/>
</svg>
