<svg width="763" height="113" viewBox="0 0 763 113" fill="none" xmlns="http://www.w3.org/2000/svg">
<path d="M0.96 0.479985H31.41V112.188H0.96V0.479985ZM63.078 49.374V69.384H14.184V49.374H63.078ZM67.95 0.479985V22.23H11.748V0.479985H67.95ZM120.921 47.982V26.058C120.921 24.782 120.573 23.854 119.877 23.274C119.181 22.578 118.079 22.23 116.571 22.23H84.2068V0.479985H125.793C135.073 0.479985 141.627 2.45198 145.455 6.39598C149.399 10.34 151.371 15.56 151.371 22.056V50.94C151.371 57.436 149.399 62.656 145.455 66.6C141.627 70.544 135.073 72.516 125.793 72.516H84.2068V51.81H116.571C118.079 51.81 119.181 51.52 119.877 50.94C120.573 50.244 120.921 49.258 120.921 47.982ZM74.1148 0.479985H104.565V112.188H74.1148V0.479985ZM101.085 60.336H130.839L156.939 112.188H124.227L101.085 60.336ZM205.95 47.112V26.058C205.95 24.782 205.602 23.854 204.906 23.274C204.21 22.578 203.108 22.23 201.6 22.23H195.858V0.479985H210.822C220.102 0.479985 226.656 2.45198 230.484 6.39598C234.428 10.34 236.4 15.56 236.4 22.056V47.112H205.95ZM205.95 86.61V44.85H236.4V90.612C236.4 97.108 234.428 102.328 230.484 106.272C226.656 110.216 220.102 112.188 210.822 112.188H195.858V90.438H201.6C203.108 90.438 204.21 90.148 204.906 89.568C205.602 88.872 205.95 87.886 205.95 86.61ZM189.942 26.058V47.112H159.492V22.056C159.492 15.56 161.406 10.34 165.234 6.39598C169.178 2.45198 175.79 0.479985 185.07 0.479985H200.034V22.23H194.292C192.784 22.23 191.682 22.578 190.986 23.274C190.29 23.854 189.942 24.782 189.942 26.058ZM189.942 44.85V86.61C189.942 87.886 190.29 88.872 190.986 89.568C191.682 90.148 192.784 90.438 194.292 90.438H200.034V112.188H185.07C175.79 112.188 169.178 110.216 165.234 106.272C161.406 102.328 159.492 97.108 159.492 90.612V44.85H189.942ZM297.234 0.479985H325.074V112.188H298.974L274.092 53.55V112.188H246.252V0.479985H272.352L297.234 60.162V0.479985ZM350.862 10.92H381.312V112.188H350.862V10.92ZM402.888 0.479985V22.23H329.46V0.479985H402.888ZM438.529 0.479985H468.979V112.188H438.529V0.479985ZM500.473 45.024V66.774H451.579V45.024H500.473ZM505.519 0.479985V22.23H449.317V0.479985H505.519ZM507.085 90.438V112.188H449.317V90.438H507.085ZM564.195 0.479985H592.035V112.188H565.935L541.053 53.55V112.188H513.213V0.479985H539.313L564.195 60.162V0.479985ZM650.709 47.112V24.318C650.709 23.042 650.361 22.114 649.665 21.534C648.969 20.838 647.867 20.49 646.359 20.49H614.343V0.479985H655.581C664.861 0.479985 671.415 2.45198 675.243 6.39598C679.187 10.34 681.159 15.56 681.159 22.056V47.112H650.709ZM650.709 88.35V44.85H681.159V90.612C681.159 97.108 679.187 102.328 675.243 106.272C671.415 110.216 664.861 112.188 655.581 112.188H614.343V92.178H646.359C647.867 92.178 648.969 91.888 649.665 91.308C650.361 90.612 650.709 89.626 650.709 88.35ZM604.251 0.479985H634.701V112.188H604.251V0.479985ZM731.844 41.196V24.318C731.844 23.042 731.496 22.114 730.8 21.534C730.104 20.838 729.002 20.49 727.494 20.49H723.666V0.479985H736.716C745.996 0.479985 752.55 2.45198 756.378 6.39598C760.322 10.34 762.294 15.56 762.294 22.056V39.456C762.294 45.952 760.322 51.172 756.378 55.116C752.55 59.06 745.996 61.032 736.716 61.032H717.924V45.024H727.494C729.002 45.024 730.104 44.734 730.8 44.154C731.496 43.458 731.844 42.472 731.844 41.196ZM708.354 45.024H739.152L736.368 71.646H710.964L708.354 45.024ZM708.354 112.188V83.652H738.282V112.188H708.354ZM718.098 24.318V36.15H687.648V22.056C687.648 15.56 689.562 10.34 693.39 6.39598C697.334 2.45198 703.946 0.479985 713.226 0.479985H724.188V20.49H722.448C720.94 20.49 719.838 20.838 719.142 21.534C718.446 22.114 718.098 23.042 718.098 24.318Z" fill="white"/>
</svg>
