<svg width="60" height="60" viewBox="0 0 60 60" fill="none" xmlns="http://www.w3.org/2000/svg">
<path d="M7.685 26.275L9.3225 27.4575L5.2975 32.5075L9.96 38.1L8.345 39.35L2.8425 32.62L7.685 26.275ZM2.0925 39.03H0V21.455L2.0925 21V39.03ZM54.45 28.075C53.3583 28.075 52.5208 28.4833 51.9375 29.3C51.3542 30.12 51.0625 31.3183 51.0625 32.895C51.0625 34.4567 51.3542 35.635 51.9375 36.43C52.5208 37.225 53.3583 37.6233 54.45 37.625C55.555 37.625 56.4 37.2267 56.985 36.43C57.5683 35.635 57.86 34.4567 57.86 32.895C57.86 31.3183 57.5683 30.1208 56.985 29.3025C56.4 28.4842 55.555 28.075 54.45 28.075ZM54.45 26.3925C56.1767 26.3925 57.5325 26.9533 58.5175 28.075C59.5042 29.195 59.9975 30.8017 59.9975 32.895C59.9975 34.9567 59.5083 36.54 58.53 37.645C57.5533 38.7533 56.1933 39.3075 54.45 39.3075C52.7217 39.3075 51.365 38.7542 50.38 37.6475C49.395 36.5392 48.9017 34.955 48.9 32.895C48.9 30.8017 49.3967 29.195 50.39 28.075C51.3833 26.9533 52.7367 26.3925 54.45 26.3925ZM40.615 37.555C40.9159 37.5534 41.2156 37.5157 41.5075 37.4425C41.8236 37.3645 42.1342 37.2659 42.4375 37.1475C42.7413 37.0279 43.0327 36.8789 43.3075 36.7025C43.5657 36.5392 43.8084 36.3526 44.0325 36.145V33.235H41.8575C40.7575 33.235 39.9542 33.425 39.4475 33.805C38.9425 34.1817 38.69 34.78 38.69 35.6C38.69 36.9033 39.3317 37.555 40.615 37.555ZM36.69 35.6925C36.69 34.4325 37.11 33.4742 37.95 32.8175C38.7917 32.1558 40.0158 31.825 41.6225 31.825H44.0325V31.03C44.0325 29.105 43.1833 28.1425 41.485 28.1425C40.94 28.1425 40.3683 28.2183 39.77 28.37C39.1717 28.5217 38.6217 28.7108 38.12 28.9375L37.5075 27.4625C38.1292 27.1125 38.8 26.8425 39.52 26.6525C40.2383 26.4642 40.9383 26.3692 41.62 26.3675C44.5633 26.3675 46.035 27.9367 46.035 31.075V39.0325H44.485L44.235 37.67C43.615 38.17 42.9525 38.5567 42.2475 38.83C41.5425 39.1017 40.8717 39.2375 40.235 39.2375C39.1267 39.2375 38.2592 38.9233 37.6325 38.295C37.0025 37.665 36.69 36.7975 36.69 35.6925ZM32.5625 26.2775L34.2 27.46L30.175 32.51L34.835 38.1025L33.2225 39.3525L27.72 32.6225L32.5625 26.2775ZM26.97 39.0325H24.8775V21.4575L26.97 21.0025V39.0325ZM15.735 37.5575C16.0217 37.5575 16.32 37.5192 16.63 37.4425C16.9444 37.3642 17.2534 37.2657 17.555 37.1475C17.8606 37.0282 18.1536 36.8792 18.43 36.7025C18.6882 36.5392 18.9309 36.3526 19.155 36.145V33.235H16.98C15.88 33.235 15.0758 33.425 14.5675 33.805C14.0625 34.1817 13.81 34.78 13.81 35.6C13.81 36.905 14.4517 37.5567 15.735 37.555M11.81 35.6925C11.81 34.4325 12.2308 33.4742 13.0725 32.8175C13.9125 32.1558 15.1358 31.825 16.7425 31.825H19.155V31.03C19.155 29.105 18.305 28.1425 16.605 28.1425C16.0617 28.1425 15.49 28.2183 14.89 28.37C14.29 28.5217 13.74 28.7108 13.24 28.9375L12.6275 27.4625C13.2492 27.1125 13.92 26.8425 14.64 26.6525C15.36 26.4642 16.0608 26.37 16.7425 26.37C19.6842 26.37 21.155 27.9383 21.155 31.075V39.0325H19.61L19.36 37.67C18.735 38.17 18.0717 38.5567 17.37 38.83C16.6667 39.1017 15.995 39.2375 15.355 39.2375C14.25 39.2375 13.3833 38.9233 12.755 38.295C12.125 37.665 11.81 36.7975 11.81 35.6925Z" fill="black"/>
</svg>
