<svg width="1920" height="3240" viewBox="0 0 1920 3240" fill="none" xmlns="http://www.w3.org/2000/svg">
<path d="M161.792 0C141.98 1.84302 119.03 24.7444 102.541 34.0191C81.6157 45.7896 54.7356 67.114 43.0592 87.6316C36.6409 98.9099 33.3533 106.871 24.312 116.483C-0.278944 142.628 2.03626 181.74 0.241497 214.019C-1.73155 249.505 8.6275 257.596 22.4604 287.01C48.5907 342.572 131.766 365.515 187.251 379.809C244.727 394.615 302.415 402.812 361.299 411.029C384.571 414.276 406.162 420.956 430.039 422.225C454 423.499 475.937 433.264 499.242 434.067C538.771 435.429 577.935 448.439 616.817 449.569C664.183 450.946 710.323 461.142 756.148 473.038C819.308 489.436 885.985 496.449 948.249 514.593C992.481 527.483 1037.05 546.928 1082.72 554.426C1134.67 562.954 1197.95 579.149 1242.88 604.593C1275.73 623.195 1308.22 642.019 1341.71 659.713C1421.68 701.961 1493.64 760.194 1506.5 847.895C1514.02 899.191 1494.79 940.659 1455.12 977.081C1422.76 1006.79 1367.66 1026.21 1323.19 1030.05C1295.16 1032.47 1241.63 1039.31 1216.27 1024.23C1186.94 1006.81 1168.32 961.57 1156.32 932.943C1147.9 912.84 1143.92 880.528 1151.92 859.522C1175.02 798.899 1265.87 806.124 1319.26 806.124C1368.57 806.124 1401.65 842.532 1409.29 886.22C1420.03 947.581 1400.81 1000.91 1344.02 1037.8C1273.55 1083.59 1186.36 1110.02 1103.55 1127.8C1070.77 1134.84 1046.21 1143.3 1011.67 1143.3C963.525 1143.3 915.384 1143.3 867.243 1143.3C755.222 1143.3 643.202 1143.3 531.181 1143.3C437.202 1143.3 341.599 1141.14 248.816 1157.51C188.903 1168.08 120.233 1185.96 67.8241 1216.08C34.7507 1235.08 24.312 1248.9 24.312 1284.76C24.312 1321.36 96.1175 1339.52 127.537 1349.57C153.803 1357.97 185.115 1383.59 212.71 1383.59C239.194 1383.59 263.472 1394.43 290.476 1395.43C321.717 1396.59 351.766 1406.55 383.055 1406.84C416.468 1407.16 447.657 1410.62 480.726 1413.73C503.067 1415.83 520.294 1422.66 541.365 1426.22C575.498 1431.99 618.744 1444.77 649.682 1459.16C664.809 1466.2 681.926 1465.8 697.36 1472.73C713.021 1479.76 729.421 1484.84 745.039 1492.11C780.421 1508.56 815.491 1526.46 849.884 1544.64C900.244 1571.26 942.677 1605.83 989.447 1637.22C1045.07 1674.57 1099.19 1713.57 1154.7 1750.91C1187.54 1773 1217.18 1798.43 1251.45 1818.95C1297.5 1846.53 1348.95 1865.46 1396.1 1891.51C1482.38 1939.16 1575.75 1966.52 1668.98 1998.95C1727.34 2019.25 1781.71 2019.19 1843.49 2019.19C1872.02 2019.19 1900.39 2015.61 1913.38 1987.97C1929.16 1954.42 1913.17 1921.52 1902.27 1889.57C1893.17 1862.84 1870.55 1845.66 1840.94 1842.85C1801.88 1839.14 1762.12 1840.91 1722.9 1840.91C1704.6 1840.91 1680.5 1837.26 1663.42 1844.78C1597.44 1873.86 1549.08 1935.35 1530.8 1999.59C1521.34 2032.83 1507.17 2065.71 1500.02 2099.71C1493.35 2131.43 1485.61 2167.17 1472.48 2197.03C1460.04 2225.31 1450.65 2253.14 1436.6 2280.57C1425.78 2301.71 1412.87 2332.87 1395.87 2349.9C1382.55 2363.24 1383.35 2389.52 1369.71 2401.15C1362.8 2407.05 1357.06 2416.93 1351.66 2424.19C1343.27 2435.46 1336.1 2435.73 1325.05 2444.64C1315.54 2452.31 1301.81 2460.34 1288.94 2461C1273.31 2461.81 1265.19 2471.36 1250.98 2475.65C1223.22 2484.02 1190.9 2492.44 1165.58 2505.79C1134.77 2522.03 1106.13 2532.71 1080.64 2555.74C1065.67 2569.27 1047.42 2578.89 1032.5 2592.78C1012.93 2610.98 997.456 2632.69 977.874 2650.91C938.448 2687.59 896.776 2725.25 876.269 2775.14C862.918 2807.63 851.049 2842.07 834.84 2873.11C821.44 2898.78 806.925 2925.1 799.429 2952.99C795.409 2967.95 792.472 2983.71 791.097 2999.07C790.17 3009.41 782.895 3018.28 782.533 3027.7C780.725 3074.8 770.035 3119.01 770.035 3166.36C770.035 3190.87 774.201 3217.53 774.201 3240" stroke="white" stroke-width="3" stroke-linecap="round"/>
</svg>
