<svg width="155" height="155" viewBox="0 0 155 155" fill="none" xmlns="http://www.w3.org/2000/svg">
<path d="M137.427 78.5454C137.442 77.6419 137.197 76.7532 136.719 75.9861C136.241 75.2191 135.552 74.6065 134.734 74.2222L59.185 38.5669L59.1741 38.5557C58.2991 38.1484 57.3196 38.0212 56.3696 38.1914C55.4195 38.3616 54.5451 38.8209 53.8659 39.5066C53.1866 40.1924 52.7356 41.0711 52.5745 42.0227C52.4133 42.9743 52.5498 43.9525 52.9654 44.8237L53.0028 44.8989L63.3954 72.143C63.6446 72.6295 64.017 73.0422 64.4755 73.3398C64.934 73.6374 65.4625 73.8096 66.0083 73.8391L124.754 76.9368C124.935 76.94 125.114 76.9788 125.281 77.0511C125.447 77.1234 125.597 77.2278 125.723 77.3583C125.849 77.4887 125.948 77.6427 126.015 77.8115C126.081 77.9802 126.114 78.1604 126.111 78.3417C126.108 78.5231 126.069 78.702 125.997 78.8683C125.924 79.0346 125.82 79.1851 125.689 79.3111C125.559 79.4371 125.405 79.5362 125.236 79.6026C125.068 79.6691 124.887 79.7017 124.706 79.6986L65.9008 80.7367C65.3543 80.7472 64.8201 80.9008 64.3515 81.1823C63.883 81.4638 63.4964 81.8633 63.2305 82.3409L51.8882 109.221C51.8683 109.256 51.8511 109.289 51.8339 109.325C50.9658 111.032 51.1461 113.057 52.4126 114.493L52.5483 114.633C53.2149 115.331 54.0762 115.813 55.0201 116.015C55.964 116.217 56.9469 116.13 57.841 115.767L134.566 82.7721C135.4 82.4193 136.114 81.8324 136.622 81.0823C137.13 80.3322 137.409 79.451 137.427 78.5454Z" fill="#C8F31D"/>
</svg>
