<svg width="990" height="1911" viewBox="0 0 990 1911" fill="none" xmlns="http://www.w3.org/2000/svg">
<path d="M2.34229 2C4.74202 25.9974 35.0128 52.2404 51.7091 68.5656C101.521 117.271 159.697 166.862 224.652 194.053C307.13 228.579 391.909 258.382 474.035 293.742C562.586 331.868 660.5 354.396 743.323 404.897C788.922 432.702 816.625 481.696 810.685 535.162C806.01 577.237 776.459 614.167 740.934 635.648C656.574 686.656 553.823 700.401 456.836 700.143C400.09 699.992 333.216 702.365 300.454 647.91C274.755 605.193 248.461 539.546 267.49 489.776C283.285 448.468 333.989 472.607 361.924 484.203C404.688 501.954 426.845 518.989 446.644 559.686C456.232 579.394 455.243 603.853 455.243 625.296C455.243 643.339 442.223 664.808 430.082 677.848C404.016 705.845 374.149 721.631 339.311 737.248C307.184 751.65 274.527 764.703 243.125 780.404C215.874 794.029 196.987 812.272 174.33 831.045C160.068 842.862 149.805 863.625 139.933 879.138C123.263 905.332 110.865 942.937 108.401 973.731C104.358 1024.28 107.844 1074.2 153.628 1104.95C171.759 1117.13 194.071 1124.5 213.824 1133.62C240.793 1146.06 268.927 1156.64 297.588 1164.51C334.89 1174.75 372.109 1182.07 410.017 1188.72C468.721 1199 528.951 1204.1 587.26 1216.11C612.903 1221.39 639.645 1225.71 664.336 1234.42C671.399 1236.91 685.491 1237.65 690.93 1242.54C697.42 1248.38 706.806 1251.6 713.862 1257.51C725.121 1266.94 735.944 1277.36 746.349 1287.77C776.537 1317.96 803.579 1358.18 817.055 1398.6C827.982 1431.39 827.884 1465.94 827.884 1500.2C827.884 1527.16 829.22 1554.5 827.724 1581.42C826.121 1610.28 810.16 1640.4 795.716 1664.55C773.171 1702.24 738.177 1736.58 697.937 1755C678.769 1763.78 661.989 1753.02 648.57 1739.08C614.189 1703.35 619.481 1630.14 642.997 1590.34C657.466 1565.85 687.578 1547.48 716.092 1554.99C749.277 1563.72 779.522 1589.4 805.589 1610.72C834.023 1633.99 859.994 1658.43 883.939 1686.21C920.409 1728.51 957.866 1779.17 973.436 1833.67C980.602 1858.75 980.163 1886.34 988.406 1911.06" stroke="white" stroke-width="3" stroke-linecap="round"/>
</svg>
